<svg width="17" height="20" viewBox="0 0 17 20" fill="none" xmlns="http://www.w3.org/2000/svg">
<path fill-rule="evenodd" clip-rule="evenodd" d="M13.6049 10.628C13.6169 9.06902 14.4329 7.63202 15.7649 6.81902C14.9249 5.61202 13.5699 4.87002 12.1049 4.81902C10.5419 4.65902 9.10486 5.72902 8.27286 5.72902C7.44486 5.72902 6.27286 4.83902 4.97186 4.85802C3.24586 4.91702 1.67486 5.87802 0.834862 7.39002C-0.926138 10.448 0.381862 14.999 2.14386 17.468C2.94486 18.679 3.94486 20.05 5.26486 19.999C6.58486 19.948 7.01486 19.179 8.54286 19.179C10.0739 19.179 10.5419 19.999 11.8429 19.968C13.1439 19.941 14.0659 18.73 14.9059 17.519C15.4999 16.64 15.9639 15.679 16.2849 14.671C14.6639 13.98 13.6089 12.39 13.6049 10.628ZM11.0849 3.19002C11.8469 2.30802 12.2299 1.15902 12.1439 -0.000976562C10.9839 0.0930234 9.90586 0.640023 9.14386 1.51902C8.40586 2.37002 8.04586 3.48702 8.14386 4.60802C9.29286 4.62002 10.3779 4.09302 11.0849 3.19002Z" fill="#1D1D1B"/>
</svg>
