<svg width="21" height="23" viewBox="0 0 21 23" fill="none" xmlns="http://www.w3.org/2000/svg">
<path fill-rule="evenodd" clip-rule="evenodd" d="M18.1199 7.70613H3.23994V10.5597C3.23994 11.085 3.61005 11.5109 4.06661 11.5109H17.2933C17.7498 11.5109 18.1199 11.085 18.1199 10.5597V7.70613ZM6.54661 5.80376C6.54661 4.22778 7.65694 2.9502 9.02661 2.9502H12.3333C13.7029 2.9502 14.8133 4.22778 14.8133 5.80376H18.1199C19.0331 5.80376 19.7733 6.65548 19.7733 7.70613V17.218C19.7733 19.3193 18.2928 21.0228 16.4666 21.0228H4.89328C3.06705 21.0228 1.58661 19.3193 1.58661 17.218V7.70613C1.58661 6.65548 2.32683 5.80376 3.23994 5.80376H6.54661ZM8.19994 5.80376H13.1599C13.1599 5.27843 12.7898 4.85257 12.3333 4.85257H9.02661C8.57005 4.85257 8.19994 5.27843 8.19994 5.80376ZM8.19994 13.4133H4.06661C3.77675 13.4133 3.49851 13.356 3.23994 13.2509V17.218C3.23994 18.2687 3.98016 19.1204 4.89328 19.1204H16.4666C17.3797 19.1204 18.1199 18.2687 18.1199 17.218V13.2509C17.8614 13.356 17.5831 13.4133 17.2933 13.4133H13.1599V14.9352C13.1599 15.6706 12.6418 16.2668 12.0026 16.2668H9.35728C8.7181 16.2668 8.19994 15.6706 8.19994 14.9352V13.4133ZM9.85328 14.3644H11.5066V13.4133H9.85328V14.3644Z" fill="#008059"/>
</svg>
