<svg width="20" height="20" viewBox="0 0 20 20" fill="none" xmlns="http://www.w3.org/2000/svg">
<path d="M6.25 7.08325L6.25 6.66658C6.25 4.59552 7.92893 2.91658 10 2.91658V2.91658C12.0711 2.91658 13.75 4.59551 13.75 6.66658L13.75 7.08325" stroke="#222222" stroke-width="1.2" stroke-linecap="round"/>
<path d="M12.9167 11.2499V9.58325" stroke="#222222" stroke-linecap="round"/>
<path d="M7.08331 11.2499V9.58325" stroke="#222222" stroke-linecap="round"/>
<path d="M4.58331 10.6833C4.58331 8.9862 4.58331 8.13767 5.11052 7.61046C5.63773 7.08325 6.48626 7.08325 8.18331 7.08325H11.8166C13.5137 7.08325 14.3622 7.08325 14.8894 7.61046C15.4166 8.13767 15.4166 8.9862 15.4166 10.6833V11.6666C15.4166 13.9324 15.4166 15.0653 14.836 15.8572C14.655 16.104 14.4374 16.3216 14.1906 16.5026C13.3986 17.0833 12.2658 17.0833 9.99998 17.0833V17.0833C7.7342 17.0833 6.60131 17.0833 5.80938 16.5026C5.56259 16.3216 5.34494 16.104 5.16398 15.8572C4.58331 15.0653 4.58331 13.9324 4.58331 11.6666V10.6833Z" stroke="#222222" stroke-width="1.2"/>
</svg>
