<svg width="24" height="24" viewBox="0 0 24 24" fill="none" xmlns="http://www.w3.org/2000/svg">
<path fill-rule="evenodd" clip-rule="evenodd" d="M14.2702 2.66963C13.5633 2.39815 12.7973 2.25 11.9997 2.25C8.771 2.25 6.05864 4.67767 5.7021 7.88659L5.45029 10.1528L5.44414 10.2078C5.32729 11.2261 4.99582 12.2081 4.47161 13.0889L4.4432 13.1364L3.86517 14.0998L3.84574 14.1321C3.60007 14.5416 3.387 14.8966 3.24673 15.1945C3.10462 15.4962 2.97299 15.8655 3.03724 16.2727C3.10317 16.6906 3.31823 17.0704 3.64261 17.3419C3.95874 17.6066 4.34317 17.6837 4.67501 17.7171C5.00259 17.75 5.41668 17.75 5.89415 17.75L5.9319 17.75H18.0674L18.1052 17.75C18.5827 17.75 18.9967 17.75 19.3243 17.7171C19.6562 17.6837 20.0406 17.6066 20.3567 17.3419C20.6811 17.0704 20.8962 16.6906 20.9621 16.2727C21.0263 15.8655 20.8947 15.4962 20.7526 15.1945C20.6123 14.8966 20.3993 14.5416 20.1536 14.1322L20.1536 14.1322L20.1342 14.0998L19.5561 13.1364L19.5277 13.0889C19.1329 12.4255 18.8474 11.7046 18.6806 10.954C18.4579 10.9843 18.2306 11 17.9997 11C17.7085 11 17.4231 10.9751 17.1456 10.9273C17.331 11.9598 17.7007 12.9521 18.2387 13.8561L18.2699 13.9081L18.8479 14.8715C19.1186 15.3227 19.2914 15.6124 19.3956 15.8336C19.4596 15.9694 19.4744 16.0337 19.4779 16.0527C19.4671 16.1024 19.4415 16.1477 19.4044 16.1824C19.3864 16.1893 19.3236 16.2096 19.1742 16.2246C18.9309 16.2491 18.5936 16.25 18.0674 16.25H5.9319C5.40576 16.25 5.0684 16.2491 4.82516 16.2246C4.67575 16.2096 4.61296 16.1893 4.59491 16.1824C4.55782 16.1477 4.5322 16.1024 4.52148 16.0527C4.5249 16.0337 4.53978 15.9694 4.60376 15.8336C4.70792 15.6124 4.88071 15.3227 5.15141 14.8715L5.72944 13.9081L5.76061 13.8561C6.39328 12.793 6.79333 11.6078 6.93436 10.3788L6.94112 10.3185L7.19292 8.05224C7.46506 5.60297 9.53532 3.75 11.9997 3.75C12.4966 3.75 12.9775 3.82534 13.4308 3.96573C13.6431 3.48979 13.9275 3.05312 14.2702 2.66963ZM16.7737 4.41972C16.334 4.76129 16.0407 5.2823 16.0036 5.8728C16.3397 6.368 16.587 6.93032 16.7214 7.53822C17.068 7.82658 17.5136 8 17.9997 8C18.1043 8 18.207 7.99197 18.3072 7.9765L18.2972 7.8866C18.1496 6.55813 17.5983 5.36357 16.7737 4.41972Z" fill="#33363F"/>
<path d="M9.10222 17.6647C9.27315 18.6215 9.64978 19.467 10.1737 20.0701C10.6976 20.6731 11.3396 21 12 21C12.6604 21 13.3024 20.6731 13.8263 20.0701C14.3502 19.467 14.7269 18.6215 14.8978 17.6647" stroke="#33363F" stroke-width="1.5" stroke-linecap="round"/>
<circle cx="16.75" cy="6.75" r="2.25" fill="#33363F" stroke="#33363F"/>
</svg>
