<svg width="91" height="90" viewBox="0 0 91 90" fill="none" xmlns="http://www.w3.org/2000/svg">
<g filter="url(#filter0_d_744_6508)">
<path fill-rule="evenodd" clip-rule="evenodd" d="M56.5 41C56.5 48.1799 50.6794 54 43.5004 54C36.3206 54 30.5 48.1799 30.5 41C30.5 33.8201 36.3206 28 43.5004 28C50.6794 28 56.5 33.8201 56.5 41" fill="white"/>
</g>
<path fill-rule="evenodd" clip-rule="evenodd" d="M47.0527 39.0593C47.0527 39.4652 47.3812 39.7944 47.7863 39.7944C48.1913 39.7944 48.5198 39.4652 48.5198 39.0593C48.5198 38.6534 48.1913 38.3242 47.7863 38.3242C47.3812 38.3242 47.0527 38.6534 47.0527 39.0593ZM40.4102 41.1271C40.4102 42.8378 41.7942 44.2244 43.5009 44.2244C45.2075 44.2244 46.5912 42.8378 46.5912 41.1271C46.5912 39.4169 45.2075 38.0303 43.5009 38.0303C41.7942 38.0303 40.4102 39.4169 40.4102 41.1271ZM47.0851 36.2693H49.0005C49.8288 36.2693 50.5 36.9423 50.5 37.7719V44.4974C50.5 45.3274 49.8288 46 49.0005 46H37.9995C37.1712 46 36.5 45.3274 36.5 44.4974V37.7719C36.5 36.9423 37.1712 36.2693 37.9995 36.2693H39.9693C40.6219 36.1917 40.8409 35.9283 41.1563 35.533C41.5361 35.057 41.8212 35 42.1723 35H42.6364H43.5274H44.4179H44.882C45.2332 35 45.5182 35.057 45.898 35.533C46.2138 35.9283 46.4324 36.1917 47.0851 36.2693ZM41.4669 41.1276C41.4669 40.0027 42.3768 39.0908 43.4994 39.0908C44.622 39.0908 45.5319 40.0027 45.5319 41.1276C45.5319 42.2526 44.622 43.1645 43.4994 43.1645C42.3768 43.1645 41.4669 42.2526 41.4669 41.1276Z" fill="#333333"/>
<defs>
<filter id="filter0_d_744_6508" x="0.5" y="0" width="90" height="90" filterUnits="userSpaceOnUse" color-interpolation-filters="sRGB">
<feFlood flood-opacity="0" result="BackgroundImageFix"/>
<feColorMatrix in="SourceAlpha" type="matrix" values="0 0 0 0 0 0 0 0 0 0 0 0 0 0 0 0 0 0 127 0" result="hardAlpha"/>
<feOffset dx="2" dy="4"/>
<feGaussianBlur stdDeviation="16"/>
<feComposite in2="hardAlpha" operator="out"/>
<feColorMatrix type="matrix" values="0 0 0 0 0 0 0 0 0 0 0 0 0 0 0 0 0 0 0.2 0"/>
<feBlend mode="normal" in2="BackgroundImageFix" result="effect1_dropShadow_744_6508"/>
<feBlend mode="normal" in="SourceGraphic" in2="effect1_dropShadow_744_6508" result="shape"/>
</filter>
</defs>
</svg>
