<svg width="20" height="22" viewBox="0 0 20 22" fill="none" xmlns="http://www.w3.org/2000/svg">
<path d="M3.33301 6.75C3.33301 4.86438 3.33301 3.92157 3.91879 3.33579C4.50458 2.75 5.44739 2.75 7.33301 2.75H12.6663C14.552 2.75 15.4948 2.75 16.0806 3.33579C16.6663 3.92157 16.6663 4.86438 16.6663 6.75V13.25C16.6663 16.0784 16.6663 17.4926 15.7877 18.3713C14.909 19.25 13.4948 19.25 10.6663 19.25H9.333C6.50458 19.25 5.09037 19.25 4.21169 18.3713C3.33301 17.4926 3.33301 16.0784 3.33301 13.25V6.75Z" fill="white" stroke="#008059" stroke-width="1.5"/>
<path d="M12.5 16.5L12.5 19.25M7.5 16.5L7.5 19.25" stroke="#008059" stroke-width="1.2" stroke-linecap="round"/>
<path d="M7.5 7.33337L12.5 7.33337" stroke="#008059" stroke-width="1.5" stroke-linecap="round"/>
<path d="M7.5 11L12.5 11" stroke="#008059" stroke-width="1.5" stroke-linecap="round"/>
</svg>
