<svg width="16" height="16" viewBox="0 0 16 16" fill="none" xmlns="http://www.w3.org/2000/svg">
<path fill-rule="evenodd" clip-rule="evenodd" d="M8.00065 1.33398C4.31851 1.33398 1.33398 4.31851 1.33398 8.00065C1.33398 11.6828 4.31851 14.6673 8.00065 14.6673C11.6828 14.6673 14.6673 11.6828 14.6673 8.00065C14.6673 4.31851 11.6828 1.33398 8.00065 1.33398ZM8.00056 2.33398C11.1304 2.33398 13.6672 4.87079 13.6672 8.00065C13.6672 11.1305 11.1304 13.6673 8.00056 13.6673C4.8707 13.6673 2.33389 11.1305 2.33389 8.00065C2.33389 4.87079 4.8707 2.33398 8.00056 2.33398ZM8.27052 5.16372C8.23741 4.91967 8.02822 4.73157 7.77508 4.73157C7.49894 4.73157 7.27508 4.95543 7.27508 5.23157V8.4629L7.28066 8.5374C7.30274 8.6841 7.38931 8.81498 7.51893 8.8923L10.0323 10.3916L10.0929 10.4225C10.3194 10.5191 10.5881 10.4358 10.7178 10.2184L10.7487 10.1578C10.8453 9.93124 10.762 9.66252 10.5446 9.53284L8.27482 8.1783L8.27509 5.23157L8.27052 5.16372Z" fill="#008059"/>
</svg>
