<svg width="16" height="16" viewBox="0 0 16 16" fill="none" xmlns="http://www.w3.org/2000/svg">
<path fill-rule="evenodd" clip-rule="evenodd" d="M5.11301 1.33301H10.893C13.153 1.33301 14.6663 2.91967 14.6663 5.27967V10.727C14.6663 13.0803 13.153 14.6663 10.893 14.6663H5.11301C2.85301 14.6663 1.33301 13.0803 1.33301 10.727V5.27967C1.33301 2.91967 2.85301 1.33301 5.11301 1.33301ZM10.0063 9.99967C10.233 9.77367 10.233 9.407 10.0063 9.18033L8.81967 7.99367L10.0063 6.80633C10.233 6.58033 10.233 6.207 10.0063 5.98033C9.77967 5.753 9.413 5.753 9.17967 5.98033L7.99967 7.16633L6.813 5.98033C6.57967 5.753 6.213 5.753 5.98634 5.98033C5.75967 6.207 5.75967 6.58033 5.98634 6.80633L7.173 7.99367L5.98634 9.17367C5.75967 9.407 5.75967 9.77367 5.98634 9.99967C6.09967 10.113 6.253 10.1737 6.39967 10.1737C6.553 10.1737 6.69967 10.113 6.813 9.99967L7.99967 8.82033L9.18634 9.99967C9.29967 10.1203 9.44634 10.1737 9.59301 10.1737C9.74634 10.1737 9.893 10.113 10.0063 9.99967Z" fill="#8F8F8F"/>
</svg>
