<svg width="21" height="23" viewBox="0 0 21 23" fill="none" xmlns="http://www.w3.org/2000/svg">
<g clip-path="url(#clip0_987_1898)">
<path d="M0.75 20.125V19.5372C1.49914 19.9012 2.35118 20.1803 3.24762 20.387C4.68381 20.718 6.28675 20.875 7.875 20.875C9.46325 20.875 11.0662 20.718 12.5024 20.387C13.3988 20.1803 14.2509 19.9012 15 19.5372V20.125C15 20.2214 14.9487 20.4099 14.641 20.6753C14.3358 20.9386 13.8504 21.2099 13.1856 21.4527C11.8622 21.936 9.98444 22.25 7.875 22.25C5.76556 22.25 3.88785 21.936 2.56442 21.4527C1.89965 21.2099 1.41423 20.9386 1.10897 20.6753C0.801321 20.4099 0.75 20.2214 0.75 20.125ZM20.25 2.875C20.25 2.97143 20.1987 3.15992 19.891 3.4253C19.5858 3.68863 19.1004 3.95989 18.4356 4.20267C17.1122 4.686 15.2344 5 13.125 5C11.0156 5 9.13785 4.686 7.81442 4.20267C7.14965 3.95989 6.66423 3.68863 6.35897 3.4253C6.05132 3.15992 6 2.97143 6 2.875C6 2.77857 6.05132 2.59008 6.35897 2.3247C6.66423 2.06137 7.14965 1.79011 7.81442 1.54733C9.13785 1.064 11.0156 0.75 13.125 0.75C15.2344 0.75 17.1122 1.064 18.4356 1.54733C19.1004 1.79011 19.5858 2.06137 19.891 2.3247C20.1987 2.59008 20.25 2.77857 20.25 2.875ZM0.75 15.8125V14.9442C2.67629 16.0414 5.33013 16.5625 7.875 16.5625C10.4199 16.5625 13.0737 16.0414 15 14.9442V15.8125C15 15.9089 14.9487 16.0974 14.641 16.3628C14.3358 16.6261 13.8504 16.8974 13.1856 17.1402C11.8622 17.6235 9.98444 17.9375 7.875 17.9375C5.76556 17.9375 3.88785 17.6235 2.56442 17.1402C1.89965 16.8974 1.41423 16.6261 1.10897 16.3628C0.801321 16.0974 0.75 15.9089 0.75 15.8125ZM20.25 11.5C20.25 11.6319 20.1419 11.9332 19.5183 12.3186C19.096 12.5795 18.5191 12.8237 17.8125 13.0291V11.7381C18.6871 11.5342 19.518 11.2634 20.25 10.9104V11.5ZM0.75 10.7812C0.75 10.2619 1.24477 9.54883 2.61843 8.92214C3.9254 8.32587 5.78338 7.9375 7.875 7.9375C9.96662 7.9375 11.8246 8.32587 13.1316 8.92214C14.5052 9.54883 15 10.2619 15 10.7812C15 11.3006 14.5052 12.0137 13.1316 12.6404C11.8246 13.2366 9.96662 13.625 7.875 13.625C5.78338 13.625 3.9254 13.2366 2.61843 12.6404C1.24477 12.0137 0.75 11.3006 0.75 10.7812ZM20.25 7.1875C20.25 7.32391 20.1333 7.63928 19.4717 8.03643C18.9543 8.34704 18.2194 8.63139 17.3103 8.85228C17.0846 8.42763 16.7892 8.04251 16.4408 7.6956C17.8358 7.48637 19.1592 7.13054 20.25 6.60065V7.1875Z" stroke="#008059" stroke-width="1.5"/>
</g>
<defs>
<clipPath id="clip0_987_1898">
<rect width="21" height="23" fill="white"/>
</clipPath>
</defs>
</svg>
