<svg width="231" height="198" viewBox="0 0 231 198" fill="none" xmlns="http://www.w3.org/2000/svg">
<path d="M40.4842 7.63871L66.3509 40.4224" stroke="#0F0F0F" stroke-width="2.4" stroke-linecap="round" stroke-linejoin="round"/>
<path d="M67.4276 16.8594L93.2942 49.6431" stroke="#167F71" stroke-width="2.4" stroke-linecap="round" stroke-linejoin="round"/>
<path fill-rule="evenodd" clip-rule="evenodd" d="M162.697 75.8604L156.121 87.642L141.401 89.7006L152.036 99.5586L149.516 113.39L162.679 106.855L175.84 113.39L173.314 99.5586L183.698 89.7006L169.278 87.642L162.697 75.8604ZM63.118 75.8604L56.5309 87.642L41.8672 89.7006L52.4565 99.5586L49.9326 113.39L63.0887 106.855L76.2494 113.39L73.7254 99.5586L84.4117 89.7006L69.6938 87.642L63.118 75.8604Z" fill="#FFB62A"/>
<path fill-rule="evenodd" clip-rule="evenodd" d="M63.1172 75.8604V106.855L76.2778 113.39L73.7516 99.5586L84.4108 89.7006L69.693 87.642L63.1172 75.8604Z" fill="#FFB62A"/>
<path fill-rule="evenodd" clip-rule="evenodd" d="M132.84 128.598C130.886 128.598 129.345 127.144 129.345 125.278V121.964H94.3092V125.278C94.3092 127.144 92.7813 128.598 90.8185 128.598H80.3125V157.969C80.3125 175.618 92.9098 191.065 110.983 195.39L111.819 195.582L112.648 195.39C130.729 191.065 143.324 175.601 143.324 157.969V128.598H132.84Z" fill="#F5F5F5"/>
<path fill-rule="evenodd" clip-rule="evenodd" d="M143.342 128.598V157.969C143.342 175.618 130.745 191.065 112.674 195.389L111.84 195.582V121.938H129.345V125.261C129.345 127.127 130.887 128.583 132.841 128.583H143.342V128.598Z" fill="white"/>
<path fill-rule="evenodd" clip-rule="evenodd" d="M132.84 135.26C128.29 135.26 124.371 132.456 122.972 128.598H100.709C99.2396 132.582 95.2801 135.26 90.8316 135.26H87.3477V157.986C87.3477 172.304 97.3466 184.897 111.862 188.77C126.352 184.912 136.378 172.304 136.378 157.986V135.26H132.84Z" fill="#008059"/>
<path fill-rule="evenodd" clip-rule="evenodd" d="M136.334 135.26V157.986C136.334 172.304 126.326 184.897 111.82 188.77V128.598H122.946C124.348 132.456 128.273 135.26 132.821 135.26H136.334Z" fill="#008059"/>
<path fill-rule="evenodd" clip-rule="evenodd" d="M134.191 89.7006L119.473 87.642L112.897 75.8604L106.312 87.642L91.6055 89.7006L102.235 99.5586L99.7092 113.39L112.87 106.855L126.03 113.39L123.513 99.5586L134.191 89.7006Z" fill="#FFB62A"/>
<path fill-rule="evenodd" clip-rule="evenodd" d="M124.777 154.457L111.819 166.838L108.326 170.163L98.8613 161.099L103.776 156.432L108.326 160.688L111.819 157.366L119.864 149.785L124.777 154.457Z" fill="#F5F5F5"/>
<path fill-rule="evenodd" clip-rule="evenodd" d="M126.059 113.39L112.898 106.855V75.8604L119.472 87.642L134.19 89.7006L123.558 99.5586L126.059 113.39Z" fill="#FFB62A"/>
<path fill-rule="evenodd" clip-rule="evenodd" d="M124.776 154.457L111.818 166.838V157.393L119.863 149.812L124.776 154.457Z" fill="white"/>
<path fill-rule="evenodd" clip-rule="evenodd" d="M188.679 14.8101L182.977 17.6594L184.066 11.6245L179.453 7.35064L185.828 6.47017L188.679 0.979492L191.529 6.47017L197.904 7.35064L193.291 11.6245L194.38 17.6594L188.679 14.8101Z" fill="#FCC202"/>
<path fill-rule="evenodd" clip-rule="evenodd" d="M223.167 73.7183L230.712 88.0611H215.623L223.167 73.7183Z" fill="#167F71"/>
<ellipse cx="176.822" cy="59.3755" rx="6.46667" ry="6.14694" fill="#472D2D"/>
<path fill-rule="evenodd" clip-rule="evenodd" d="M9.76641 138.773L4.06489 141.623L5.15378 135.588L0.541158 131.314L6.91565 130.434L9.76641 124.943L12.6172 130.434L18.9917 131.314L14.379 135.588L15.4679 141.623L9.76641 138.773Z" fill="#FF001E"/>
<path fill-rule="evenodd" clip-rule="evenodd" d="M42.0991 183.339L49.6436 197.682H34.5547L42.0991 183.339Z" fill="#332DA1"/>
<ellipse cx="39.9439" cy="151.579" rx="4.31111" ry="4.09796" fill="#167F71"/>
<ellipse cx="21.6229" cy="49.1308" rx="6.46667" ry="6.14694" fill="#FF6B00"/>
</svg>
