<svg width="18" height="17" viewBox="0 0 18 17" fill="none" xmlns="http://www.w3.org/2000/svg">
<path fill-rule="evenodd" clip-rule="evenodd" d="M8.99133 1.60363C9.10374 1.50274 9.25243 1.44985 9.40462 1.45664C12.6219 1.55295 15.3107 3.88852 15.7981 7.0101C15.8012 7.02874 15.8012 7.04774 15.7981 7.06638C15.8086 7.21408 15.7586 7.3598 15.6593 7.47129C15.5601 7.58279 15.4196 7.65088 15.269 7.6605L9.86357 8.01698C9.68481 8.03283 9.50753 7.974 9.37527 7.85496C9.24302 7.73591 9.16804 7.56768 9.16877 7.39159L8.80543 2.08203V1.99447C8.81205 1.84514 8.87893 1.70453 8.99133 1.60363ZM8.62042 9.40469L13.3055 9.10451L13.3374 9.11702C13.5386 9.12031 13.7302 9.20189 13.8701 9.3438C14.01 9.48572 14.0866 9.67635 14.0832 9.87374C13.8986 12.564 11.9262 14.8119 9.24203 15.391C6.55786 15.9701 3.80626 14.7414 2.48832 12.3753C2.10079 11.6938 1.8559 10.9433 1.76802 10.1677C1.73394 9.93785 1.71902 9.70569 1.7234 9.47349C1.73229 6.61277 3.76903 4.14356 6.61888 3.53854C6.96388 3.47396 7.30977 3.64621 7.46029 3.95755C7.49776 4.01404 7.52775 4.07499 7.54953 4.13891C7.60296 4.96356 7.65837 5.78041 7.71355 6.5938C7.75713 7.23618 7.80056 7.87641 7.84275 8.51664C7.84057 8.66746 7.86428 8.81757 7.91287 8.96067C8.02726 9.24223 8.31192 9.42087 8.62042 9.40469Z" fill="#0062FF"/>
</svg>
