<svg width="18" height="18" viewBox="0 0 18 18" fill="none" xmlns="http://www.w3.org/2000/svg">
<path fill-rule="evenodd" clip-rule="evenodd" d="M6.28409 1.53223H12.1833C14.3576 1.53223 15.5682 2.78513 15.5682 4.93196V12.203C15.5682 14.385 14.3576 15.6098 12.1833 15.6098H6.28409C4.1443 15.6098 2.89844 14.385 2.89844 12.203V4.93196C2.89844 2.78513 4.1443 1.53223 6.28409 1.53223ZM6.47609 4.812V4.80496H8.57999C8.88336 4.80496 9.12972 5.05132 9.12972 5.35328C9.12972 5.66369 8.88336 5.91005 8.57999 5.91005H6.47609C6.17272 5.91005 5.92707 5.66369 5.92707 5.36103C5.92707 5.05836 6.17272 4.812 6.47609 4.812ZM6.47609 9.09179H11.9945C12.2972 9.09179 12.5435 8.84543 12.5435 8.54277C12.5435 8.2401 12.2972 7.99304 11.9945 7.99304H6.47609C6.17272 7.99304 5.92707 8.2401 5.92707 8.54277C5.92707 8.84543 6.17272 9.09179 6.47609 9.09179ZM6.4762 12.3083H11.9946C12.2755 12.2801 12.4873 12.0401 12.4873 11.7592C12.4873 11.4707 12.2755 11.2313 11.9946 11.2032H6.4762C6.26504 11.1821 6.06092 11.2806 5.9483 11.4636C5.83568 11.6396 5.83568 11.8719 5.9483 12.0549C6.06092 12.2308 6.26504 12.3364 6.4762 12.3083Z" fill="#8F8F8F"/>
</svg>
