<svg width="11" height="18" viewBox="0 0 11 18" fill="none" xmlns="http://www.w3.org/2000/svg">
<path d="M4.842 17.07V14.748L5.202 15.09C4.326 15.078 3.504 14.952 2.736 14.712C1.968 14.46 1.296 14.094 0.72 13.614L1.332 12.138C1.908 12.594 2.52 12.936 3.168 13.164C3.828 13.392 4.572 13.506 5.4 13.506C6.372 13.506 7.086 13.326 7.542 12.966C8.01 12.594 8.244 12.126 8.244 11.562C8.244 11.094 8.076 10.722 7.74 10.446C7.416 10.17 6.864 9.948 6.084 9.78L4.23 9.384C3.126 9.144 2.31 8.748 1.782 8.196C1.254 7.644 0.99 6.912 0.99 6C0.99 5.292 1.158 4.662 1.494 4.11C1.842 3.558 2.322 3.12 2.934 2.796C3.558 2.472 4.284 2.286 5.112 2.238L4.842 2.49V0.239999H6.318V2.49L6.012 2.238C6.684 2.262 7.35 2.4 8.01 2.652C8.67 2.892 9.228 3.252 9.684 3.732L9.09 5.154C8.622 4.698 8.094 4.362 7.506 4.146C6.918 3.918 6.27 3.804 5.562 3.804C4.698 3.804 4.014 4.002 3.51 4.398C3.018 4.794 2.772 5.31 2.772 5.946C2.772 6.426 2.928 6.816 3.24 7.116C3.552 7.416 4.068 7.644 4.788 7.8L6.642 8.196C7.794 8.436 8.652 8.82 9.216 9.348C9.78 9.876 10.062 10.578 10.062 11.454C10.062 12.138 9.888 12.744 9.54 13.272C9.192 13.788 8.712 14.202 8.1 14.514C7.5 14.814 6.804 15 6.012 15.072L6.318 14.73V17.07H4.842Z" fill="white"/>
</svg>
