<svg width="8" height="8" viewBox="0 0 8 8" fill="none" xmlns="http://www.w3.org/2000/svg">
<path d="M4 5.33398L3.78787 5.54612L4 5.75825L4.21213 5.54612L4 5.33398ZM4.3 1.33398C4.3 1.1683 4.16569 1.03398 4 1.03398C3.83431 1.03398 3.7 1.1683 3.7 1.33398L4.3 1.33398ZM1.78787 3.54612L3.78787 5.54612L4.21213 5.12185L2.21213 3.12185L1.78787 3.54612ZM4.21213 5.54612L6.21213 3.54612L5.78787 3.12185L3.78787 5.12185L4.21213 5.54612ZM4.3 5.33398L4.3 1.33398L3.7 1.33398L3.7 5.33398L4.3 5.33398Z" fill="#222222"/>
<path d="M1.66797 7H6.33464" stroke="#222222" stroke-width="0.6"/>
</svg>
