<svg width="17" height="13" viewBox="0 0 17 13" fill="none" xmlns="http://www.w3.org/2000/svg">
<path d="M1.49414 0.675781H15.5059C16.3297 0.675781 17 1.34605 17 2.16992V10.8287C17 11.6526 16.3297 12.3228 15.5059 12.3228H1.49414C0.670271 12.3228 0 11.6526 0 10.8287V2.16992C0 1.34605 0.670271 0.675781 1.49414 0.675781ZM1.68914 1.67188L1.88856 1.83792L7.90719 6.84964C8.25071 7.13565 8.74936 7.13565 9.09281 6.84964L15.1114 1.83792L15.3109 1.67188H1.68914ZM16.0039 2.39099L11.1001 6.47441L16.0039 9.73804V2.39099ZM1.49414 11.3267H15.5059C15.7465 11.3267 15.9478 11.1552 15.9939 10.9279L10.3014 7.13943L9.73018 7.6151C9.37377 7.91187 8.93685 8.06026 8.49997 8.06026C8.06308 8.06026 7.62619 7.91187 7.26976 7.6151L6.69853 7.13943L1.00605 10.9279C1.05221 11.1552 1.25348 11.3267 1.49414 11.3267ZM0.996094 9.73804L5.89993 6.47444L0.996094 2.39099V9.73804Z" fill="#008059"/>
</svg>
