<svg width="20" height="20" viewBox="0 0 20 20" fill="none" xmlns="http://www.w3.org/2000/svg">
<path fill-rule="evenodd" clip-rule="evenodd" d="M7.21307 5.1931C6.21479 4.84578 5.02838 5.1135 4.29998 6.05233L4.04218 6.3846C2.98734 7.74418 3.13964 9.68301 4.39385 10.8612L10.0003 16.1278L15.6067 10.8612C16.8609 9.68301 17.0132 7.74418 15.9584 6.3846L15.7006 6.05232C14.7783 4.86367 13.122 4.74997 12.041 5.60137L10.8035 4.03016C12.702 2.53489 15.636 2.70645 17.2807 4.82633L17.5385 5.1586C19.2258 7.33324 18.9821 10.4344 16.9761 12.3189L11.1822 17.7616C11.1764 17.7671 11.1705 17.7726 11.1644 17.7784C11.0812 17.8566 10.9733 17.9581 10.8685 18.0388C10.7426 18.1358 10.5451 18.265 10.2731 18.3183L10.0805 17.3371L10.2731 18.3184C10.0929 18.3537 9.90762 18.3537 9.72747 18.3184L9.92004 17.3371L9.72746 18.3183C9.45549 18.265 9.25794 18.1358 9.13205 18.0388C9.02721 17.9581 8.91937 17.8566 8.83617 17.7784C8.83009 17.7726 8.82414 17.7671 8.81834 17.7616L3.0245 12.3189C1.01841 10.4344 0.774794 7.33324 2.46201 5.1586L2.71981 4.82633C4.41105 2.64652 7.46535 2.52586 9.35742 4.16255L10.0803 4.78786L9.48828 5.53824L8.85983 6.33482C8.51323 6.77413 8.32071 7.02192 8.2106 7.21054C8.20916 7.21299 8.20777 7.2154 8.2064 7.21777C8.20852 7.21949 8.21068 7.22125 8.21289 7.22304C8.38272 7.36036 8.65059 7.5238 9.13042 7.8117L9.54953 8.06317C9.5656 8.07281 9.58165 8.08243 9.59768 8.09205C9.97801 8.32015 10.3457 8.54067 10.6227 8.76298C10.9339 9.01282 11.2543 9.3594 11.3711 9.87896C11.4879 10.3985 11.3467 10.8489 11.1724 11.2079C11.0173 11.5274 10.7794 11.8841 10.5334 12.253C10.523 12.2686 10.5126 12.2841 10.5022 12.2997L9.99902 13.0545L8.33492 11.9451L8.8381 11.1903C9.12726 10.7566 9.28534 10.5155 9.37329 10.3344C9.37443 10.332 9.37554 10.3297 9.37662 10.3274C9.37468 10.3259 9.37269 10.3243 9.37065 10.3226C9.21362 10.1966 8.96754 10.0464 8.52054 9.77815L8.10143 9.52668C8.08451 9.51653 8.06762 9.5064 8.05075 9.49629C7.64069 9.25035 7.24794 9.0148 6.95539 8.77825C6.62867 8.51408 6.29055 8.14339 6.18869 7.58745C6.08683 7.0315 6.27157 6.56501 6.4834 6.20217C6.66453 5.89192 6.93142 5.55012 7.21307 5.1931ZM8.12128 7.13841C8.12131 7.13841 8.12173 7.13893 8.12246 7.13994C8.12162 7.13891 8.12126 7.13841 8.12128 7.13841ZM8.1555 7.3203C8.15518 7.32151 8.15497 7.32213 8.15495 7.32214Z" fill="#008059"/>
</svg>
