<svg width="20" height="19" viewBox="0 0 20 19" fill="none" xmlns="http://www.w3.org/2000/svg">
<g clip-path="url(#clip0_1077_2688)">
<path fill-rule="evenodd" clip-rule="evenodd" d="M8.83315 0.762553C9.53121 0.0645009 10.663 0.0645008 11.361 0.762551L12.2717 1.67318C12.7186 2.12013 13.3248 2.37123 13.9569 2.37123H15.4232C16.4104 2.37123 17.2107 3.17151 17.2107 4.1587V5.62503C17.2107 6.25712 17.4618 6.86332 17.9087 7.31028L18.8874 8.28897C19.5855 8.98702 19.5855 10.1188 18.8874 10.8168L17.9087 11.7955C17.4618 12.2425 17.2107 12.8487 17.2107 13.4808V14.8027C17.2107 15.7899 16.4104 16.5901 15.4232 16.5901H14.1013C13.4692 16.5901 12.863 16.8412 12.4161 17.2882L11.361 18.3433C10.663 19.0413 9.53121 19.0413 8.83316 18.3433L7.77809 17.2882C7.33114 16.8412 6.72494 16.5901 6.09285 16.5901H4.77927C3.79207 16.5901 2.99179 15.7899 2.99179 14.8027V13.4891C2.99179 12.857 2.7407 12.2508 2.29374 11.8038L1.30674 10.8168C0.60869 10.1188 0.608691 8.98702 1.30674 8.28897L2.29374 7.30197C2.7407 6.85501 2.99179 6.24881 2.99179 5.61672V4.15871C2.99179 3.17151 3.79207 2.37123 4.77926 2.37123H6.23728C6.86937 2.37123 7.47557 2.12013 7.92253 1.67318L8.83315 0.762553ZM12.0784 7.03841C11.7992 6.75922 11.3466 6.75922 11.0674 7.03841L7.26276 10.843C6.98356 11.1222 6.98356 11.5749 7.26276 11.8541C7.54195 12.1333 7.99462 12.1333 8.27381 11.8541L12.0784 8.04947C12.3576 7.77027 12.3576 7.31761 12.0784 7.03841ZM8.80048 7.45175C8.80048 8.07222 8.29749 8.5752 7.67703 8.5752C7.05656 8.5752 6.55358 8.07222 6.55358 7.45175C6.55358 6.83129 7.05656 6.3283 7.67703 6.3283C8.29749 6.3283 8.80048 6.83129 8.80048 7.45175ZM11.7621 12.661C12.3826 12.661 12.8856 12.158 12.8856 11.5376C12.8856 10.9171 12.3826 10.4141 11.7621 10.4141C11.1416 10.4141 10.6387 10.9171 10.6387 11.5376C10.6387 12.158 11.1416 12.661 11.7621 12.661Z" fill="#F88922"/>
</g>
<defs>
<clipPath id="clip0_1077_2688">
<rect width="18.6278" height="18.6278" fill="white" transform="translate(0.783203 0.239014)"/>
</clipPath>
</defs>
</svg>
