<svg width="14" height="14" viewBox="0 0 14 14" fill="none" xmlns="http://www.w3.org/2000/svg">
<path d="M11.2642 14C11.2277 13.9977 11.1929 13.9831 11.1649 13.9583L6.99708 10.779L2.82922 13.9583C2.80117 13.9829 2.76643 13.9975 2.72998 14C2.70903 13.9997 2.68873 13.9924 2.67197 13.9792C2.64754 13.9615 2.6109 13.915 2.64143 13.8188L4.23377 8.67384L0.0720174 5.4913C-0.00889712 5.42877 -0.00431743 5.36945 0.00484271 5.34059C0.0140028 5.31173 0.0445372 5.26042 0.143772 5.26042H5.29482L6.88105 0.113834C6.91158 0.0144297 6.96654 0 6.99708 0C7.02761 0 7.08104 0.0144297 7.1131 0.113834L8.70391 5.26202H13.8565C13.9557 5.26202 13.9863 5.31173 13.9954 5.34219C14.0046 5.37265 14.0076 5.43037 13.9282 5.4913L9.76038 8.67224L11.3512 13.8172C11.3833 13.9166 11.3512 13.9631 11.3222 13.9776C11.3056 13.9913 11.2853 13.9992 11.2642 14Z" fill="url(#paint0_linear_586_721)"/>
<path d="M6.99721 7.72803L2.71484 13.92C2.72858 13.9312 2.75301 13.92 2.7866 13.8991L6.99721 10.6925V7.72803Z" fill="url(#paint1_linear_586_721)"/>
<path d="M2.71172 13.8398C2.69951 13.8799 2.70104 13.9071 2.71172 13.9168L6.99408 7.72803L4.3178 8.64191L2.71172 13.8398Z" fill="url(#paint2_linear_586_721)"/>
<path d="M11.2786 13.9199L7.00391 7.7312V10.6829L11.2145 13.8895C11.2405 13.9199 11.2649 13.9279 11.2786 13.9199Z" fill="url(#paint3_linear_586_721)"/>
<path d="M9.67238 8.64191L6.99609 7.72803L11.2708 13.9168C11.283 13.9071 11.2861 13.8799 11.2708 13.8398L9.67238 8.64191Z" fill="url(#paint4_linear_586_721)"/>
<path d="M13.9242 5.36328L6.99609 7.72815L9.67238 8.64203L13.883 5.43543C13.9166 5.40336 13.9288 5.38092 13.9242 5.36328Z" fill="url(#paint5_linear_586_721)"/>
<path d="M8.6495 5.33765L6.99609 7.72816L13.9242 5.3633C13.9242 5.34727 13.8952 5.33765 13.8555 5.33765H8.6495Z" fill="url(#paint6_linear_586_721)"/>
<path d="M6.99732 7.72815L0.0722656 5.36328C0.0722656 5.38092 0.0722651 5.40336 0.113486 5.42902L4.32409 8.63561L6.99732 7.72815Z" fill="url(#paint7_linear_586_721)"/>
<path d="M0.0722656 5.3633L7.00038 7.72816L5.34392 5.33765H0.137913C0.0966927 5.33765 0.0722656 5.34727 0.0722656 5.3633Z" fill="url(#paint8_linear_586_721)"/>
<path d="M6.99609 0.0771484V7.72809L8.6495 5.33757L7.04189 0.131661C7.02815 0.0979913 7.01289 0.0771484 6.99609 0.0771484Z" fill="url(#paint9_linear_586_721)"/>
<path d="M6.99715 7.72809V0.0771484C6.98036 0.0771484 6.96357 0.0979913 6.95135 0.138074L5.34375 5.33757L6.99715 7.72809Z" fill="url(#paint10_linear_586_721)"/>
<path opacity="0.3" d="M9.67681 8.62909L7.04327 7.73125L13.9241 5.38402C13.9256 5.37825 13.9256 5.37214 13.9241 5.36638C13.922 5.36139 13.9189 5.35699 13.9149 5.35355L7.03411 7.69918L8.66156 5.34554C8.66238 5.34293 8.66238 5.34012 8.66156 5.33752H8.64629V5.32309L7.01121 7.67994V0.0835116C7.00625 0.0817986 7.0009 0.0817986 6.99594 0.0835116C6.99103 0.0815378 6.98559 0.0815378 6.98068 0.0835116V7.67994L5.35323 5.3279V5.34233H5.33796C5.33796 5.34233 5.33796 5.34233 5.33796 5.35035L6.95778 7.69918L0.0708839 5.35035C0.0668916 5.35379 0.0637495 5.35819 0.0617241 5.36317C0.0601545 5.36894 0.0601545 5.37505 0.0617241 5.38081L6.94251 7.72804L4.31508 8.62909C4.31258 8.62841 4.30995 8.62841 4.30745 8.62909L4.31966 8.63871V8.65314H4.32882L6.96236 7.75369L2.70442 13.9039C2.70672 13.9088 2.70982 13.9131 2.71358 13.9168C2.71856 13.9184 2.72388 13.9184 2.72885 13.9168L6.98068 7.77133V10.6829C6.98001 10.6861 6.98001 10.6894 6.98068 10.6925L6.99289 10.6829L7.0051 10.6925C7.00576 10.6894 7.00576 10.6861 7.0051 10.6829V7.77614L11.263 13.92C11.268 13.9216 11.2733 13.9216 11.2783 13.92C11.282 13.9166 11.2847 13.9121 11.2859 13.9072L7.03411 7.7569L9.66765 8.65635H9.67681V8.64192L9.68902 8.62909C9.6871 8.62821 9.68502 8.62775 9.68292 8.62775C9.68081 8.62775 9.67873 8.62821 9.67681 8.62909Z" fill="white"/>
<path style="mix-blend-mode:multiply" opacity="0.5" d="M11.2642 14C11.2277 13.9977 11.1929 13.9831 11.1649 13.9583L6.99708 10.779L2.82922 13.9583C2.80117 13.9829 2.76643 13.9975 2.72998 14C2.70903 13.9997 2.68873 13.9924 2.67197 13.9792C2.64754 13.9615 2.6109 13.915 2.64143 13.8188L4.23377 8.67384L0.0720174 5.4913C-0.00889712 5.42877 -0.00431743 5.36945 0.00484271 5.34059C0.0140028 5.31173 0.0445372 5.26042 0.143772 5.26042H5.29482L6.88105 0.113834C6.91158 0.0144297 6.96654 0 6.99708 0C7.02761 0 7.08104 0.0144297 7.1131 0.113834L8.70391 5.26202H13.8565C13.9557 5.26202 13.9863 5.31173 13.9954 5.34219C14.0046 5.37265 14.0076 5.43037 13.9282 5.4913L9.76038 8.67224L11.3512 13.8172C11.3833 13.9166 11.3512 13.9631 11.3222 13.9776C11.3056 13.9913 11.2853 13.9992 11.2642 14Z" fill="url(#paint11_radial_586_721)"/>
<defs>
<linearGradient id="paint0_linear_586_721" x1="6.99708" y1="14" x2="6.99708" y2="0" gradientUnits="userSpaceOnUse">
<stop stop-color="#DC910A"/>
<stop offset="1" stop-color="#FFFF8E"/>
</linearGradient>
<linearGradient id="paint1_linear_586_721" x1="4.85679" y1="10.8224" x2="6.23876" y2="11.7793" gradientUnits="userSpaceOnUse">
<stop stop-color="#E79B13"/>
<stop offset="1" stop-color="#F8BD2A"/>
</linearGradient>
<linearGradient id="paint2_linear_586_721" x1="3.51781" y1="9.80109" x2="4.90129" y2="10.758" gradientUnits="userSpaceOnUse">
<stop stop-color="#F8F281"/>
<stop offset="1" stop-color="#F8BD2A"/>
</linearGradient>
<linearGradient id="paint3_linear_586_721" x1="9.13669" y1="10.8224" x2="7.75472" y2="11.7793" gradientUnits="userSpaceOnUse">
<stop stop-color="#E79B13"/>
<stop offset="1" stop-color="#F8BD2A"/>
</linearGradient>
<linearGradient id="paint4_linear_586_721" x1="10.4754" y1="9.80109" x2="9.09194" y2="10.758" gradientUnits="userSpaceOnUse">
<stop stop-color="#F8F281"/>
<stop offset="1" stop-color="#F8BD2A"/>
</linearGradient>
<linearGradient id="paint5_linear_586_721" x1="10.4602" y1="6.54652" x2="11.0187" y2="8.18182" gradientUnits="userSpaceOnUse">
<stop stop-color="#E79B13"/>
<stop offset="1" stop-color="#F8BD2A"/>
</linearGradient>
<linearGradient id="paint6_linear_586_721" x1="9.94871" y1="4.89353" x2="10.5073" y2="6.53045" gradientUnits="userSpaceOnUse">
<stop stop-color="#F8F281"/>
<stop offset="1" stop-color="#F8BD2A"/>
</linearGradient>
<linearGradient id="paint7_linear_586_721" x1="3.02183" y1="8.19791" x2="3.58039" y2="6.56261" gradientUnits="userSpaceOnUse">
<stop stop-color="#F8BD2A"/>
<stop offset="1" stop-color="#E79B13"/>
</linearGradient>
<linearGradient id="paint8_linear_586_721" x1="3.53327" y1="6.54653" x2="4.09184" y2="4.90961" gradientUnits="userSpaceOnUse">
<stop stop-color="#F8BD2A"/>
<stop offset="1" stop-color="#F8F281"/>
</linearGradient>
<linearGradient id="paint9_linear_586_721" x1="8.6495" y1="3.90262" x2="6.99609" y2="3.90262" gradientUnits="userSpaceOnUse">
<stop stop-color="#FFCA37"/>
<stop offset="1" stop-color="#F4A820"/>
</linearGradient>
<linearGradient id="paint10_linear_586_721" x1="5.34375" y1="3.90262" x2="6.99715" y2="3.90262" gradientUnits="userSpaceOnUse">
<stop stop-color="#FFFF8E"/>
<stop offset="1" stop-color="#FFCA37"/>
</linearGradient>
<radialGradient id="paint11_radial_586_721" cx="0" cy="0" r="1" gradientUnits="userSpaceOnUse" gradientTransform="translate(6.81998 3.55915) scale(14.9417 10.5133)">
<stop offset="0.43" stop-color="white"/>
<stop offset="1" stop-color="#B46900"/>
</radialGradient>
</defs>
</svg>
