<svg width="20" height="20" viewBox="0 0 20 20" fill="none" xmlns="http://www.w3.org/2000/svg">
<mask id="mask0_852_6899" style="mask-type:luminance" maskUnits="userSpaceOnUse" x="0" y="5" width="5" height="10">
<path fill-rule="evenodd" clip-rule="evenodd" d="M0 5.40137H4.43237V14.7391H0V5.40137Z" fill="white"/>
</mask>
<g mask="url(#mask0_852_6899)">
<path fill-rule="evenodd" clip-rule="evenodd" d="M4.43238 12.0864L3.73625 14.6854L1.19172 14.7391C0.431367 13.3287 0 11.715 0 10.0002C0 8.34203 0.403281 6.77816 1.11816 5.40137H1.11863L3.38395 5.81652L4.37637 8.06828C4.16871 8.67391 4.05547 9.32379 4.05547 10.0002C4.05547 10.7343 4.18855 11.4376 4.43238 12.0864Z" fill="#FBBB00"/>
</g>
<mask id="mask1_852_6899" style="mask-type:luminance" maskUnits="userSpaceOnUse" x="10" y="8" width="10" height="10">
<path fill-rule="evenodd" clip-rule="evenodd" d="M10.2207 8.13184H20.0008V17.7983H10.2207V8.13184Z" fill="white"/>
</mask>
<g mask="url(#mask1_852_6899)">
<path fill-rule="evenodd" clip-rule="evenodd" d="M19.8261 8.13184C19.941 8.73668 20.0008 9.36152 20.0008 9.99996C20.0008 10.7159 19.9256 11.4143 19.7821 12.0878C19.2954 14.3802 18.0234 16.3818 16.2613 17.7983L16.2607 17.7978L13.4075 17.6523L13.0036 15.1313C14.1729 14.4456 15.0866 13.3725 15.568 12.0878H10.2207V8.13184H19.8261Z" fill="#518EF8"/>
</g>
<path fill-rule="evenodd" clip-rule="evenodd" d="M16.2596 17.7975L16.2601 17.7979C14.5464 19.1755 12.3694 19.9996 9.99969 19.9996C6.19141 19.9996 2.88039 17.871 1.19141 14.7387L4.43207 12.0859C5.27664 14.3396 7.4507 15.9441 9.99969 15.9441C11.0953 15.9441 12.1217 15.648 13.0025 15.131L16.2596 17.7975Z" fill="#28B446"/>
<path fill-rule="evenodd" clip-rule="evenodd" d="M16.3839 2.30227L13.1444 4.95437C12.2329 4.38461 11.1553 4.05547 10.001 4.05547C7.39434 4.05547 5.17945 5.73348 4.37734 8.06809L1.11961 5.40117H1.11914C2.7834 2.19223 6.13609 0 10.001 0C12.4273 0 14.652 0.864258 16.3839 2.30227Z" fill="#F14336"/>
</svg>
