<svg width="20" height="23" viewBox="0 0 20 23" fill="none" xmlns="http://www.w3.org/2000/svg">
<path fill-rule="evenodd" clip-rule="evenodd" d="M16.308 5.47335C17.4819 7.11574 18.1868 9.2188 18.1868 11.5113C18.1868 16.7646 14.4857 21.0232 9.92011 21.0232C5.35456 21.0232 1.65344 16.7646 1.65344 11.5113C1.65344 6.25803 5.35456 1.99942 9.92011 1.99942C11.8978 1.99942 13.7133 2.79854 15.1361 4.13147L15.5914 3.60753L15.8078 2.28122C15.8921 1.76492 16.3241 1.42494 16.7728 1.52187C17.2215 1.6188 17.517 2.11593 17.4328 2.63224L17.3856 2.92133L17.6368 2.86706C18.0856 2.77013 18.5176 3.1101 18.6018 3.6264C18.6861 4.14271 18.3906 4.63984 17.9419 4.73677L16.7185 5.00104L16.308 5.47335ZM13.9593 5.48551C12.842 4.49255 11.441 3.90179 9.92011 3.90179C6.26767 3.90179 3.30678 7.30868 3.30678 11.5113C3.30678 15.7139 6.26767 19.1208 9.92011 19.1208C13.5726 19.1208 16.5334 15.7139 16.5334 11.5113C16.5334 9.74437 16.0101 8.11811 15.132 6.82656L13.9512 8.18521C14.5358 9.12168 14.8801 10.2702 14.8801 11.5113C14.8801 14.6632 12.6594 17.2184 9.92011 17.2184C7.18078 17.2184 4.96011 14.6632 4.96011 11.5113C4.96011 8.35933 7.18078 5.80417 9.92011 5.80417C10.9839 5.80417 11.9696 6.18954 12.7773 6.84558L13.9593 5.48551ZM11.5818 8.22112C11.0935 7.89395 10.5258 7.70654 9.92011 7.70654C8.09389 7.70654 6.61344 9.40998 6.61344 11.5113C6.61344 13.6126 8.09389 15.316 9.92011 15.316C11.7463 15.316 13.2268 13.6126 13.2268 11.5113C13.2268 10.7971 13.0558 10.1288 12.7582 9.55782L11.5113 10.9926C11.5518 11.1575 11.5734 11.3315 11.5734 11.5113C11.5734 12.5619 10.8332 13.4137 9.92011 13.4137C9.007 13.4137 8.26678 12.5619 8.26678 11.5113C8.26678 10.4606 9.007 9.60891 9.92011 9.60891C10.06 9.60891 10.1958 9.62891 10.3256 9.66655L11.5818 8.22112Z" fill="#0062FF"/>
</svg>
