<svg width="22" height="26" viewBox="0 0 22 26" fill="none" xmlns="http://www.w3.org/2000/svg">
<path fill-rule="evenodd" clip-rule="evenodd" d="M10.2689 0.993607C10.7453 0.847183 11.2547 0.847183 11.7311 0.993607L15.4633 2.14069C17.4103 2.73912 19.2594 3.61895 20.952 4.75227C22.2684 5.63375 21.6444 7.68718 20.0601 7.68718H11H1.93988C0.355571 7.68718 -0.268427 5.63376 1.04801 4.75227C2.74055 3.61895 4.58967 2.73912 6.53672 2.14069L10.2689 0.993607ZM11.1802 2.78586C11.0628 2.74976 10.9372 2.74976 10.8197 2.78586L7.08757 3.93295C5.61157 4.3866 4.19739 5.0179 2.87586 5.81218H11H19.1241C17.8026 5.0179 16.3884 4.3866 14.9124 3.93295L11.1802 2.78586Z" fill="black"/>
<path d="M1.3125 24.2497C1.3125 23.7319 1.73223 23.3122 2.25 23.3122H19.75C20.2678 23.3122 20.6875 23.7319 20.6875 24.2497C20.6875 24.7675 20.2678 25.1872 19.75 25.1872H2.25C1.73223 25.1872 1.3125 24.7675 1.3125 24.2497Z" fill="black"/>
<path d="M3.8125 19.2497C3.8125 19.7675 4.23223 20.1872 4.75 20.1872C5.26777 20.1872 5.6875 19.7675 5.6875 19.2497L5.6875 11.7497C5.6875 11.2319 5.26777 10.8122 4.75 10.8122C4.23223 10.8122 3.8125 11.2319 3.8125 11.7497L3.8125 19.2497Z" fill="black"/>
<path d="M11 20.1872C10.4822 20.1872 10.0625 19.7675 10.0625 19.2497L10.0625 11.7497C10.0625 11.2319 10.4822 10.8122 11 10.8122C11.5178 10.8122 11.9375 11.2319 11.9375 11.7497V19.2497C11.9375 19.7675 11.5178 20.1872 11 20.1872Z" fill="black"/>
<path d="M16.3125 19.2497C16.3125 19.7675 16.7322 20.1872 17.25 20.1872C17.7678 20.1872 18.1875 19.7675 18.1875 19.2497V11.7497C18.1875 11.2319 17.7678 10.8122 17.25 10.8122C16.7322 10.8122 16.3125 11.2319 16.3125 11.7497V19.2497Z" fill="black"/>
</svg>
