<svg width="28" height="28" viewBox="0 0 28 28" fill="none" xmlns="http://www.w3.org/2000/svg">
<path fill-rule="evenodd" clip-rule="evenodd" d="M8.94329 25.6668H19.0544C23.0097 25.6668 25.6661 22.8924 25.6661 18.764V9.23634C25.6661 5.10796 23.0097 2.3335 19.0555 2.3335H8.94329C4.98912 2.3335 2.33274 5.10796 2.33274 9.23634V18.764C2.33274 22.8924 4.98912 25.6668 8.94329 25.6668ZM9.91409 12.8336C8.30567 12.8336 6.99876 11.5249 6.99876 9.91689C6.99876 8.30891 8.30567 7.00022 9.91409 7.00022C11.5213 7.00022 12.8294 8.30891 12.8294 9.91689C12.8294 11.5249 11.5213 12.8336 9.91409 12.8336ZM23.1232 17.4232C23.5138 18.4249 23.3109 19.6289 22.8932 20.621C22.3981 21.8009 21.4502 22.6942 20.2559 23.0843C19.7257 23.2577 19.1696 23.3336 18.6147 23.3336H8.78229C7.80387 23.3336 6.93807 23.0988 6.2283 22.6617C5.78366 22.3872 5.70506 21.7539 6.03472 21.3434C6.58611 20.6571 7.13047 19.9684 7.67951 19.2737C8.72598 17.9445 9.43106 17.5592 10.2147 17.8975C10.5327 18.0372 10.8518 18.2467 11.1803 18.4682C12.0554 19.063 13.272 19.8805 14.8746 18.9932C15.9712 18.379 16.6073 17.3254 17.1612 16.4079L17.1705 16.3926C17.2097 16.3282 17.2486 16.2638 17.2874 16.1996L17.2874 16.1996C17.4736 15.8916 17.6572 15.5877 17.865 15.3078C18.1254 14.9574 19.091 13.8618 20.3416 14.642C21.1382 15.1332 21.808 15.7978 22.5248 16.5093C22.7982 16.7814 22.9929 17.0909 23.1232 17.4232Z" fill="#9E9E9E"/>
</svg>
