<svg width="32" height="32" viewBox="0 0 32 32" fill="none" xmlns="http://www.w3.org/2000/svg">
<rect x="1.2" y="1.2" width="29.6" height="29.6" rx="8.8" fill="white" stroke="#167F71" stroke-width="1.6"/>
<path fill-rule="evenodd" clip-rule="evenodd" d="M18.3554 14.355C17.821 14.355 17.3867 13.8577 17.3867 13.2457C17.3867 12.6336 17.821 12.1364 18.3554 12.1364C18.8898 12.1364 19.3241 12.6336 19.3241 13.2457C19.3241 13.8577 18.8898 14.355 18.3554 14.355ZM18.3552 11.1804C17.3531 11.1804 16.5181 12.1367 16.5181 13.2842C16.5181 14.4318 17.3197 15.3881 18.3552 15.3881C19.3573 15.3881 20.1924 14.4318 20.1924 13.2842C20.1924 12.1367 19.3573 11.1804 18.3552 11.1804ZM23.0318 18.5703L20.6936 16.3823L18.2685 18.6468L13.1445 13.131L8.90234 17.6332V10.5681C8.90234 10.2621 9.10276 10.0326 9.36998 10.0326H22.5641C22.8314 10.0326 23.0318 10.2621 23.0318 10.5681V18.5703ZM23.0311 21.3553C23.0311 21.6614 22.8307 21.8909 22.5634 21.8909H21.2841L18.9292 19.3548L20.6929 17.6832L23.0311 19.8406V21.3553ZM9.36998 21.8906C9.10276 21.8906 8.90234 21.6611 8.90234 21.3551V18.9988L13.1445 14.5081L20.0088 21.8906H9.36998ZM22.5971 9H9.40292C8.63466 9 8 9.72678 8 10.6066V21.3934C8 22.2732 8.63466 23 9.40292 23H22.5971C23.3653 23 24 22.2732 24 21.3934V10.6066C24 9.72678 23.3653 9 22.5971 9Z" fill="#167F71"/>
</svg>
