<svg width="23" height="23" viewBox="0 0 23 23" fill="none" xmlns="http://www.w3.org/2000/svg">
<path d="M7.66699 11.5L7.66699 7.66667C7.66699 5.54957 9.38323 3.83333 11.5003 3.83333V3.83333C13.6174 3.83333 15.3337 5.54958 15.3337 7.66667L15.3337 11.5" stroke="#008059" stroke-width="2" stroke-linecap="round"/>
<path d="M3.52768 12.2928C3.67276 10.5519 3.74529 9.68147 4.31938 9.15324C4.89347 8.625 5.76693 8.625 7.51386 8.625H15.4861C17.2331 8.625 18.1065 8.625 18.6806 9.15324C19.2547 9.68147 19.3272 10.5519 19.4723 12.2928L19.9445 17.9589C20.029 18.9724 20.0712 19.4792 19.7741 19.8021C19.477 20.125 18.9685 20.125 17.9514 20.125H5.0486C4.03155 20.125 3.52302 20.125 3.22592 19.8021C2.92882 19.4792 2.97105 18.9724 3.05551 17.9589L3.52768 12.2928Z" stroke="#008059" stroke-width="2"/>
</svg>
