<?xml version="1.0" encoding="UTF-8"?>
<!-- Generator: visioncortex VTracer 0.6.3 -->
<svg version="1.1" xmlns="http://www.w3.org/2000/svg" width="1280" height="1280">
<path d="M0 0 C0.67 0.37 1.34 0.73 2.03 1.11 C7.35 3.77 13.62 4.65 19.41 5.86 C27.19 7.59 31.64 9.37 36.19 16.19 C38.09 17.09 39.99 17.99 41.9 18.89 C48.16 22.44 53.14 28.14 58.19 33.19 C59.64 34.44 61.1 35.69 62.56 36.94 C67.04 40.88 70.95 45.17 74.19 50.19 C74.19 50.85 74.19 51.51 74.19 52.19 C75.15 52.59 75.15 52.59 76.12 53 C78.19 54.19 78.19 54.19 79.19 57.19 C80.5 57.9 81.84 58.56 83.19 59.19 C84.53 60.25 85.85 61.36 87.12 62.5 C87.77 63.07 88.42 63.65 89.09 64.24 C90.63 65.67 92.13 67.14 93.61 68.63 C96.15 71.15 98.79 73.47 101.5 75.81 C106.2 80.04 109.71 84.47 113.29 89.65 C116.12 93.44 119.52 96.24 123.19 99.19 C124.59 100.39 125.99 101.6 127.38 102.81 C127.99 103.34 128.6 103.87 129.23 104.41 C130.73 105.77 132.18 107.18 133.6 108.62 C136.1 111.1 138.71 113.38 141.38 115.69 C146.04 119.89 149.71 124.3 153.41 129.35 C157.01 134.18 161.07 138.02 165.64 141.97 C168.19 144.19 168.19 144.19 170.59 146.62 C173 149 175.48 151.11 178.1 153.23 C184.12 158.16 189.01 163.15 193.56 169.45 C197.11 174.31 201.09 178.04 205.64 181.97 C208.19 184.19 208.19 184.19 210.59 186.62 C213 189 215.48 191.11 218.1 193.23 C224.09 198.14 228.97 203.1 233.49 209.38 C237.25 214.51 241.65 218.57 246.43 222.75 C248.23 224.34 249.99 226 251.68 227.71 C254.32 230.32 257.13 232.53 260.06 234.81 C266.41 239.94 272.36 246.12 273.72 254.45 C273.87 255.35 274.03 256.26 274.19 257.19 C276.53 258.31 276.53 258.31 279.19 259.19 C282.67 262.81 283.88 265.79 284.81 270.69 C285.05 271.91 285.29 273.14 285.54 274.4 C286.33 279.04 287 283.68 287.56 288.35 C288.03 291.25 288.03 291.25 289.73 293.62 C291.63 296.97 291.59 299.42 291.56 303.25 C291.57 304.46 291.58 305.67 291.59 306.91 C291.19 310.19 291.19 310.19 289.73 312.04 C287.83 314.68 287.56 316.62 287.12 319.84 C286.97 320.92 286.81 322.01 286.65 323.13 C286.42 324.83 286.42 324.83 286.19 326.56 C283.97 342.93 283.97 342.93 279.5 346.55 C278.93 346.86 278.35 347.18 277.75 347.5 C273.84 350.03 272.79 352.87 271.15 357.11 C269.79 360.04 267.83 361.4 265.19 363.19 C263.26 364.99 261.49 366.79 259.89 368.89 C256.56 373.16 254.08 374.86 248.93 376.45 C246.25 377.59 245.53 379.68 244.19 382.19 C240.07 385.37 236.76 386.79 231.64 387.6 C230.41 387.81 229.17 388.01 227.89 388.22 C225.96 388.51 225.96 388.51 224 388.81 C221.46 389.22 218.93 389.63 216.39 390.04 C215.18 390.23 213.96 390.42 212.7 390.62 C208.59 391.28 204.49 392.05 200.4 392.85 C194.19 393.79 187.76 391.44 181.74 390.01 C176.98 388.91 172.18 387.97 167.38 387.03 C163.06 385.89 159.4 384.48 156.31 381.19 C155.19 379.19 155.19 379.19 155.19 376.19 C154.51 376.4 153.84 376.62 153.14 376.84 C152.25 377.12 151.36 377.4 150.44 377.69 C149.11 378.11 149.11 378.11 147.77 378.53 C145.19 379.19 145.19 379.19 141.19 379.19 C141 379.85 140.82 380.51 140.62 381.19 C138.54 385.54 135.49 388.69 132.19 392.19 C131.35 393.08 130.51 393.97 129.64 394.89 C122.41 402.37 122.41 402.37 118.19 403.19 C116.9 405.17 116.9 405.17 116.19 407.19 C115.53 407.19 114.87 407.19 114.19 407.19 C113.96 407.93 113.72 408.68 113.48 409.45 C111.94 412.71 110.35 413.91 107.44 416 C103.31 419.15 100.27 422.25 97.34 426.52 C96.19 428.19 96.19 428.19 94.19 430.19 C93.94 433.54 93.94 433.54 94.06 437.31 C94.08 438.59 94.1 439.88 94.12 441.2 C94.14 442.18 94.16 443.17 94.19 444.19 C94.77 444.46 95.36 444.73 95.96 445 C103.09 448.79 108.11 455.29 113.01 461.54 C116.84 466.2 121.16 470.08 125.83 473.86 C126.28 474.3 126.73 474.73 127.19 475.19 C127.19 475.85 127.19 476.51 127.19 477.19 C127.97 477.41 128.75 477.64 129.56 477.88 C132.88 479.53 132.93 480.83 134.19 484.19 C135.51 484.88 136.84 485.54 138.19 486.19 C144.36 490.9 149.28 496.48 154.05 502.57 C157.19 506.41 160.59 509.83 164.5 512.88 C165.39 513.64 166.27 514.4 167.19 515.19 C167.19 515.85 167.19 516.51 167.19 517.19 C167.97 517.41 168.75 517.64 169.56 517.88 C172.88 519.53 172.93 520.83 174.19 524.19 C175.51 524.88 176.84 525.54 178.19 526.19 C184.36 530.9 189.28 536.48 194.05 542.57 C197.19 546.41 200.59 549.83 204.5 552.88 C205.39 553.64 206.27 554.4 207.19 555.19 C207.19 555.85 207.19 556.51 207.19 557.19 C207.97 557.41 208.75 557.64 209.56 557.88 C212.88 559.53 212.93 560.83 214.19 564.19 C215.51 564.88 216.84 565.54 218.19 566.19 C224.36 570.9 229.28 576.48 234.05 582.57 C237.19 586.41 240.59 589.83 244.5 592.88 C245.39 593.64 246.27 594.4 247.19 595.19 C247.19 595.85 247.19 596.51 247.19 597.19 C247.97 597.41 248.75 597.64 249.56 597.88 C252.88 599.53 252.93 600.83 254.19 604.19 C255.51 604.88 256.84 605.54 258.19 606.19 C264.36 610.9 269.28 616.48 274.05 622.57 C277.19 626.41 280.59 629.83 284.5 632.88 C285.39 633.64 286.27 634.4 287.19 635.19 C287.19 635.85 287.19 636.51 287.19 637.19 C287.79 637.46 288.38 637.72 289 638 C291.19 639.19 292.6 640.28 294.19 642.19 C294.19 642.85 294.19 643.51 294.19 644.19 C294.77 644.46 295.36 644.73 295.96 645 C303.09 648.79 308.11 655.29 313.01 661.54 C316.84 666.2 321.16 670.08 325.83 673.86 C326.28 674.3 326.73 674.73 327.19 675.19 C327.19 675.85 327.19 676.51 327.19 677.19 C327.97 677.41 328.75 677.64 329.56 677.88 C332.88 679.53 332.93 680.83 334.19 684.19 C335.5 684.89 336.84 685.55 338.19 686.19 C344.05 690.5 348.55 695.84 353.01 701.54 C356.84 706.2 361.16 710.08 365.83 713.86 C366.28 714.3 366.73 714.73 367.19 715.19 C367.19 715.85 367.19 716.51 367.19 717.19 C367.97 717.41 368.76 717.64 369.56 717.88 C372.88 719.53 372.93 720.83 374.19 724.19 C375.51 724.88 376.84 725.54 378.19 726.19 C384.36 730.9 389.28 736.48 394.05 742.57 C397.19 746.41 400.59 749.83 404.5 752.88 C405.39 753.64 406.27 754.4 407.19 755.19 C407.19 755.85 407.19 756.51 407.19 757.19 C407.97 757.41 408.76 757.64 409.56 757.88 C412.88 759.53 412.93 760.83 414.19 764.19 C415.51 764.88 416.84 765.54 418.19 766.19 C424.36 770.9 429.28 776.48 434.05 782.57 C437.19 786.41 440.59 789.83 444.5 792.88 C445.39 793.64 446.27 794.4 447.19 795.19 C447.19 795.85 447.19 796.51 447.19 797.19 C447.97 797.41 448.76 797.64 449.56 797.88 C452.88 799.53 452.93 800.83 454.19 804.19 C455.51 804.88 456.84 805.54 458.19 806.19 C464.36 810.9 469.28 816.48 474.05 822.57 C477.19 826.41 480.59 829.83 484.5 832.88 C485.39 833.64 486.27 834.4 487.19 835.19 C487.19 835.85 487.19 836.51 487.19 837.19 C487.97 837.41 488.76 837.64 489.56 837.88 C492.88 839.53 492.93 840.83 494.19 844.19 C495.5 844.89 496.84 845.55 498.19 846.19 C505.91 851.65 510.81 859.06 514.75 867.56 C516.09 870.44 516.09 870.44 519.19 872.44 C524.47 876.63 524.91 883.27 525.89 889.59 C526.07 890.77 526.07 890.77 526.26 891.98 C526.5 893.54 526.72 895.11 526.92 896.68 C527.48 900.54 528.18 903.49 530.25 906.83 C532.36 910.48 532.73 912.52 532.69 916.69 C532.7 917.75 532.71 918.81 532.72 919.91 C532.17 923.29 530.98 925.26 529.19 928.13 C527.13 932.36 526.78 937.13 526.12 941.75 C524.28 954.44 524.28 954.44 521.19 959.19 C519.76 960.05 519.76 960.05 518.31 960.94 C515 963.32 514.38 964.47 512.75 968.06 C510.51 972.98 507.81 976.33 503.19 979.19 C502.53 979.19 501.87 979.19 501.19 979.19 C500.98 979.91 500.78 980.63 500.56 981.38 C498.41 985.78 495.09 988.48 490.5 990.19 C487.97 990.99 487.97 990.99 486.94 993.56 C484.18 997.69 480.89 998.84 476.19 1000.19 C472.19 1000.9 468.17 1001.43 464.14 1001.97 C458.66 1002.77 454.75 1004.11 450.09 1007.17 C444.66 1010.07 437.82 1008.1 432.13 1006.82 C430.19 1006.19 430.19 1006.19 427.19 1004.19 C425.35 1003.74 423.5 1003.36 421.64 1003.04 C420.55 1002.84 419.45 1002.64 418.33 1002.43 C416.04 1002.02 413.75 1001.62 411.46 1001.22 C403.84 999.8 399.28 998.36 393.81 992.75 C391.62 990.61 389.89 989.29 387.31 987.75 C381.14 984.04 376.26 979.26 371.19 974.19 C370.52 973.63 369.85 973.06 369.16 972.48 C363.85 968.02 359.89 963.36 356.01 957.61 C354.25 955.27 352.52 953.9 350.19 952.19 C350.19 951.53 350.19 950.87 350.19 950.19 C349.61 949.93 349.03 949.66 348.43 949.39 C346.05 948.11 344.26 946.67 342.25 944.88 C341.6 944.3 340.95 943.73 340.29 943.14 C338.75 941.71 337.24 940.24 335.77 938.75 C333.23 936.23 330.58 933.9 327.88 931.56 C323.17 927.33 319.66 922.91 316.08 917.72 C313.25 913.93 309.86 911.13 306.19 908.19 C304.76 906.99 303.35 905.78 301.94 904.56 C301.31 904.03 300.69 903.51 300.05 902.96 C298.19 901.19 298.19 901.19 296.28 898.74 C294.05 896.02 291.73 894.13 288.94 892 C283.45 887.61 279.38 882.78 275.19 877.19 C271.54 872.56 268.2 869.39 263.19 866.19 C260.66 863.84 258.45 861.53 256.37 858.79 C254.09 856.08 251.75 854.14 248.94 852 C243.45 847.61 239.38 842.78 235.19 837.19 C231.56 832.62 227.69 828.71 223.21 824.96 C221.19 823.19 221.19 823.19 218.86 820.82 C216.43 818.42 213.93 816.29 211.28 814.14 C205.28 809.24 200.41 804.27 195.89 797.99 C192.13 792.86 187.72 788.81 182.95 784.62 C181.15 783.04 179.4 781.39 177.72 779.69 C175.46 777.46 173.12 775.47 170.63 773.5 C164.84 768.85 160.28 764.06 155.94 758.04 C152.16 752.9 147.74 748.82 142.95 744.62 C141.15 743.04 139.4 741.39 137.72 739.69 C135.46 737.46 133.12 735.47 130.63 733.5 C124.84 728.85 120.28 724.06 115.94 718.04 C112.16 712.9 107.74 708.82 102.95 704.62 C101.15 703.04 99.4 701.39 97.72 699.69 C95.46 697.46 93.12 695.47 90.63 693.5 C85.45 689.34 81.09 685.15 77.19 679.75 C72.44 673.2 66.91 667.99 60.85 662.66 C58.09 660.21 55.39 657.69 52.69 655.19 C50.06 652.76 47.48 650.41 44.62 648.25 C41.77 645.84 39.86 643.23 37.69 640.19 C32.76 633.54 27.09 628.15 20.9 622.7 C17.95 620.09 15.07 617.42 12.19 614.75 C11.66 614.27 11.13 613.78 10.59 613.28 C6.27 609.31 2.03 605.3 -1.75 600.81 C-2.26 600.22 -2.76 599.62 -3.29 599.01 C-4.28 597.82 -5.27 596.63 -6.25 595.43 C-9.48 591.52 -12.94 588.22 -16.81 584.94 C-18.74 583.25 -20.53 581.48 -22.31 579.62 C-29.59 572.35 -35.59 569.13 -45.81 567.19 C-46.04 567.95 -46.28 568.7 -46.52 569.48 C-48.08 572.74 -49.5 573.6 -52.56 575.44 C-57.12 578.44 -59.58 581.33 -62.37 585.96 C-64.66 589.49 -67.53 592.56 -70.81 595.19 C-71.47 595.19 -72.13 595.19 -72.81 595.19 C-73.04 595.77 -73.27 596.35 -73.51 596.95 C-75.15 599.76 -77.07 601.13 -79.69 603.06 C-83.67 606.13 -86.04 608.99 -88.81 613.19 C-91.07 614.78 -93.33 615.95 -95.81 617.19 C-95.75 619.25 -95.66 621.31 -95.56 623.38 C-95.52 624.52 -95.47 625.67 -95.42 626.86 C-94.71 630.73 -93.33 632.23 -90.81 635.19 C-89.87 637.7 -89.87 637.7 -89.25 640.44 C-89.01 641.48 -88.77 642.52 -88.52 643.59 C-88 646.24 -87.53 648.87 -87.1 651.54 C-86.98 652.29 -86.86 653.04 -86.73 653.81 C-86.5 655.28 -86.28 656.75 -86.08 658.22 C-85.51 661.86 -84.83 664.17 -82.71 667.22 C-80.26 671.06 -80.48 673.32 -80.88 677.81 C-80.97 679.1 -81.06 680.4 -81.16 681.73 C-81.81 685.19 -81.81 685.19 -83.29 687.08 C-85.09 689.57 -85.41 691.3 -85.84 694.33 C-85.99 695.32 -86.15 696.31 -86.3 697.32 C-86.6 699.38 -86.89 701.44 -87.19 703.5 C-88.27 710.52 -89.55 717.12 -94.94 722.19 C-96.81 723.19 -96.81 723.19 -98.81 723.19 C-98.96 723.78 -99.11 724.37 -99.26 724.98 C-100.65 729.89 -101.83 732.81 -106.14 735.88 C-108.16 737.46 -109.63 739.27 -111.25 741.25 C-114.81 745.42 -118.52 748.55 -124.06 749.62 C-126.81 750.51 -127.4 752.76 -128.81 755.19 C-132.93 759.28 -136.54 760.04 -142.06 760.81 C-143.58 761.06 -145.1 761.3 -146.62 761.54 C-147.71 761.71 -147.71 761.71 -148.82 761.88 C-156 762.74 -156 762.74 -162.05 766.26 C-165.69 768.8 -168.58 768.54 -172.81 768.12 C-173.51 768.08 -174.21 768.04 -174.93 768 C-178.11 767.75 -180.46 767.4 -183.19 765.72 C-186.06 764.04 -188.26 763.53 -191.52 763.01 C-192.6 762.82 -193.68 762.63 -194.8 762.44 C-197.05 762.06 -199.3 761.7 -201.55 761.35 C-208.11 760.18 -213.73 758.85 -217.81 753.19 C-217.81 752.2 -217.81 751.21 -217.81 750.19 C-218.43 750.05 -219.05 749.92 -219.68 749.78 C-230.54 747.02 -238.17 740.07 -244.81 731.19 C-244.81 730.53 -244.81 729.87 -244.81 729.19 C-245.43 728.94 -246.05 728.69 -246.69 728.44 C-249.22 726.95 -249.53 725.75 -250.81 723.19 C-251.41 722.9 -252 722.61 -252.62 722.31 C-255.25 720.96 -256.9 719.31 -258.96 717.2 C-259.74 716.41 -260.52 715.62 -261.32 714.81 C-262.12 713.98 -262.92 713.16 -263.75 712.31 C-265.34 710.69 -266.93 709.07 -268.53 707.45 C-269.23 706.72 -269.93 706 -270.66 705.26 C-272.93 703.07 -275.34 701.14 -277.81 699.19 C-279.12 697.85 -280.39 696.47 -281.62 695.06 C-282.53 694.04 -282.53 694.04 -283.46 692.99 C-284.81 691.19 -284.81 691.19 -284.81 689.19 C-285.43 688.94 -286.05 688.69 -286.69 688.44 C-289.22 686.95 -289.53 685.75 -290.81 683.19 C-291.41 682.9 -292 682.61 -292.62 682.31 C-295.25 680.96 -296.9 679.31 -298.96 677.2 C-299.74 676.41 -300.52 675.62 -301.32 674.81 C-302.12 673.98 -302.92 673.16 -303.75 672.31 C-305.34 670.69 -306.93 669.07 -308.53 667.45 C-309.23 666.72 -309.93 666 -310.66 665.26 C-312.93 663.07 -315.34 661.14 -317.81 659.19 C-319.12 657.85 -320.39 656.47 -321.62 655.06 C-322.53 654.04 -322.53 654.04 -323.46 652.99 C-324.81 651.19 -324.81 651.19 -324.81 649.19 C-325.43 648.94 -326.05 648.69 -326.69 648.44 C-329.22 646.95 -329.53 645.75 -330.81 643.19 C-331.43 642.88 -332.05 642.57 -332.69 642.25 C-335.56 640.82 -336.84 638.7 -338.81 636.19 C-340.46 634.83 -342.13 633.5 -343.81 632.19 C-345.48 630.52 -347.15 628.85 -348.81 627.19 C-350.25 625.96 -351.69 624.73 -353.12 623.5 C-357.27 619.86 -360.6 615.9 -363.89 611.48 C-365.8 609.05 -365.8 609.05 -368.55 607.02 C-369.67 606.11 -369.67 606.11 -370.81 605.19 C-370.81 604.53 -370.81 603.87 -370.81 603.19 C-371.39 602.96 -371.97 602.73 -372.56 602.5 C-375.39 600.85 -376.8 598.75 -378.81 596.19 C-380.46 594.83 -382.13 593.5 -383.81 592.19 C-385.48 590.52 -387.15 588.85 -388.81 587.19 C-390.25 585.96 -391.69 584.73 -393.12 583.5 C-397.3 579.83 -400.65 575.83 -404.04 571.44 C-407.05 567.61 -410.46 564.47 -414.19 561.38 C-416.76 559.21 -418.92 556.96 -421.06 554.38 C-423.84 551.09 -426.81 548.48 -430.19 545.81 C-435.71 541.42 -440.25 536.54 -444.81 531.19 C-446.06 529.77 -447.31 528.35 -448.56 526.94 C-449.12 526.29 -449.67 525.65 -450.25 524.98 C-451.24 523.85 -452.25 522.73 -453.29 521.64 C-456.93 517.69 -457.84 514.34 -458.81 509.19 C-459.43 509.05 -460.05 508.92 -460.68 508.78 C-463.82 507.91 -464.84 506.8 -466.81 504.19 C-468.7 499.7 -469.69 495 -470.52 490.22 C-470.71 489.18 -470.71 489.18 -470.89 488.11 C-471.12 486.74 -471.34 485.36 -471.55 483.99 C-472.13 480.44 -472.97 477.69 -474.88 474.69 C-477.14 470.6 -477.35 468.02 -477.31 463.38 C-477.32 462.07 -477.33 460.76 -477.34 459.42 C-477.04 455.16 -475.52 451.69 -473.84 447.8 C-471.81 442.65 -470.87 437.19 -469.75 431.78 C-468.52 426.22 -466.9 421.98 -463.81 417.19 C-463.15 417.19 -462.49 417.19 -461.81 417.19 C-461.48 416.2 -461.15 415.21 -460.81 414.19 C-460.15 414.19 -459.49 414.19 -458.81 414.19 C-458.61 413.34 -458.4 412.5 -458.19 411.62 C-456.46 407.31 -453.97 404.54 -450.81 401.19 C-450.21 400.51 -449.62 399.83 -449 399.12 C-444.61 395.24 -439.5 392.26 -434.56 389.12 C-431.72 387.28 -431.72 387.28 -429.56 384.62 C-423.18 378.97 -413.59 378.5 -405.43 377.13 C-402.39 376.34 -400.9 375.73 -398.38 374.12 C-394.44 371.72 -391.03 371.59 -386.5 371.69 C-385.8 371.67 -385.11 371.66 -384.39 371.64 C-379.15 371.68 -375.19 373.09 -370.41 375.16 C-365.24 377.21 -359.75 378.13 -354.32 379.25 C-348.92 380.44 -345.19 381.8 -340.81 385.19 C-339.82 385.85 -338.83 386.51 -337.81 387.19 C-335.61 386.55 -335.61 386.55 -333.38 385.31 C-330.01 383.59 -328.77 383.19 -324.81 383.19 C-324.55 382.61 -324.28 382.03 -324.01 381.43 C-320.67 375.16 -315.42 370.73 -309.71 366.68 C-307.21 364.72 -305.37 362.44 -303.38 359.97 C-301.64 357.99 -299.77 356.37 -297.75 354.69 C-295.05 352.42 -293.01 350.25 -291.06 347.31 C-288.81 344.19 -288.81 344.19 -286.8 343.74 C-284.65 343.39 -284.65 343.39 -283.76 341.37 C-283.29 340.29 -283.29 340.29 -282.81 339.19 C-279.04 334.15 -274.82 330.31 -269.71 326.68 C-267.21 324.72 -265.37 322.44 -263.38 319.97 C-261.64 317.99 -259.77 316.37 -257.75 314.69 C-255.05 312.42 -253.01 310.25 -251.06 307.31 C-248.81 304.19 -248.81 304.19 -246.8 303.74 C-244.65 303.39 -244.65 303.39 -243.76 301.37 C-243.29 300.29 -243.29 300.29 -242.81 299.19 C-239.04 294.15 -234.82 290.31 -229.71 286.68 C-227.21 284.72 -225.37 282.44 -223.38 279.97 C-221.64 277.99 -219.77 276.37 -217.75 274.69 C-215.05 272.42 -213.01 270.25 -211.06 267.31 C-208.81 264.19 -208.81 264.19 -206.8 263.74 C-204.65 263.39 -204.65 263.39 -203.76 261.37 C-203.29 260.29 -203.29 260.29 -202.81 259.19 C-199.04 254.15 -194.82 250.31 -189.71 246.68 C-187.21 244.72 -185.37 242.44 -183.38 239.98 C-181.63 237.98 -179.73 236.33 -177.69 234.62 C-175.06 232.41 -173.56 230.8 -171.62 227.88 C-169.54 224.78 -168.21 224.44 -164.81 223.19 C-164.12 221.87 -163.46 220.53 -162.81 219.19 C-159.04 214.15 -154.82 210.31 -149.71 206.68 C-147.21 204.72 -145.37 202.44 -143.38 199.98 C-141.63 197.98 -139.73 196.33 -137.69 194.62 C-135.06 192.41 -133.56 190.8 -131.62 187.88 C-129.54 184.78 -128.21 184.44 -124.81 183.19 C-124.12 181.87 -123.46 180.53 -122.81 179.19 C-119.04 174.15 -114.82 170.31 -109.71 166.68 C-107.21 164.71 -105.36 162.44 -103.38 159.96 C-101.65 158 -99.76 156.54 -97.69 154.94 C-93.55 151.46 -92.18 147.86 -90.7 142.74 C-89.78 140.09 -88.6 138.33 -86.81 136.19 C-87.58 135.98 -88.34 135.78 -89.12 135.56 C-92.78 133.69 -93.25 131.97 -94.81 128.19 C-95.56 125.15 -96.09 122.08 -96.62 119 C-97.71 113.23 -98.8 108.55 -102.06 103.56 C-106.18 96.83 -106.29 88.83 -104.81 81.19 C-103.58 78.55 -102.12 76.46 -100.4 74.12 C-97.74 69.21 -97.13 63.79 -96.28 58.32 C-95.23 51.95 -93.84 47.36 -88.38 43.44 C-85.17 40.62 -83.87 37.67 -82.12 33.82 C-79.03 27.59 -75.68 23.96 -70 20.19 C-66.14 17.55 -62.44 15 -59.06 11.75 C-55.15 8.31 -50.8 7.36 -45.81 6.19 C-43.1 5.55 -40.39 4.9 -37.69 4.25 C-36.98 4.08 -36.28 3.92 -35.55 3.75 C-31.99 2.87 -28.97 1.92 -25.88 -0.06 C-19.06 -3.9 -7.01 -3.32 0 0 Z M-29.62 72.5 C-30.35 73.39 -31.07 74.27 -31.81 75.19 C-32.96 76.58 -32.96 76.58 -34.12 78 C-36.23 81.87 -36.21 85.94 -36.25 90.25 C-36.26 90.93 -36.27 91.62 -36.28 92.33 C-36.19 97.9 -34.9 101.97 -31.05 106.06 C-30.42 106.58 -29.78 107.09 -29.12 107.62 C-28.43 108.21 -27.73 108.79 -27 109.39 C-26.28 109.98 -25.56 110.58 -24.81 111.19 C-23.39 112.41 -21.97 113.64 -20.56 114.88 C-19.63 115.69 -19.63 115.69 -18.67 116.51 C-15 119.82 -11.9 123.29 -8.88 127.19 C-3.88 133.37 1.81 138.56 7.72 143.84 C9.95 145.88 12.05 148.05 14.19 150.19 C15.7 151.55 17.22 152.91 18.75 154.25 C24.17 159 28.67 163.97 33.09 169.65 C36.97 174.35 41.32 178.19 46.06 182 C50.36 185.5 54.08 189.16 57.6 193.45 C59.23 195.24 60.86 196.48 62.88 197.81 C66.29 200.09 68.03 202.67 70.19 206.19 C74.95 212.17 80.11 217.21 86.06 222 C90.39 225.52 94.13 229.21 97.68 233.52 C99.28 235.43 99.28 235.43 102.25 237.19 C105.54 239.43 107.22 241.72 109.51 244.92 C115.22 252.64 121.97 258.8 129.39 264.8 C132.52 267.47 135.11 270.33 137.73 273.49 C139.66 275.73 141.75 277.52 144.19 279.19 C144.85 279.19 145.51 279.19 146.19 279.19 C146.49 280.21 146.49 280.21 146.8 281.26 C148.67 285.2 151.32 287.93 154.31 291.06 C155.2 292 155.2 292 156.1 292.96 C159.6 296.63 163.17 300.09 167.09 303.33 C168.86 304.9 170.51 306.5 172.16 308.2 C172.69 308.74 173.22 309.28 173.77 309.84 C174.82 310.92 175.86 312.01 176.89 313.1 C179.83 316.13 182.25 317.76 186.19 319.19 C186.5 319.99 186.81 320.8 187.12 321.62 C187.99 324.42 187.99 324.42 190.82 325.82 C194.53 327.33 197.2 327.59 201.19 327.56 C202.36 327.57 203.54 327.58 204.75 327.59 C208.53 327.15 210.95 326.17 214.19 324.19 C215.23 322.54 216.22 320.88 217.19 319.19 C218.2 318.26 219.24 317.36 220.31 316.5 C223.2 314.5 223.2 314.5 224.19 312.19 C224.37 309.42 224.47 306.7 224.5 303.94 C224.54 302.81 224.54 302.81 224.59 301.66 C224.66 295.13 222.5 291.63 218 286.88 C216.61 285.54 216.61 285.54 215.19 284.19 C213.68 282.69 212.19 281.19 210.69 279.69 C209.96 278.96 209.22 278.22 208.47 277.47 C207.72 276.72 206.96 275.96 206.19 275.19 C205.39 274.4 204.6 273.62 203.78 272.81 C200.32 269.31 197.03 265.66 193.74 262 C190.44 258.38 186.99 255.27 183.19 252.19 C181.5 250.54 179.83 248.88 178.19 247.19 C177.4 246.4 176.62 245.62 175.81 244.81 C172.6 241.6 169.4 238.4 166.19 235.19 C165.41 234.42 164.64 233.66 163.84 232.88 C160.36 229.35 157.05 225.69 153.74 222 C150.44 218.38 146.99 215.27 143.19 212.19 C141.5 210.54 139.83 208.88 138.19 207.19 C137.4 206.4 136.62 205.62 135.81 204.81 C132.6 201.6 129.4 198.4 126.19 195.19 C125.41 194.42 124.64 193.66 123.84 192.88 C120.36 189.35 117.05 185.69 113.74 182 C110.44 178.38 106.99 175.27 103.19 172.19 C101.5 170.54 99.83 168.88 98.19 167.19 C97.4 166.4 96.62 165.62 95.81 164.81 C92.6 161.6 89.4 158.4 86.19 155.19 C85.41 154.42 84.64 153.66 83.84 152.88 C80.36 149.35 77.05 145.69 73.74 142 C70.44 138.38 66.99 135.27 63.19 132.19 C61.5 130.54 59.83 128.88 58.19 127.19 C57.4 126.4 56.62 125.62 55.81 124.81 C52.6 121.6 49.4 118.4 46.19 115.19 C45.41 114.42 44.64 113.66 43.84 112.88 C40.36 109.35 37.05 105.69 33.74 102 C30.44 98.38 26.99 95.27 23.19 92.19 C20.75 89.81 18.37 87.38 16 84.94 C12.61 81.63 9.09 78.49 5.56 75.34 C3.73 73.68 1.97 72.01 0.25 70.25 C-3.47 66.53 -5.79 65.87 -10.94 65.81 C-18.57 65.94 -23.75 67.67 -29.62 72.5 Z M-53.81 202.19 C-54.72 202.85 -55.63 203.51 -56.56 204.19 C-58.97 206.16 -58.97 206.16 -60.75 209.12 C-63.05 212.55 -65.63 214.59 -68.81 217.19 C-70.05 218.62 -71.29 220.05 -72.48 221.53 C-78.61 229.15 -85.07 236.99 -93.44 242.19 C-97.46 244.72 -99.81 247.49 -102.48 251.38 C-104.25 253.79 -106.45 255.37 -108.81 257.19 C-110.04 258.61 -111.26 260.03 -112.44 261.49 C-119.2 269.85 -126.08 278.32 -135.81 283.19 C-133.73 292.83 -131.14 299.33 -123.81 306.19 C-122.93 307.12 -122.04 308.04 -121.12 309 C-118.79 311.21 -116.33 313.18 -113.81 315.19 C-113.09 315.93 -112.37 316.67 -111.62 317.44 C-109.99 319.42 -109.99 319.42 -107.81 319.19 C-107.58 319.93 -107.36 320.67 -107.12 321.44 C-105.54 324.77 -103.84 326.01 -100.88 328.19 C-95.21 332.62 -90.83 337.6 -86.32 343.17 C-83.25 346.86 -80.06 350.19 -76.31 353.19 C-72.78 356.02 -69.72 359.26 -66.56 362.5 C-64.29 364.72 -61.98 366.75 -59.56 368.81 C-55.16 372.68 -51.56 376.96 -47.95 381.57 C-44.73 385.51 -41.16 388.99 -37.25 392.25 C-35.22 393.96 -33.36 395.65 -31.5 397.56 C-29.96 399.42 -29.96 399.42 -27.81 399.19 C-27.59 399.93 -27.36 400.67 -27.13 401.43 C-25.52 404.8 -23.74 406.1 -20.75 408.31 C-16.43 411.63 -13.52 414.83 -10.44 419.31 C-7.87 422.6 -6.72 423.99 -2.61 424.87 C3.7 424.65 8.5 423.37 12.97 418.81 C14.51 416.76 15.26 414.56 16.19 412.19 C17.85 411.52 19.52 410.85 21.19 410.19 C24.56 407.29 27.5 404.06 30.25 400.56 C32.15 398.23 34.22 396.56 36.56 394.7 C38.5 392.9 39.94 390.94 41.5 388.81 C44.59 384.68 47.98 381.84 52.13 378.8 C54.93 376.61 56.95 373.94 59.19 371.19 C60.5 370 61.84 368.83 63.19 367.69 C65.64 365.6 67.61 363.69 69.69 361.19 C71.79 358.67 73.76 356.78 76.25 354.69 C78.83 352.5 80.4 350.86 82.31 348 C84.52 344.69 86.84 343.28 90.19 341.19 C93.06 338.89 94.08 337.57 95.08 333.98 C95.98 327.11 95.98 327.11 93.63 320.89 C91.62 319.1 91.62 319.1 89.46 317.71 C83.26 313.55 78.38 307.12 73.36 301.63 C70.15 298.16 66.96 295.06 63.19 292.19 C61.5 290.54 59.83 288.87 58.19 287.19 C57.4 286.4 56.62 285.62 55.81 284.81 C52.6 281.6 49.4 278.4 46.19 275.19 C45.41 274.42 44.64 273.66 43.84 272.88 C40.36 269.35 37.05 265.69 33.74 262 C30.44 258.38 26.99 255.27 23.19 252.19 C21.5 250.54 19.83 248.88 18.19 247.19 C17.4 246.4 16.62 245.62 15.81 244.81 C11 240 11 240 6.19 235.19 C5.03 234.04 5.03 234.04 3.84 232.88 C0.36 229.35 -2.95 225.69 -6.26 222 C-9.56 218.38 -13.01 215.27 -16.81 212.19 C-18.5 210.54 -20.17 208.88 -21.81 207.19 C-22.64 206.36 -23.46 205.54 -24.31 204.69 C-26.04 202.96 -27.75 201.21 -29.44 199.44 C-33.46 195.62 -37.64 195.73 -42.96 195.77 C-47.67 196.46 -50.4 199.04 -53.81 202.19 Z M-192.81 341.19 C-193.63 342.49 -193.63 342.49 -194.46 343.81 C-196.79 347.31 -199.52 350.23 -202.5 353.19 C-203.03 353.71 -203.55 354.24 -204.1 354.78 C-207.74 358.34 -211.5 361.1 -215.85 363.76 C-218.72 365.85 -220.49 368.47 -222.48 371.38 C-224.25 373.79 -226.45 375.37 -228.81 377.19 C-230.04 378.61 -231.26 380.03 -232.44 381.49 C-238.61 389.12 -245.05 396.98 -253.44 402.19 C-257.46 404.72 -259.81 407.49 -262.48 411.38 C-264.25 413.79 -266.45 415.37 -268.81 417.19 C-270.06 418.63 -271.31 420.07 -272.48 421.58 C-273.81 423.19 -273.81 423.19 -275.46 424.67 C-279.18 428.2 -280.32 431.1 -280.62 436.24 C-280.46 443.48 -277.68 446.72 -272.59 451.6 C-271.61 452.47 -270.63 453.35 -269.62 454.25 C-268.65 455.17 -267.68 456.08 -266.72 457.01 C-263.3 460.22 -259.87 463.36 -256.18 466.26 C-254.12 467.93 -252.55 469.51 -250.88 471.55 C-245.77 477.52 -240.16 482.99 -234.6 488.53 C-232.68 490.44 -230.77 492.36 -228.86 494.27 C-227.64 495.5 -226.41 496.73 -225.18 497.95 C-224.61 498.52 -224.05 499.09 -223.47 499.67 C-220.39 502.73 -217.21 505.47 -213.81 508.19 C-212.68 509.4 -211.57 510.65 -210.51 511.93 C-206.77 516.29 -202.77 520.34 -198.69 524.38 C-198 525.06 -197.31 525.75 -196.6 526.45 C-195.27 527.77 -193.93 529.1 -192.6 530.42 C-189.71 533.28 -186.82 536.16 -183.97 539.07 C-181.5 541.58 -179.1 543.96 -176.31 546.12 C-174.19 547.87 -172.64 549.49 -170.88 551.56 C-169.52 553.1 -168.17 554.65 -166.81 556.19 C-166.09 557.05 -166.09 557.05 -165.35 557.92 C-158.41 566.32 -158.41 566.32 -149.04 571.33 C-144.29 571.55 -140.6 571.31 -136.52 568.75 C-134.7 567.01 -133.25 565.25 -131.81 563.19 C-129.33 559.99 -126.9 557.35 -123.81 554.75 C-121.26 552.58 -119.67 550.97 -117.81 548.12 C-115.54 544.79 -113.14 543.12 -109.89 540.82 C-107.05 538.59 -104.9 535.96 -102.6 533.2 C-100.17 530.47 -97.44 528.2 -94.65 525.84 C-92.08 523.53 -90.02 520.84 -87.81 518.19 C-86.68 517.21 -85.54 516.25 -84.38 515.31 C-81.77 513.16 -79.87 511.02 -77.94 508.25 C-75.11 504.25 -71.79 501.68 -67.77 498.93 C-65.46 496.87 -64.87 495.04 -63.81 492.19 C-62.16 491.5 -60.49 490.83 -58.81 490.19 C-54.79 487.32 -52.57 484.46 -51.44 479.62 C-51.2 478.15 -50.99 476.67 -50.81 475.19 C-50.67 474.26 -50.52 473.33 -50.38 472.38 C-51.04 469.03 -53.09 468.12 -55.81 466.19 C-58.3 463.83 -60.56 461.52 -62.64 458.79 C-64.91 456.07 -67.25 454.14 -70.06 452 C-75.55 447.61 -79.62 442.78 -83.81 437.19 C-87.46 432.56 -90.8 429.39 -95.81 426.19 C-98.34 423.84 -100.55 421.53 -102.63 418.79 C-104.91 416.08 -107.25 414.14 -110.06 412 C-115.55 407.61 -119.62 402.78 -123.81 397.19 C-127.46 392.56 -130.8 389.39 -135.81 386.19 C-138.34 383.84 -140.55 381.53 -142.63 378.79 C-144.91 376.08 -147.25 374.14 -150.06 372 C-155.55 367.61 -159.62 362.78 -163.81 357.19 C-167.45 352.57 -170.78 349.36 -175.81 346.19 C-176.39 345.51 -176.97 344.82 -177.57 344.12 C-180.57 341.53 -182.65 341.59 -186.56 341.44 C-188.32 341.35 -188.32 341.35 -190.11 341.27 C-191 341.24 -191.89 341.21 -192.81 341.19 Z M-404.69 447.12 C-408.52 452.65 -409.18 457.06 -409.19 463.62 C-409.21 464.36 -409.24 465.1 -409.26 465.86 C-409.27 466.59 -409.27 467.31 -409.27 468.06 C-409.28 468.71 -409.29 469.36 -409.3 470.03 C-407.98 475.9 -403.06 480.23 -398.91 484.32 C-398.35 484.88 -397.79 485.44 -397.21 486.01 C-396.04 487.19 -394.86 488.36 -393.68 489.53 C-391.88 491.31 -390.09 493.1 -388.3 494.89 C-387.15 496.03 -386 497.18 -384.85 498.32 C-384.32 498.85 -383.79 499.38 -383.24 499.92 C-380.95 502.18 -378.65 504.31 -376.14 506.32 C-373.97 508.06 -372.28 509.79 -370.51 511.93 C-366.77 516.29 -362.77 520.34 -358.69 524.38 C-358 525.06 -357.31 525.75 -356.6 526.45 C-355.27 527.77 -353.93 529.1 -352.6 530.42 C-349.71 533.28 -346.82 536.16 -343.97 539.07 C-341.5 541.58 -339.1 543.96 -336.31 546.12 C-334.12 547.93 -332.49 549.66 -330.66 551.8 C-326.86 556.2 -322.82 560.29 -318.69 564.38 C-317.65 565.4 -317.65 565.4 -316.6 566.45 C-315.27 567.77 -313.93 569.1 -312.6 570.42 C-309.71 573.28 -306.82 576.16 -303.97 579.07 C-301.5 581.58 -299.1 583.96 -296.31 586.12 C-294.23 587.84 -292.75 589.38 -291.04 591.43 C-285.85 597.41 -280.2 602.95 -274.6 608.53 C-272.68 610.44 -270.77 612.36 -268.86 614.27 C-267.64 615.5 -266.41 616.73 -265.18 617.95 C-264.33 618.8 -264.33 618.8 -263.47 619.67 C-260.39 622.73 -257.21 625.48 -253.81 628.19 C-252.8 629.28 -251.82 630.4 -250.88 631.55 C-245.77 637.52 -240.16 642.99 -234.6 648.53 C-232.68 650.44 -230.77 652.36 -228.86 654.27 C-227.64 655.5 -226.41 656.73 -225.18 657.95 C-224.33 658.8 -224.33 658.8 -223.47 659.67 C-220.39 662.73 -217.24 665.52 -213.81 668.19 C-212.82 669.26 -211.86 670.37 -210.94 671.5 C-205.51 677.86 -199.45 683.63 -193.51 689.51 C-192.01 691 -190.52 692.5 -189.03 694 C-182.53 700.41 -177.38 700.65 -168.43 700.72 C-161.96 699.77 -158.61 696.21 -154.81 691.19 C-152.31 688.69 -152.31 688.69 -149.81 686.19 C-148.3 683.16 -148.6 680.31 -148.56 676.94 C-148.54 675.63 -148.51 674.33 -148.48 672.98 C-148.83 668.96 -149.71 666.6 -151.81 663.19 C-153.45 661.82 -155.12 660.49 -156.81 659.19 C-157.98 657.89 -159.12 656.58 -160.25 655.25 C-162.36 652.78 -164.3 650.78 -166.81 648.69 C-169.29 646.62 -171.18 644.69 -173.25 642.25 C-175.46 639.65 -177.67 637.35 -180.31 635.19 C-183.63 632.46 -186.29 629.39 -189.06 626.12 C-191.21 623.75 -193.58 621.79 -196.05 619.76 C-198.7 617.4 -200.9 614.69 -203.2 611.99 C-204.85 610.04 -204.85 610.04 -207.31 608.19 C-209.61 606.35 -211.29 604.55 -213.19 602.31 C-215.42 599.69 -217.65 597.37 -220.31 595.19 C-223.63 592.46 -226.29 589.39 -229.06 586.12 C-231.21 583.75 -233.58 581.79 -236.05 579.76 C-238.7 577.4 -240.9 574.69 -243.2 571.99 C-244.85 570.04 -244.85 570.04 -247.31 568.19 C-249.61 566.35 -251.29 564.55 -253.19 562.31 C-255.42 559.69 -257.65 557.37 -260.31 555.19 C-263.63 552.46 -266.29 549.39 -269.06 546.12 C-271.21 543.75 -273.58 541.79 -276.05 539.76 C-278.7 537.4 -280.9 534.69 -283.2 531.99 C-284.85 530.04 -284.85 530.04 -287.31 528.19 C-289.61 526.35 -291.29 524.55 -293.19 522.31 C-295.42 519.69 -297.65 517.37 -300.31 515.19 C-303.63 512.46 -306.29 509.39 -309.06 506.12 C-311.21 503.75 -313.58 501.79 -316.05 499.76 C-318.7 497.4 -320.9 494.69 -323.2 491.99 C-324.85 490.04 -324.85 490.04 -327.31 488.19 C-329.61 486.35 -331.29 484.55 -333.19 482.31 C-335.42 479.69 -337.65 477.37 -340.31 475.19 C-343.63 472.46 -346.29 469.39 -349.06 466.12 C-350.72 464.29 -352.41 462.75 -354.31 461.19 C-357.58 458.5 -360.24 455.49 -362.98 452.28 C-364.93 450.06 -366.93 447.92 -369 445.81 C-369.63 445.17 -370.27 444.52 -370.92 443.85 C-376.82 438.66 -384.4 439.59 -391.85 439.99 C-397.42 440.55 -401.03 443.08 -404.69 447.12 Z M34.19 488.19 C32.83 489.84 31.5 491.51 30.19 493.19 C28.94 494.13 27.66 495.05 26.38 495.94 C20.79 499.97 15.75 505.72 13.19 512.19 C12.62 516.44 12.88 520.1 14.19 524.19 C16.6 526.81 19.16 528.7 22.06 530.76 C26.14 533.92 29.17 537.59 32.39 541.58 C36.57 546.74 41 551.06 46.19 555.19 C46.91 555.93 47.63 556.67 48.38 557.44 C50.01 559.42 50.01 559.42 52.19 559.19 C52.42 559.93 52.64 560.67 52.88 561.44 C54.46 564.77 56.16 566.01 59.12 568.19 C64.79 572.62 69.17 577.6 73.68 583.17 C77.47 587.74 81.55 591.5 86.19 595.19 C86.91 595.93 87.63 596.67 88.38 597.44 C90.01 599.42 90.01 599.42 92.19 599.19 C92.42 599.93 92.64 600.67 92.88 601.44 C94.46 604.77 96.16 606.01 99.12 608.19 C104.79 612.62 109.17 617.6 113.68 623.17 C116.75 626.86 119.94 630.19 123.69 633.19 C127.22 636.02 130.28 639.26 133.44 642.5 C135.71 644.72 138.02 646.75 140.44 648.81 C144.84 652.68 148.44 656.96 152.05 661.57 C155.27 665.51 158.84 668.99 162.75 672.25 C164.78 673.96 166.64 675.65 168.5 677.56 C170.04 679.42 170.04 679.42 172.19 679.19 C172.41 679.93 172.64 680.67 172.87 681.43 C174.48 684.8 176.26 686.1 179.25 688.31 C184.31 692.28 188.21 696.52 192.12 701.61 C195.29 705.56 198.86 709.01 202.75 712.25 C204.78 713.96 206.64 715.65 208.5 717.56 C210.04 719.42 210.04 719.42 212.19 719.19 C212.42 719.93 212.64 720.67 212.88 721.44 C214.46 724.77 216.16 726.01 219.12 728.19 C224.79 732.62 229.17 737.6 233.68 743.17 C237.47 747.74 241.55 751.5 246.19 755.19 C246.91 755.93 247.63 756.67 248.38 757.44 C250.01 759.42 250.01 759.42 252.19 759.19 C252.42 759.93 252.64 760.67 252.88 761.44 C254.46 764.77 256.16 766.01 259.12 768.19 C264.79 772.62 269.17 777.6 273.68 783.17 C277.47 787.74 281.55 791.5 286.19 795.19 C286.91 795.93 287.63 796.67 288.38 797.44 C290.01 799.42 290.01 799.42 292.19 799.19 C292.42 799.93 292.64 800.67 292.88 801.44 C294.46 804.77 296.16 806.01 299.12 808.19 C304.79 812.62 309.17 817.6 313.68 823.17 C317.47 827.74 321.55 831.5 326.19 835.19 C326.91 835.93 327.63 836.67 328.38 837.44 C330.01 839.42 330.01 839.42 332.19 839.19 C332.42 839.93 332.64 840.67 332.88 841.44 C334.46 844.77 336.16 846.01 339.12 848.19 C344.79 852.62 349.17 857.6 353.68 863.17 C357.47 867.74 361.55 871.5 366.19 875.19 C366.91 875.93 367.63 876.67 368.38 877.44 C370.01 879.42 370.01 879.42 372.19 879.19 C372.42 879.93 372.64 880.67 372.88 881.44 C374.46 884.77 376.16 886.01 379.12 888.19 C384.79 892.62 389.17 897.6 393.68 903.17 C397.47 907.74 401.55 911.5 406.19 915.19 C406.91 915.93 407.63 916.67 408.38 917.44 C410.01 919.42 410.01 919.42 412.19 919.19 C412.41 919.92 412.63 920.65 412.85 921.41 C414.52 924.88 416.51 926.36 419.56 928.69 C422.51 930.95 424.98 932.93 427.29 935.84 C429.27 938.29 430.23 939.24 433.19 940.19 C436.72 940.54 436.72 940.54 440.56 940.5 C441.85 940.52 443.14 940.53 444.46 940.55 C450.01 940.01 453.12 938.38 456.81 934.25 C457.6 933.24 458.38 932.23 459.19 931.19 C460.52 929.85 461.85 928.52 463.19 927.19 C464.8 923.96 464.41 920.48 464.44 916.94 C464.46 916.19 464.48 915.43 464.5 914.66 C464.53 909.75 463.88 906.45 461.19 902.19 C458.82 900.08 458.82 900.08 456.19 898.19 C454.52 896.52 452.85 894.85 451.19 893.19 C449.94 892.17 448.69 891.15 447.44 890.12 C443.96 887.14 441.37 883.9 438.69 880.19 C434.96 875.06 431.11 871.13 426.19 867.19 C424.79 865.99 423.39 864.78 422 863.56 C421 862.69 421 862.69 419.98 861.8 C417.63 859.68 415.43 857.43 413.19 855.19 C412.09 854.25 412.09 854.25 410.98 853.3 C405.19 848.34 400.79 843.15 396.34 836.98 C393.37 833.13 389.97 830.21 386.19 827.19 C384.79 825.99 383.39 824.78 382 823.56 C381 822.69 381 822.69 379.98 821.8 C377.63 819.68 375.43 817.43 373.19 815.19 C372.09 814.25 372.09 814.25 370.98 813.3 C365.19 808.34 360.79 803.15 356.34 796.98 C353.37 793.13 349.97 790.21 346.19 787.19 C344.79 785.99 343.39 784.78 342 783.56 C341 782.69 341 782.69 339.98 781.8 C337.63 779.68 335.43 777.43 333.19 775.19 C332.09 774.25 332.09 774.25 330.98 773.3 C325.19 768.34 320.79 763.15 316.34 756.98 C313.37 753.13 309.97 750.21 306.19 747.19 C304.79 745.99 303.39 744.78 302 743.56 C301.33 742.98 300.67 742.4 299.98 741.8 C297.63 739.68 295.43 737.43 293.19 735.19 C292.09 734.25 292.09 734.25 290.98 733.3 C285.19 728.34 280.79 723.15 276.34 716.98 C273.37 713.13 269.97 710.21 266.19 707.19 C264.79 705.99 263.39 704.78 262 703.56 C261.33 702.98 260.67 702.4 259.98 701.8 C257.63 699.68 255.43 697.43 253.19 695.19 C252.09 694.25 252.09 694.25 250.98 693.3 C245.19 688.34 240.79 683.15 236.34 676.98 C233.37 673.13 229.97 670.21 226.19 667.19 C224.79 665.99 223.39 664.78 222 663.56 C221.33 662.98 220.67 662.4 219.98 661.8 C217.63 659.68 215.43 657.43 213.19 655.19 C212.09 654.25 212.09 654.25 210.98 653.3 C205.19 648.34 200.79 643.15 196.34 636.98 C193.37 633.13 189.97 630.21 186.19 627.19 C184.79 625.99 183.39 624.78 182 623.56 C181.33 622.98 180.67 622.4 179.98 621.8 C177.63 619.68 175.43 617.43 173.19 615.19 C172.09 614.25 172.09 614.25 170.98 613.3 C165.19 608.34 160.79 603.15 156.34 596.98 C153.37 593.13 149.97 590.21 146.19 587.19 C144.79 585.99 143.39 584.78 142 583.56 C141.33 582.98 140.67 582.4 139.98 581.8 C137.63 579.68 135.43 577.43 133.19 575.19 C132.46 574.56 131.73 573.94 130.98 573.3 C125.19 568.34 120.79 563.15 116.34 556.98 C113.37 553.13 109.97 550.21 106.19 547.19 C104.79 545.99 103.39 544.78 102 543.56 C101.33 542.98 100.67 542.4 99.98 541.8 C97.63 539.68 95.43 537.43 93.19 535.19 C92.46 534.56 91.73 533.94 90.98 533.3 C85.19 528.34 80.79 523.15 76.34 516.98 C73.37 513.13 69.97 510.21 66.19 507.19 C60.81 502.58 55.48 498.01 51 492.5 C46.13 488.5 40.34 488.19 34.19 488.19 Z " fill="#000000" transform="translate(678.8125,69.8125)"/>
<path d="M0 0 C1.54 -0 3.07 -0 4.61 -0.01 C8.81 -0.01 13.01 -0.01 17.21 -0.01 C21.75 -0.01 26.29 -0.02 30.82 -0.02 C39.71 -0.03 48.59 -0.03 57.47 -0.03 C64.69 -0.03 71.92 -0.04 79.14 -0.04 C99.64 -0.05 120.14 -0.05 140.64 -0.05 C141.74 -0.05 142.85 -0.05 143.99 -0.05 C145.09 -0.05 146.2 -0.05 147.34 -0.05 C165.25 -0.05 183.16 -0.06 201.07 -0.07 C219.48 -0.09 237.89 -0.1 256.3 -0.1 C266.63 -0.09 276.96 -0.1 287.29 -0.11 C296.08 -0.12 304.88 -0.12 313.67 -0.11 C318.15 -0.11 322.63 -0.11 327.12 -0.12 C331.23 -0.13 335.34 -0.12 339.45 -0.12 C340.93 -0.11 342.41 -0.12 343.89 -0.12 C375.14 -0.23 375.14 -0.23 384.38 7.64 C385.62 9.13 385.62 9.13 385.62 11.13 C386.68 11.35 387.74 11.57 388.84 11.8 C398.53 13.92 405.03 16.3 411.99 23.63 C414.47 25.99 416.59 27.31 419.56 28.95 C423.99 31.49 426.42 34.1 429.25 38.31 C431.25 40.97 433.79 42.44 436.62 44.13 C439.34 46.46 440.74 49 442.31 52.2 C442.96 53.51 442.96 53.51 443.63 54.86 C444.62 57.13 444.62 57.13 444.62 59.13 C445.51 59.51 445.51 59.51 446.43 59.9 C451.47 62.74 454.03 68.23 455.68 73.59 C455.99 74.8 456.3 76.01 456.62 77.26 C457.98 82.56 459.32 85.49 463.16 89.28 C466.36 93.34 468.62 99.93 468.62 105.13 C469.27 105.15 469.93 105.17 470.6 105.19 C508.05 106.39 508.05 106.39 516.93 115.51 C525.34 128.59 522.77 145.86 522.75 160.82 C522.75 163.12 522.75 165.43 522.75 167.73 C522.75 172.55 522.75 177.37 522.75 182.19 C522.74 188.33 522.75 194.47 522.75 200.62 C522.76 205.37 522.75 210.13 522.75 214.89 C522.75 217.15 522.75 219.42 522.75 221.68 C522.78 257.31 522.78 257.31 514.69 265.47 C513.97 266.17 513.97 266.17 513.24 266.88 C512.77 267.36 512.3 267.85 511.82 268.34 C503.23 276.86 490.46 275.29 479.15 275.26 C478.05 275.26 476.96 275.27 475.83 275.27 C472.18 275.27 468.53 275.27 464.88 275.27 C462.23 275.27 459.58 275.27 456.93 275.27 C451.18 275.28 445.43 275.28 439.67 275.28 C431.12 275.28 422.56 275.28 414.01 275.29 C397.84 275.3 381.67 275.3 365.5 275.3 C353.02 275.3 340.53 275.3 328.05 275.31 C324.45 275.31 320.85 275.31 317.26 275.31 C316.36 275.31 315.47 275.31 314.55 275.31 C289.41 275.32 264.27 275.32 239.13 275.32 C237.71 275.32 237.71 275.32 236.26 275.32 C231.46 275.32 226.66 275.32 221.86 275.32 C220.43 275.32 220.43 275.32 218.97 275.32 C217.04 275.32 215.11 275.32 213.19 275.32 C183.18 275.32 153.17 275.33 123.16 275.34 C89.43 275.35 55.7 275.36 21.98 275.36 C18.38 275.36 14.79 275.36 11.19 275.36 C10.3 275.36 9.42 275.36 8.51 275.36 C-5.74 275.36 -19.98 275.37 -34.23 275.38 C-48.55 275.39 -62.86 275.39 -77.18 275.38 C-85.68 275.38 -94.18 275.38 -102.68 275.39 C-108.37 275.39 -114.05 275.39 -119.73 275.39 C-122.97 275.38 -126.2 275.38 -129.44 275.39 C-132.93 275.4 -136.42 275.39 -139.91 275.38 C-140.91 275.39 -141.9 275.39 -142.93 275.4 C-162.43 275.3 -162.43 275.3 -169.63 268.06 C-170.21 267.43 -170.79 266.79 -171.38 266.13 C-171.96 265.54 -172.54 264.94 -173.13 264.33 C-183.78 252.81 -180.55 232.71 -180.55 218.06 C-180.55 215.92 -180.56 213.79 -180.56 211.65 C-180.57 207.19 -180.57 202.73 -180.57 198.27 C-180.57 192.6 -180.58 186.94 -180.6 181.27 C-180.61 176.86 -180.61 172.46 -180.61 168.05 C-180.61 165.96 -180.62 163.88 -180.62 161.79 C-180.66 151.9 -180.58 142.06 -179.62 132.21 C-179.56 131.51 -179.5 130.8 -179.43 130.08 C-178.48 121.75 -174.84 115.78 -168.39 110.54 C-160.46 105 -149.19 105.88 -139.94 105.57 C-138.74 105.53 -137.53 105.48 -136.28 105.44 C-133.32 105.33 -130.35 105.23 -127.38 105.13 C-126.72 103.32 -126.72 103.32 -126.03 101.46 C-124.81 98.19 -123.49 95.02 -121.94 91.88 C-121.55 91.07 -121.16 90.26 -120.76 89.43 C-119.38 87.13 -119.38 87.13 -117.38 85.36 C-114.53 82.19 -113.9 78.83 -112.88 74.76 C-111.26 68.31 -109.63 62.53 -104.01 58.38 C-101.31 56.07 -100.12 54.19 -98.38 51.13 C-96.13 47.21 -94.18 44.7 -90.38 42.13 C-86.39 39.02 -83.93 36.45 -81.38 32.13 C-78.65 29.63 -75.73 27.72 -72.57 25.82 C-69.52 23.97 -66.99 21.94 -64.38 19.51 C-58.71 14.41 -52.68 12.98 -45.27 11.86 C-43.2 11.29 -43.2 11.29 -42.28 9.2 C-41.99 8.52 -41.69 7.84 -41.38 7.13 C-30.55 -1.85 -13.19 -0.02 0 0 Z M-10.48 64.59 C-10.99 65.18 -11.49 65.77 -12.01 66.38 C-17.39 71.68 -24.34 73.03 -31.38 75.13 C-35.06 76.17 -35.06 76.17 -37.43 78.9 C-37.78 79.91 -37.78 79.91 -38.13 80.95 C-39.77 84.74 -41.15 85.72 -44.94 87.26 C-48.52 88.94 -49.24 89.75 -50.63 93.55 C-51.37 97.08 -51.96 100.56 -52.38 104.13 C-48.8 106.52 -46.26 106.41 -42.12 106.39 C-41 106.39 -41 106.39 -39.85 106.4 C-37.32 106.41 -34.79 106.4 -32.26 106.39 C-30.44 106.4 -28.61 106.4 -26.79 106.41 C-21.76 106.42 -16.74 106.41 -11.71 106.41 C-6.29 106.41 -0.88 106.42 4.54 106.42 C15.15 106.44 25.76 106.44 36.38 106.44 C45 106.43 53.63 106.44 62.25 106.44 C63.48 106.44 64.7 106.44 65.96 106.44 C68.45 106.44 70.94 106.44 73.43 106.45 C96.79 106.46 120.16 106.45 143.52 106.45 C164.92 106.44 186.31 106.45 207.71 106.47 C229.65 106.49 251.6 106.5 273.54 106.5 C285.88 106.5 298.21 106.5 310.54 106.51 C321.03 106.52 331.53 106.53 342.02 106.51 C347.38 106.51 352.74 106.51 358.1 106.52 C363 106.53 367.9 106.53 372.8 106.51 C374.58 106.51 376.36 106.51 378.14 106.52 C380.54 106.53 382.95 106.52 385.35 106.51 C386.4 106.52 386.4 106.52 387.48 106.53 C390.32 106.5 392.2 106.42 394.57 104.78 C396.25 102.14 395.54 100.24 394.87 97.26 C393.68 92.8 393.68 92.8 390.58 89.59 C388.99 88.85 387.39 88.15 385.78 87.47 C382.96 85.73 382.66 84.23 381.62 81.13 C380.46 78.36 379.58 76.62 376.85 75.24 C373.21 73.93 369.51 73.03 365.75 72.17 C361.15 71.11 356.99 69.75 353.87 66.07 C347.28 60.4 335.67 61.85 327.53 61.89 C326.12 61.88 324.71 61.88 323.3 61.88 C319.46 61.87 315.61 61.88 311.76 61.89 C307.6 61.89 303.44 61.89 299.28 61.89 C291.15 61.88 283.01 61.89 274.87 61.89 C265.39 61.91 255.91 61.91 246.43 61.9 C229.51 61.9 212.59 61.91 195.67 61.93 C179.26 61.94 162.85 61.95 146.44 61.95 C145.43 61.95 144.42 61.95 143.37 61.95 C142.37 61.95 141.36 61.95 140.32 61.95 C121.62 61.95 102.93 61.95 84.23 61.96 C77.63 61.97 71.02 61.97 64.42 61.97 C56.36 61.97 48.31 61.97 40.26 61.98 C36.15 61.99 32.05 61.99 27.94 61.99 C24.18 61.99 20.42 61.99 16.65 62 C14.66 62 12.66 62 10.66 62 C-0.39 61.41 -0.39 61.41 -10.48 64.59 Z M-117.38 170.13 C-117.57 173.04 -117.64 175.85 -117.61 178.75 C-117.61 179.61 -117.61 180.47 -117.61 181.35 C-117.61 183.16 -117.6 184.97 -117.59 186.78 C-117.57 189.56 -117.57 192.33 -117.57 195.1 C-117.56 196.86 -117.56 198.62 -117.55 200.38 C-117.55 201.21 -117.55 202.04 -117.55 202.9 C-117.52 206.22 -117.44 208.96 -116.38 212.13 C-62 212.15 -7.62 212.17 46.76 212.18 C47.56 212.18 48.37 212.18 49.2 212.18 C66.68 212.18 84.16 212.18 101.64 212.18 C110.21 212.19 118.78 212.19 127.36 212.19 C128.21 212.19 129.06 212.19 129.94 212.19 C157.61 212.19 185.27 212.2 212.94 212.21 C241.36 212.22 269.79 212.23 298.21 212.23 C302.22 212.23 306.23 212.23 310.24 212.23 C311.03 212.23 311.82 212.23 312.63 212.23 C325.36 212.23 338.09 212.23 350.81 212.24 C363.6 212.25 376.38 212.25 389.17 212.25 C396.77 212.25 404.37 212.25 411.97 212.25 C417.64 212.26 423.31 212.26 428.97 212.25 C431.27 212.25 433.57 212.26 435.87 212.26 C438.98 212.26 442.1 212.26 445.21 212.26 C446.57 212.26 446.57 212.26 447.95 212.26 C448.78 212.26 449.61 212.26 450.46 212.26 C451.17 212.26 451.88 212.26 452.62 212.26 C454.72 212.13 456.59 211.71 458.62 211.13 C459.78 206.98 459.76 202.97 459.75 198.68 C459.75 197.87 459.75 197.06 459.75 196.22 C459.75 194.51 459.75 192.79 459.75 191.08 C459.74 188.45 459.75 185.81 459.75 183.18 C459.75 181.51 459.75 179.85 459.75 178.18 C459.75 177.39 459.75 176.6 459.76 175.79 C460.08 172.16 460.08 172.16 458.62 169.13 C453.03 168.09 447.58 167.99 441.91 168.01 C440.46 168 440.46 168 438.98 168 C435.74 168 432.5 168 429.26 168 C426.92 168 424.58 168 422.23 167.99 C416.46 167.99 410.7 167.99 404.93 167.99 C398.02 167.99 391.1 167.98 384.19 167.98 C369.87 167.97 355.54 167.97 341.22 167.97 C330.16 167.97 319.1 167.96 308.04 167.96 C304.86 167.96 301.68 167.96 298.5 167.96 C297.31 167.96 297.31 167.96 296.1 167.96 C273.86 167.95 251.61 167.95 229.36 167.95 C228.52 167.95 227.69 167.95 226.82 167.95 C222.57 167.95 218.32 167.95 214.07 167.95 C213.23 167.95 212.38 167.95 211.51 167.95 C209.8 167.95 208.1 167.95 206.39 167.95 C179.8 167.95 153.22 167.94 126.63 167.93 C96.78 167.91 66.92 167.9 37.06 167.9 C33.88 167.9 30.7 167.9 27.52 167.91 C26.74 167.91 25.96 167.91 25.15 167.91 C12.52 167.91 -0.1 167.9 -12.73 167.89 C-25.4 167.88 -38.08 167.88 -50.75 167.89 C-57.62 167.89 -64.49 167.89 -71.37 167.88 C-77.65 167.87 -83.93 167.88 -90.21 167.88 C-92.49 167.89 -94.77 167.88 -97.05 167.88 C-100.14 167.87 -103.22 167.88 -106.3 167.88 C-107.2 167.88 -108.11 167.87 -109.04 167.87 C-113.69 167.67 -113.69 167.67 -117.38 170.13 Z " fill="#000000" transform="translate(228.38238525390625,955.8662872314453)"/>
</svg>
