<svg width="300" height="300" viewBox="0 0 300 300" fill="none" xmlns="http://www.w3.org/2000/svg">
<circle cx="150" cy="150" r="148.5" stroke="url(#paint0_linear_968_9269)" stroke-width="3"/>
<path d="M151.614 39.2305C157.737 39.2827 163.787 40.5599 169.408 42.9868C175.029 45.4138 180.107 48.9414 184.343 53.3616C192.944 62.3829 197.69 74.4001 197.574 86.8628C197.458 99.3255 192.49 111.253 183.723 120.113L154.961 148.933C154.401 149.536 153.719 150.014 152.96 150.334C152.202 150.655 151.384 150.811 150.56 150.792C149.736 150.781 148.922 150.605 148.166 150.275C147.41 149.945 146.728 149.467 146.159 148.871L117.893 119.617C109.284 110.603 104.527 98.5908 104.631 86.1281C104.736 73.6655 109.693 61.7339 118.451 52.8658C122.764 48.4625 127.929 44.9829 133.63 42.6388C139.332 40.2947 145.45 39.1351 151.614 39.2305Z" fill="#008059"/>
<ellipse cx="151.001" cy="86.6661" rx="22.3092" ry="22.3092" fill="white"/>
<defs>
<linearGradient id="paint0_linear_968_9269" x1="150" y1="0" x2="150" y2="300" gradientUnits="userSpaceOnUse">
<stop stop-color="#008059"/>
<stop offset="0.62" stop-color="white" stop-opacity="0"/>
</linearGradient>
</defs>
</svg>
