<svg width="17" height="17" viewBox="0 0 17 17" fill="none" xmlns="http://www.w3.org/2000/svg">
<path d="M13.0029 7.2296V4.53742C13.0101 3.31927 12.5235 2.14798 11.655 1.29383C10.8152 0.457706 9.71602 0 8.55193 0C8.53391 0 8.51228 0 8.49427 0C6.01112 0.00360399 3.99289 2.03625 3.99289 4.53742V7.2296C3.05585 7.34132 2.37109 8.12699 2.37109 9.07844V15.1259C2.37109 16.1531 3.1928 17 4.21994 17H12.7794C13.8065 17 14.6282 16.1531 14.6282 15.1259V9.07844C14.6246 8.13059 13.9399 7.34132 13.0029 7.2296ZM4.71008 4.53742H4.71368C4.71368 2.43269 6.41116 0.709985 8.49787 0.709985H8.50147C9.49257 0.706381 10.444 1.09922 11.1468 1.79839C11.8784 2.52279 12.2857 3.51028 12.2785 4.53742V7.2332H11.4856V4.53742C11.4928 3.71931 11.1684 2.93364 10.5882 2.35701C10.0404 1.8092 9.29795 1.49926 8.5231 1.49926H8.50147C6.84364 1.49926 5.50296 2.86156 5.50296 4.53381V7.2332H4.71008V4.53742ZM10.7684 4.53742V7.2332H6.22736V4.53742C6.22736 3.26161 7.24368 2.22366 8.50508 2.22366H8.5267C9.11055 2.22366 9.67277 2.45792 10.0872 2.87238C10.5269 3.31206 10.7756 3.91393 10.7684 4.53742ZM13.9399 15.1367C13.9399 15.7674 13.4281 16.2792 12.7974 16.2792H4.23435C3.60366 16.2792 3.09189 15.7674 3.09189 15.1367V9.09646C3.09189 8.46576 3.60366 7.954 4.23435 7.954H12.7974C13.4281 7.954 13.9399 8.46576 13.9399 9.09646V15.1367Z" fill="#008059"/>
<path d="M9.74333 11.8928C9.58476 11.3342 9.07659 10.9521 8.49635 10.9521C7.77916 10.9521 7.19531 11.5324 7.19531 12.2532C7.19531 12.8334 7.57734 13.3416 8.13595 13.5002V14.5093C8.13595 14.7075 8.29813 14.8697 8.49635 14.8697C8.69457 14.8697 8.85675 14.7075 8.85675 14.5093V13.5002C9.54511 13.3019 9.94515 12.5811 9.74333 11.8928ZM8.49635 12.8298C8.1756 12.8298 7.91611 12.5703 7.91611 12.2496C7.91611 11.9288 8.1756 11.6693 8.49635 11.6693C8.81711 11.6693 9.07659 11.9288 9.07659 12.2496C9.07659 12.5703 8.81711 12.8298 8.49635 12.8298Z" fill="#008059"/>
</svg>
