<svg width="18" height="18" viewBox="0 0 18 18" fill="none" xmlns="http://www.w3.org/2000/svg">
<path fill-rule="evenodd" clip-rule="evenodd" d="M7.16674 8.47336C6.85879 8.47336 6.6153 8.71268 6.6153 9.01535C6.6153 9.31098 6.85879 9.55733 7.16674 9.55733H11.4637V8.47348H14.3777L13.2515 7.35431C13.0404 7.14315 13.0404 6.79825 13.2515 6.58709C13.4627 6.36889 13.8076 6.36889 14.0188 6.58005L16.0741 8.62833C16.1797 8.73392 16.236 8.86765 16.236 9.01547C16.236 9.15624 16.1797 9.29702 16.0741 9.39556L14.0188 11.4438C13.9132 11.5494 13.7724 11.6057 13.6387 11.6057C13.4979 11.6057 13.3571 11.5494 13.2515 11.4438C13.0404 11.2327 13.0404 10.8878 13.2515 10.6766L14.3777 9.55745H11.4637V12.9219C11.4637 14.6464 10.0385 16.0541 8.27678 16.0541H4.7891C3.03452 16.0541 1.60938 14.6534 1.60938 12.9289V5.10882C1.60938 3.37728 3.04169 1.97656 4.79627 1.97656H8.29111C10.0385 1.97656 11.4637 3.37728 11.4637 5.10178V8.47336H7.16674Z" fill="#8F8F8F"/>
</svg>
