<svg width="10" height="12" viewBox="0 0 10 12" fill="none" xmlns="http://www.w3.org/2000/svg">
<path d="M9.50098 5C9.50098 8.5 5.00098 11.5 5.00098 11.5C5.00098 11.5 0.500977 8.5 0.500977 5C0.500977 3.80653 0.975082 2.66193 1.819 1.81802C2.66291 0.974106 3.8075 0.5 5.00098 0.5C6.19445 0.5 7.33904 0.974106 8.18296 1.81802C9.02687 2.66193 9.50098 3.80653 9.50098 5Z" stroke="#008059" stroke-linecap="round" stroke-linejoin="round"/>
<path d="M5.00098 6.5C5.8294 6.5 6.50098 5.82843 6.50098 5C6.50098 4.17157 5.8294 3.5 5.00098 3.5C4.17255 3.5 3.50098 4.17157 3.50098 5C3.50098 5.82843 4.17255 6.5 5.00098 6.5Z" stroke="#008059" stroke-linecap="round" stroke-linejoin="round"/>
</svg>
