<svg width="17" height="17" viewBox="0 0 17 17" fill="none" xmlns="http://www.w3.org/2000/svg">
<path d="M8.57026 2.17944C9.26415 2.18535 9.94983 2.3301 10.5869 2.60516C11.2239 2.88021 11.7995 3.28001 12.2796 3.78097C13.2543 4.80338 13.7922 6.16533 13.7791 7.57777C13.7659 8.9902 13.2029 10.3419 12.2093 11.3461L8.94962 14.6123C8.8861 14.6807 8.8088 14.7349 8.72282 14.7712C8.63684 14.8075 8.54414 14.8252 8.45083 14.8231C8.35738 14.8218 8.26514 14.8018 8.17949 14.7645C8.09384 14.7271 8.01652 14.673 7.95204 14.6053L4.74854 11.2899C3.77289 10.2684 3.23375 8.90694 3.24556 7.4945C3.25736 6.08207 3.81918 4.72983 4.81177 3.72477C5.30064 3.22574 5.88596 2.83138 6.5321 2.56572C7.17825 2.30005 7.8717 2.16863 8.57026 2.17944Z" fill="#008059"/>
<circle cx="8.49908" cy="7.55572" r="2.52837" fill="white"/>
</svg>
