<svg width="76" height="33" viewBox="0 0 76 33" fill="none" xmlns="http://www.w3.org/2000/svg">
<g filter="url(#filter0_d_594_2788)">
<path d="M6.57306 25.4492H3L6.57306 28.4268V25.4492Z" fill="#008059"/>
<path d="M3 9.4726C3 5.79837 5.97855 2.81982 9.65278 2.81982H70.6071C72.7471 2.81982 74.0117 5.21749 72.8033 6.98362L70.481 10.3778C68.9314 12.6426 68.9314 15.6265 70.481 17.8912L72.8033 21.2854C74.0117 23.0515 72.7471 25.4492 70.6071 25.4492H3V9.4726Z" fill="url(#paint0_linear_594_2788)"/>
<path d="M14.4713 18.9398C14.1033 18.9398 13.7353 18.8998 13.3673 18.8198C13.0073 18.7398 12.6673 18.6278 12.3473 18.4838C12.0353 18.3398 11.7673 18.1678 11.5433 17.9678L12.0473 16.8038C12.4233 17.0838 12.8073 17.2958 13.1993 17.4398C13.5993 17.5758 14.0153 17.6438 14.4473 17.6438C14.9673 17.6438 15.3713 17.5158 15.6593 17.2598C15.9553 16.9958 16.1033 16.6438 16.1033 16.2038C16.1033 15.7558 15.9633 15.3958 15.6833 15.1238C15.4033 14.8438 15.0193 14.7038 14.5313 14.7038C14.1873 14.7038 13.8713 14.7718 13.5833 14.9078C13.3033 15.0358 13.0513 15.2358 12.8273 15.5078H11.8073V10.3598H17.0633V11.6318H13.2713V14.3198H12.8993C13.1073 14.0398 13.3833 13.8238 13.7273 13.6718C14.0793 13.5198 14.4713 13.4438 14.9033 13.4438C15.4473 13.4438 15.9193 13.5558 16.3193 13.7798C16.7193 14.0038 17.0313 14.3198 17.2553 14.7278C17.4793 15.1278 17.5913 15.5998 17.5913 16.1438C17.5913 16.6958 17.4633 17.1838 17.2073 17.6078C16.9593 18.0238 16.5993 18.3518 16.1273 18.5918C15.6633 18.8238 15.1113 18.9398 14.4713 18.9398ZM21.6066 18.9398C20.6146 18.9398 19.8506 18.5638 19.3146 17.8118C18.7786 17.0518 18.5106 15.9718 18.5106 14.5718C18.5106 13.1558 18.7786 12.0798 19.3146 11.3438C19.8506 10.6078 20.6146 10.2398 21.6066 10.2398C22.6066 10.2398 23.3706 10.6078 23.8986 11.3438C24.4346 12.0798 24.7026 13.1518 24.7026 14.5598C24.7026 15.9678 24.4346 17.0518 23.8986 17.8118C23.3706 18.5638 22.6066 18.9398 21.6066 18.9398ZM21.6066 17.6678C22.1506 17.6678 22.5546 17.4198 22.8186 16.9238C23.0826 16.4198 23.2146 15.6318 23.2146 14.5598C23.2146 13.4878 23.0826 12.7118 22.8186 12.2318C22.5546 11.7438 22.1506 11.4998 21.6066 11.4998C21.0706 11.4998 20.6666 11.7438 20.3946 12.2318C20.1306 12.7118 19.9986 13.4878 19.9986 14.5598C19.9986 15.6318 20.1306 16.4198 20.3946 16.9238C20.6666 17.4198 21.0706 17.6678 21.6066 17.6678ZM29.0539 18.8198H27.7699L32.7619 10.3598H34.0459L29.0539 18.8198ZM27.8659 15.4118C27.1859 15.4118 26.6539 15.1798 26.2699 14.7158C25.8859 14.2518 25.6939 13.6198 25.6939 12.8198C25.6939 12.0118 25.8859 11.3798 26.2699 10.9238C26.6619 10.4678 27.1939 10.2398 27.8659 10.2398C28.5459 10.2398 29.0779 10.4718 29.4619 10.9358C29.8459 11.3998 30.0379 12.0278 30.0379 12.8198C30.0379 13.6198 29.8459 14.2518 29.4619 14.7158C29.0779 15.1798 28.5459 15.4118 27.8659 15.4118ZM27.8659 14.4518C28.1619 14.4518 28.3899 14.3198 28.5499 14.0558C28.7179 13.7918 28.8019 13.3798 28.8019 12.8198C28.8019 12.2518 28.7179 11.8438 28.5499 11.5958C28.3899 11.3398 28.1619 11.2118 27.8659 11.2118C27.5699 11.2118 27.3379 11.3358 27.1699 11.5838C27.0099 11.8318 26.9299 12.2438 26.9299 12.8198C26.9299 13.3958 27.0099 13.8118 27.1699 14.0678C27.3379 14.3238 27.5699 14.4518 27.8659 14.4518ZM33.9499 18.9398C33.2699 18.9398 32.7379 18.7078 32.3539 18.2438C31.9699 17.7718 31.7779 17.1358 31.7779 16.3358C31.7779 15.5278 31.9699 14.8998 32.3539 14.4518C32.7459 13.9958 33.2779 13.7678 33.9499 13.7678C34.6299 13.7678 35.1619 13.9998 35.5459 14.4638C35.9299 14.9198 36.1219 15.5438 36.1219 16.3358C36.1219 17.1358 35.9299 17.7718 35.5459 18.2438C35.1619 18.7078 34.6299 18.9398 33.9499 18.9398ZM33.9499 17.9678C34.2459 17.9678 34.4739 17.8398 34.6339 17.5838C34.8019 17.3198 34.8859 16.9038 34.8859 16.3358C34.8859 15.7678 34.8019 15.3598 34.6339 15.1118C34.4739 14.8558 34.2459 14.7278 33.9499 14.7278C33.6539 14.7278 33.4219 14.8558 33.2539 15.1118C33.0939 15.3598 33.0139 15.7678 33.0139 16.3358C33.0139 16.9118 33.0939 17.3278 33.2539 17.5838C33.4219 17.8398 33.6539 17.9678 33.9499 17.9678ZM40.5572 14.5838C40.5572 13.6958 40.7172 12.9278 41.0372 12.2798C41.3652 11.6318 41.8332 11.1318 42.4412 10.7798C43.0492 10.4198 43.7732 10.2398 44.6132 10.2398C45.4452 10.2398 46.1652 10.4198 46.7732 10.7798C47.3812 11.1318 47.8492 11.6318 48.1772 12.2798C48.5132 12.9278 48.6812 13.6918 48.6812 14.5718C48.6812 15.4598 48.5132 16.2318 48.1772 16.8878C47.8492 17.5358 47.3812 18.0398 46.7732 18.3998C46.1652 18.7598 45.4452 18.9398 44.6132 18.9398C43.7732 18.9398 43.0492 18.7598 42.4412 18.3998C41.8412 18.0398 41.3772 17.5358 41.0492 16.8878C40.7212 16.2318 40.5572 15.4638 40.5572 14.5838ZM42.1772 14.5838C42.1772 15.5358 42.3812 16.2798 42.7892 16.8158C43.1972 17.3518 43.8052 17.6198 44.6132 17.6198C45.3972 17.6198 46.0012 17.3518 46.4252 16.8158C46.8492 16.2798 47.0612 15.5358 47.0612 14.5838C47.0612 13.6238 46.8492 12.8798 46.4252 12.3518C46.0092 11.8238 45.4052 11.5598 44.6132 11.5598C43.8052 11.5598 43.1972 11.8238 42.7892 12.3518C42.3812 12.8798 42.1772 13.6238 42.1772 14.5838ZM50.2785 18.8198V10.3598H55.8585V11.5718H51.8265V13.9718H55.5825V15.1838H51.8265V18.8198H50.2785ZM57.1457 18.8198V10.3598H62.7257V11.5718H58.6937V13.9718H62.4497V15.1838H58.6937V18.8198H57.1457Z" fill="white"/>
</g>
<defs>
<filter id="filter0_d_594_2788" x="0.338889" y="1.48927" width="75.5947" height="30.9292" filterUnits="userSpaceOnUse" color-interpolation-filters="sRGB">
<feFlood flood-opacity="0" result="BackgroundImageFix"/>
<feColorMatrix in="SourceAlpha" type="matrix" values="0 0 0 0 0 0 0 0 0 0 0 0 0 0 0 0 0 0 127 0" result="hardAlpha"/>
<feOffset dy="1.33056"/>
<feGaussianBlur stdDeviation="1.33056"/>
<feColorMatrix type="matrix" values="0 0 0 0 0 0 0 0 0 0 0 0 0 0 0 0 0 0 0.1 0"/>
<feBlend mode="normal" in2="BackgroundImageFix" result="effect1_dropShadow_594_2788"/>
<feBlend mode="normal" in="SourceGraphic" in2="effect1_dropShadow_594_2788" result="shape"/>
</filter>
<linearGradient id="paint0_linear_594_2788" x1="74.1387" y1="2.81983" x2="10.1892" y2="51.6075" gradientUnits="userSpaceOnUse">
<stop stop-color="#F4E8D2"/>
<stop offset="0.989583" stop-color="#008059"/>
</linearGradient>
</defs>
</svg>
