<svg width="16" height="17" viewBox="0 0 16 17" fill="none" xmlns="http://www.w3.org/2000/svg">
<mask id="path-1-outside-1_951_9427" maskUnits="userSpaceOnUse" x="0.332031" y="1.14941" width="16" height="16" fill="black">
<rect fill="white" x="0.332031" y="1.14941" width="16" height="16"/>
<path fill-rule="evenodd" clip-rule="evenodd" d="M9.42279 3.05704C9.42213 3.05036 9.42179 3.04701 9.42148 3.04412C9.36786 2.53765 8.94216 2.1524 8.43287 2.14943C8.42995 2.14941 8.4266 2.14941 8.41988 2.14941H7.57743C7.57079 2.14941 7.56748 2.14941 7.5646 2.14943C7.05526 2.15236 6.6295 2.53766 6.5759 3.04419C6.5756 3.04705 6.57527 3.05035 6.57461 3.05695C6.57336 3.06942 6.57274 3.07565 6.57229 3.07984C6.48703 3.86543 5.56721 4.24643 4.95143 3.75122C4.94815 3.74858 4.94326 3.74458 4.9335 3.73659C4.92825 3.7323 4.92563 3.73015 4.92336 3.72832C4.52732 3.40812 3.9539 3.43672 3.59168 3.79474C3.58961 3.79679 3.58723 3.79917 3.58247 3.80393L2.98692 4.39947C2.98209 4.4043 2.97968 4.40672 2.9776 4.40882C2.61966 4.77102 2.59106 5.34436 2.91118 5.74037C2.91305 5.74268 2.91521 5.74533 2.91955 5.75063C2.92769 5.76058 2.93177 5.76556 2.93447 5.76892C3.42945 6.38466 3.04856 7.3042 2.26316 7.3896C2.25887 7.39006 2.25249 7.3907 2.23973 7.39198C2.23298 7.39265 2.2296 7.39299 2.22667 7.3933C1.72026 7.44695 1.33505 7.87261 1.33205 8.38185C1.33203 8.38479 1.33203 8.38819 1.33203 8.39498L1.33203 9.23727C1.33203 9.24398 1.33203 9.24734 1.33205 9.25025C1.33501 9.75954 1.72027 10.1852 2.22674 10.2389C2.22963 10.2392 2.23297 10.2395 2.23965 10.2402C2.25227 10.2414 2.25857 10.2421 2.26282 10.2425C3.04831 10.3279 3.42925 11.2475 2.93416 11.8633C2.93148 11.8666 2.92747 11.8715 2.91943 11.8813C2.91517 11.8865 2.91304 11.8892 2.91121 11.8914C2.59101 12.2875 2.61961 12.8609 2.97763 13.2231C2.97968 13.2252 2.98206 13.2276 2.98681 13.2323L3.58244 13.8279C3.5872 13.8327 3.58958 13.8351 3.59165 13.8371C3.95387 14.1951 4.52729 14.2237 4.92333 13.9035C4.9256 13.9017 4.92821 13.8996 4.93342 13.8953C4.94325 13.8873 4.94816 13.8833 4.95149 13.8806C5.56725 13.3855 6.48691 13.7664 6.57224 14.5519C6.57271 14.5562 6.57334 14.5625 6.5746 14.5751C6.57527 14.5818 6.5756 14.5852 6.57591 14.5881C6.62954 15.0945 7.05524 15.4798 7.56452 15.4827C7.56744 15.4827 7.5708 15.4827 7.57753 15.4827H8.41979C8.42659 15.4827 8.42999 15.4827 8.43294 15.4827C8.94217 15.4797 9.36782 15.0945 9.42148 14.5881C9.42179 14.5852 9.42213 14.5818 9.42281 14.575C9.42408 14.5623 9.42472 14.5559 9.42518 14.5517C9.5105 13.7662 10.4302 13.3852 11.0459 13.8803C11.0493 13.883 11.0542 13.887 11.064 13.895C11.0692 13.8993 11.0718 13.9014 11.074 13.9032C11.4701 14.2234 12.0435 14.1948 12.4057 13.8368C12.4078 13.8348 12.4102 13.8324 12.4149 13.8277L13.0106 13.2319C13.0153 13.2273 13.0177 13.2249 13.0197 13.2229C13.3778 12.8606 13.4064 12.2871 13.0861 11.891C13.0843 11.8888 13.0822 11.8863 13.078 11.8811C13.0701 11.8715 13.0662 11.8666 13.0635 11.8634C12.5683 11.2476 12.9493 10.3277 13.7349 10.2425C13.7391 10.242 13.7453 10.2414 13.7578 10.2402C13.7644 10.2395 13.7677 10.2392 13.7706 10.2389C14.2771 10.1853 14.6624 9.75953 14.6653 9.25019C14.6654 9.24731 14.6654 9.24398 14.6654 9.23733V8.39491C14.6654 8.38818 14.6654 8.38482 14.6653 8.3819C14.6624 7.87262 14.2771 7.44693 13.7707 7.39329C13.7678 7.39299 13.7644 7.39265 13.7577 7.39198C13.7451 7.39072 13.7388 7.39009 13.7345 7.38963C12.949 7.3043 12.5681 6.38463 13.0632 5.76887C13.0659 5.76554 13.0699 5.76063 13.0779 5.75082C13.0822 5.74562 13.0843 5.74302 13.0861 5.74075C13.4063 5.34471 13.3777 4.77127 13.0197 4.40905C13.0177 4.40698 13.0153 4.40461 13.0105 4.39986L12.4149 3.80421C12.4101 3.79947 12.4078 3.7971 12.4057 3.79505C12.0435 3.43702 11.47 3.40842 11.074 3.72863C11.0717 3.73046 11.0691 3.73259 11.0639 3.73683C11.0541 3.74486 11.0492 3.74887 11.0459 3.75154C10.4302 4.24664 9.51047 3.86569 9.42515 3.0802C9.42469 3.07596 9.42406 3.06965 9.42279 3.05704Z"/>
</mask>
<path fill-rule="evenodd" clip-rule="evenodd" d="M9.42279 3.05704C9.42213 3.05036 9.42179 3.04701 9.42148 3.04412C9.36786 2.53765 8.94216 2.1524 8.43287 2.14943C8.42995 2.14941 8.4266 2.14941 8.41988 2.14941H7.57743C7.57079 2.14941 7.56748 2.14941 7.5646 2.14943C7.05526 2.15236 6.6295 2.53766 6.5759 3.04419C6.5756 3.04705 6.57527 3.05035 6.57461 3.05695C6.57336 3.06942 6.57274 3.07565 6.57229 3.07984C6.48703 3.86543 5.56721 4.24643 4.95143 3.75122C4.94815 3.74858 4.94326 3.74458 4.9335 3.73659C4.92825 3.7323 4.92563 3.73015 4.92336 3.72832C4.52732 3.40812 3.9539 3.43672 3.59168 3.79474C3.58961 3.79679 3.58723 3.79917 3.58247 3.80393L2.98692 4.39947C2.98209 4.4043 2.97968 4.40672 2.9776 4.40882C2.61966 4.77102 2.59106 5.34436 2.91118 5.74037C2.91305 5.74268 2.91521 5.74533 2.91955 5.75063C2.92769 5.76058 2.93177 5.76556 2.93447 5.76892C3.42945 6.38466 3.04856 7.3042 2.26316 7.3896C2.25887 7.39006 2.25249 7.3907 2.23973 7.39198C2.23298 7.39265 2.2296 7.39299 2.22667 7.3933C1.72026 7.44695 1.33505 7.87261 1.33205 8.38185C1.33203 8.38479 1.33203 8.38819 1.33203 8.39498L1.33203 9.23727C1.33203 9.24398 1.33203 9.24734 1.33205 9.25025C1.33501 9.75954 1.72027 10.1852 2.22674 10.2389C2.22963 10.2392 2.23297 10.2395 2.23965 10.2402C2.25227 10.2414 2.25857 10.2421 2.26282 10.2425C3.04831 10.3279 3.42925 11.2475 2.93416 11.8633C2.93148 11.8666 2.92747 11.8715 2.91943 11.8813C2.91517 11.8865 2.91304 11.8892 2.91121 11.8914C2.59101 12.2875 2.61961 12.8609 2.97763 13.2231C2.97968 13.2252 2.98206 13.2276 2.98681 13.2323L3.58244 13.8279C3.5872 13.8327 3.58958 13.8351 3.59165 13.8371C3.95387 14.1951 4.52729 14.2237 4.92333 13.9035C4.9256 13.9017 4.92821 13.8996 4.93342 13.8953C4.94325 13.8873 4.94816 13.8833 4.95149 13.8806C5.56725 13.3855 6.48691 13.7664 6.57224 14.5519C6.57271 14.5562 6.57334 14.5625 6.5746 14.5751C6.57527 14.5818 6.5756 14.5852 6.57591 14.5881C6.62954 15.0945 7.05524 15.4798 7.56452 15.4827C7.56744 15.4827 7.5708 15.4827 7.57753 15.4827H8.41979C8.42659 15.4827 8.42999 15.4827 8.43294 15.4827C8.94217 15.4797 9.36782 15.0945 9.42148 14.5881C9.42179 14.5852 9.42213 14.5818 9.42281 14.575C9.42408 14.5623 9.42472 14.5559 9.42518 14.5517C9.5105 13.7662 10.4302 13.3852 11.0459 13.8803C11.0493 13.883 11.0542 13.887 11.064 13.895C11.0692 13.8993 11.0718 13.9014 11.074 13.9032C11.4701 14.2234 12.0435 14.1948 12.4057 13.8368C12.4078 13.8348 12.4102 13.8324 12.4149 13.8277L13.0106 13.2319C13.0153 13.2273 13.0177 13.2249 13.0197 13.2229C13.3778 12.8606 13.4064 12.2871 13.0861 11.891C13.0843 11.8888 13.0822 11.8863 13.078 11.8811C13.0701 11.8715 13.0662 11.8666 13.0635 11.8634C12.5683 11.2476 12.9493 10.3277 13.7349 10.2425C13.7391 10.242 13.7453 10.2414 13.7578 10.2402C13.7644 10.2395 13.7677 10.2392 13.7706 10.2389C14.2771 10.1853 14.6624 9.75953 14.6653 9.25019C14.6654 9.24731 14.6654 9.24398 14.6654 9.23733V8.39491C14.6654 8.38818 14.6654 8.38482 14.6653 8.3819C14.6624 7.87262 14.2771 7.44693 13.7707 7.39329C13.7678 7.39299 13.7644 7.39265 13.7577 7.39198C13.7451 7.39072 13.7388 7.39009 13.7345 7.38963C12.949 7.3043 12.5681 6.38463 13.0632 5.76887C13.0659 5.76554 13.0699 5.76063 13.0779 5.75082C13.0822 5.74562 13.0843 5.74302 13.0861 5.74075C13.4063 5.34471 13.3777 4.77127 13.0197 4.40905C13.0177 4.40698 13.0153 4.40461 13.0105 4.39986L12.4149 3.80421C12.4101 3.79947 12.4078 3.7971 12.4057 3.79505C12.0435 3.43702 11.47 3.40842 11.074 3.72863C11.0717 3.73046 11.0691 3.73259 11.0639 3.73683C11.0541 3.74486 11.0492 3.74887 11.0459 3.75154C10.4302 4.24664 9.51047 3.86569 9.42515 3.0802C9.42469 3.07596 9.42406 3.06965 9.42279 3.05704Z" fill="#8F8F8F"/>
<path d="M11.0459 3.75154L10.4193 2.97221L11.0459 3.75154ZM9.42515 3.0802L10.4193 2.97221L9.42515 3.0802ZM12.4149 3.80421L13.122 3.09711L12.4149 3.80421ZM12.4057 3.79505L13.1087 3.08384L12.4057 3.79505ZM11.074 3.72863L10.4453 2.951L11.074 3.72863ZM13.0861 5.74075L13.8638 6.36947L13.0861 5.74075ZM13.0105 4.39986L12.3034 5.10697L13.0105 4.39986ZM13.0197 4.40905L12.3085 5.11203L13.0197 4.40905ZM13.7345 7.38963L13.8425 6.39548L13.7345 7.38963ZM13.0632 5.76887L12.2839 5.14226L13.0632 5.76887ZM14.6653 8.3819L13.6654 8.38773L14.6653 8.3819ZM13.7707 7.39329L13.876 6.39885L13.7707 7.39329ZM13.7706 10.2389L13.6654 9.24443L13.7706 10.2389ZM14.6653 9.25019L15.6653 9.25596L14.6653 9.25019ZM13.0635 11.8634L12.2843 12.4901L13.0635 11.8634ZM13.7349 10.2425L13.6271 9.24833L13.7349 10.2425ZM13.0106 13.2319L12.3035 12.5248L13.0106 13.2319ZM13.0197 13.2229L12.3085 12.5198L13.0197 13.2229ZM13.0861 11.891L13.8637 11.2622L13.0861 11.891ZM11.074 13.9032L10.4453 14.6809L11.074 13.9032ZM12.4149 13.8277L13.122 14.5348L12.4149 13.8277ZM12.4057 13.8368L13.1087 14.548L12.4057 13.8368ZM9.42518 14.5517L8.43102 14.4437L9.42518 14.5517ZM11.0459 13.8803L10.4193 14.6597L11.0459 13.8803ZM8.43294 15.4827L8.42704 14.4827L8.43294 15.4827ZM9.42148 14.5881L10.4159 14.6935L9.42148 14.5881ZM6.57591 14.5881L5.58147 14.6934L6.57591 14.5881ZM7.56452 15.4827L7.57035 14.4827L7.56452 15.4827ZM4.95149 13.8806L4.3249 13.1012L4.95149 13.8806ZM6.57224 14.5519L7.56639 14.4439L6.57224 14.5519ZM3.58244 13.8279L4.28954 13.1208L3.58244 13.8279ZM3.59165 13.8371L2.88868 14.5483L3.59165 13.8371ZM4.92333 13.9035L4.29462 13.1259L4.92333 13.9035ZM2.91121 11.8914L2.13358 11.2627L2.91121 11.8914ZM2.98681 13.2323L2.2797 13.9394L2.98681 13.2323ZM2.97763 13.2231L2.26642 13.9261L2.97763 13.2231ZM2.26282 10.2425L2.37081 9.24838L2.26282 10.2425ZM2.93416 11.8633L2.15483 11.2367L2.93416 11.8633ZM1.33203 9.23727H2.33203H1.33203ZM1.33205 9.25025L2.33203 9.24443L1.33205 9.25025ZM2.22674 10.2389L2.33203 9.24443L2.22674 10.2389ZM2.22667 7.3933L2.12131 6.39887L2.22667 7.3933ZM1.33203 8.39498H0.332031H1.33203ZM1.33205 8.38185L0.332066 8.37596L1.33205 8.38185ZM2.93447 5.76892L2.15508 6.39545L2.93447 5.76892ZM2.26316 7.3896L2.37125 8.38374L2.26316 7.3896ZM2.98692 4.39947L2.27981 3.69237L2.98692 4.39947ZM2.9776 4.40882L3.68888 5.11173L2.9776 4.40882ZM2.91118 5.74037L3.68888 5.11173L2.91118 5.74037ZM4.92336 3.72832L4.29465 4.50596L4.92336 3.72832ZM3.58247 3.80393L4.28957 4.51103L3.58247 3.80393ZM3.59168 3.79474L2.88871 3.08352L3.59168 3.79474ZM6.57229 3.07984L7.56645 3.18773L6.57229 3.07984ZM4.95143 3.75122L4.32474 4.53049L4.95143 3.75122ZM8.43287 2.14943L8.42704 3.14941L8.43287 2.14943ZM9.42148 3.04412L10.4159 2.93883L9.42148 3.04412ZM7.5646 2.14943L7.57035 3.14941L7.5646 2.14943ZM6.5759 3.04419L7.57035 3.14941L6.5759 3.04419ZM7.57743 3.14941H8.41988V1.14941H7.57743V3.14941ZM3.69403 5.10658L4.28957 4.51103L2.87536 3.09682L2.27981 3.69237L3.69403 5.10658ZM2.33203 9.23727V8.39498H0.332031L0.332031 9.23727H2.33203ZM4.28954 13.1208L3.69392 12.5252L2.2797 13.9394L2.87533 14.535L4.28954 13.1208ZM8.41979 14.4827H7.57753V16.4827H8.41979V14.4827ZM12.3035 12.5248L11.7078 13.1205L13.122 14.5348L13.7178 13.939L12.3035 12.5248ZM13.6654 8.39491V9.23733H15.6654V8.39491H13.6654ZM11.7078 4.51132L12.3034 5.10697L13.7176 3.69275L13.122 3.09711L11.7078 4.51132ZM10.4307 2.96288C10.4256 2.96705 10.4225 2.9696 10.4202 2.97146C10.4178 2.97344 10.418 2.97324 10.4193 2.97221L11.6725 4.53087C11.6801 4.52478 11.6894 4.51714 11.6972 4.51079L10.4307 2.96288ZM8.42776 3.15654C8.42875 3.16652 8.42994 3.17853 8.43099 3.18818L10.4193 2.97221C10.4195 2.97384 10.4195 2.97416 10.4192 2.97103C10.4189 2.96811 10.4185 2.9641 10.4178 2.95754L8.42776 3.15654ZM10.4193 2.97221L8.43099 3.18818C8.60164 4.75917 10.441 5.52106 11.6725 4.53087L10.4193 2.97221ZM13.122 3.09711C13.1182 3.09332 13.1133 3.08844 13.1087 3.08384L11.7027 4.50626C11.7022 4.5057 11.702 4.50556 11.7029 4.50646C11.7039 4.50745 11.7053 4.5088 11.7078 4.51132L13.122 3.09711ZM11.6972 4.51079C11.6999 4.50854 11.7014 4.50733 11.7025 4.50644C11.7035 4.50563 11.7033 4.50576 11.7027 4.50626L10.4453 2.951C10.4402 2.95512 10.4348 2.95949 10.4307 2.96288L11.6972 4.51079ZM13.1087 3.08384C12.3842 2.36778 11.2374 2.31058 10.4453 2.951L11.7027 4.50626L13.1087 3.08384ZM13.8519 6.38405C13.8553 6.37991 13.8596 6.37456 13.8638 6.36947L12.3085 5.11203C12.309 5.11141 12.3091 5.11126 12.3083 5.11225C12.3074 5.11334 12.3062 5.11482 12.304 5.11758L13.8519 6.38405ZM12.3034 5.10697C12.3059 5.10948 12.3073 5.11084 12.3083 5.11183C12.3092 5.11274 12.3091 5.1126 12.3085 5.11203L13.7309 3.70608C13.7263 3.70142 13.7214 3.69654 13.7176 3.69275L12.3034 5.10697ZM13.8638 6.36947C14.5042 5.57738 14.447 4.43052 13.7309 3.70608L12.3085 5.11203L13.8638 6.36947ZM13.8572 6.39695C13.8507 6.39629 13.8466 6.39589 13.8437 6.39559C13.8406 6.39527 13.8409 6.3953 13.8425 6.39548L13.6265 8.38378C13.6362 8.38483 13.6482 8.38602 13.6582 8.38702L13.8572 6.39695ZM12.304 5.11758C12.2976 5.12534 12.2899 5.13468 12.2839 5.14226L13.8425 6.39548C13.8415 6.39676 13.8413 6.39699 13.8433 6.39456C13.8451 6.39228 13.8477 6.38916 13.8519 6.38405L12.304 5.11758ZM13.8425 6.39548L12.2839 5.14226C11.2937 6.37378 12.0556 8.21312 13.6265 8.38378L13.8425 6.39548ZM15.6654 8.39491C15.6654 8.38955 15.6654 8.38263 15.6653 8.37607L13.6654 8.38773C13.6654 8.38694 13.6654 8.38674 13.6654 8.38802C13.6654 8.38942 13.6654 8.39134 13.6654 8.39491H15.6654ZM13.6582 8.38702C13.6618 8.38738 13.6637 8.38757 13.6651 8.38771C13.6664 8.38784 13.6662 8.38782 13.6654 8.38773L13.876 6.39885C13.8695 6.39816 13.8626 6.39748 13.8572 6.39695L13.6582 8.38702ZM15.6653 8.37607C15.6594 7.35751 14.8889 6.50612 13.876 6.39885L13.6654 8.38773L15.6653 8.37607ZM13.8573 11.2352C13.8626 11.2347 13.8694 11.234 13.8758 11.2333L13.6654 9.24443C13.6662 9.24434 13.6663 9.24433 13.6651 9.24445C13.6637 9.24459 13.6618 9.24478 13.6583 9.24514L13.8573 11.2352ZM13.6654 9.23733C13.6654 9.24086 13.6654 9.24276 13.6654 9.24415C13.6654 9.24541 13.6654 9.24521 13.6654 9.24443L15.6653 9.25596C15.6654 9.24947 15.6654 9.24263 15.6654 9.23733H13.6654ZM13.8758 11.2333C14.8889 11.1261 15.6595 10.2746 15.6653 9.25596L13.6654 9.24443L13.8758 11.2333ZM13.852 11.2479C13.8479 11.2429 13.8454 11.2398 13.8435 11.2376C13.8416 11.2352 13.8418 11.2354 13.8428 11.2367L12.2843 12.4901C12.2903 12.4975 12.2978 12.5067 12.3041 12.5144L13.852 11.2479ZM13.6583 9.24514C13.6484 9.24612 13.6366 9.2473 13.6271 9.24833L13.8428 11.2367C13.8412 11.2368 13.8409 11.2369 13.8439 11.2365C13.8468 11.2363 13.8508 11.2359 13.8573 11.2352L13.6583 9.24514ZM13.8428 11.2367L13.6271 9.24833C12.0558 9.4188 11.2938 11.2585 12.2843 12.4901L13.8428 11.2367ZM13.7178 13.939C13.7215 13.9353 13.7263 13.9305 13.7308 13.9259L12.3085 12.5198C12.3091 12.5193 12.3092 12.5191 12.3083 12.52C12.3074 12.521 12.306 12.5223 12.3035 12.5248L13.7178 13.939ZM12.3041 12.5144C12.3063 12.5171 12.3075 12.5185 12.3083 12.5196C12.3091 12.5206 12.309 12.5204 12.3085 12.5198L13.8637 11.2622C13.8596 11.2572 13.8553 11.252 13.852 11.2479L12.3041 12.5144ZM13.7308 13.9259C14.447 13.2014 14.5042 12.0544 13.8637 11.2622L12.3085 12.5198L13.7308 13.9259ZM10.4307 14.669C10.4349 14.6724 10.4402 14.6768 10.4453 14.6809L11.7028 13.1256C11.7034 13.1261 11.7035 13.1262 11.7025 13.1254C11.7015 13.1245 11.7 13.1233 11.6972 13.1211L10.4307 14.669ZM11.7078 13.1205C11.7053 13.1231 11.7039 13.1244 11.703 13.1254C11.702 13.1263 11.7022 13.1262 11.7028 13.1256L13.1087 14.548C13.1134 14.5434 13.1182 14.5385 13.122 14.5348L11.7078 13.1205ZM10.4453 14.6809C11.2374 15.3213 12.3843 15.2641 13.1087 14.548L11.7028 13.1256L10.4453 14.6809ZM10.4178 14.6745C10.4185 14.6679 10.4189 14.6638 10.4192 14.6609C10.4195 14.6577 10.4195 14.658 10.4193 14.6597L8.43102 14.4437C8.42997 14.4533 8.42878 14.4654 8.42777 14.4755L10.4178 14.6745ZM11.6972 13.1211C11.6895 13.1147 11.6801 13.1071 11.6726 13.101L10.4193 14.6597C10.418 14.6586 10.4178 14.6584 10.4202 14.6604C10.4225 14.6623 10.4256 14.6648 10.4307 14.669L11.6972 13.1211ZM10.4193 14.6597L11.6726 13.101C10.441 12.1108 8.60167 12.8727 8.43102 14.4437L10.4193 14.6597ZM8.41979 16.4827C8.42521 16.4827 8.43221 16.4828 8.43884 16.4827L8.42704 14.4827C8.42785 14.4827 8.42805 14.4827 8.42676 14.4827C8.42534 14.4827 8.42339 14.4827 8.41979 14.4827V16.4827ZM8.42777 14.4755C8.42741 14.4791 8.42722 14.481 8.42707 14.4825C8.42694 14.4838 8.42696 14.4836 8.42704 14.4827L10.4159 14.6935C10.4166 14.6869 10.4173 14.6799 10.4178 14.6745L8.42777 14.4755ZM8.43884 16.4827C9.4573 16.4767 10.3086 15.7063 10.4159 14.6935L8.42704 14.4827L8.43884 16.4827ZM5.57956 14.6746C5.5801 14.68 5.58078 14.6868 5.58147 14.6934L7.57035 14.4827C7.57044 14.4835 7.57045 14.4837 7.57033 14.4825C7.57018 14.4811 7.56999 14.4792 7.56964 14.4756L5.57956 14.6746ZM7.57753 14.4827C7.57396 14.4827 7.57204 14.4827 7.57063 14.4827C7.56936 14.4827 7.56956 14.4827 7.57035 14.4827L7.55869 16.4827C7.56525 16.4828 7.57216 16.4827 7.57753 16.4827V14.4827ZM5.58147 14.6934C5.68873 15.7063 6.54012 16.4768 7.55869 16.4827L7.57035 14.4827L5.58147 14.6934ZM5.56665 14.6693C5.57177 14.6651 5.57489 14.6625 5.57718 14.6607C5.57961 14.6587 5.57938 14.6589 5.57809 14.6599L4.3249 13.1012C4.31731 13.1073 4.30796 13.115 4.30018 13.1214L5.56665 14.6693ZM7.56964 14.4756C7.56864 14.4656 7.56745 14.4536 7.56639 14.4439L5.57809 14.6599C5.57792 14.6583 5.57789 14.658 5.57821 14.6611C5.57851 14.664 5.57891 14.668 5.57956 14.6746L7.56964 14.4756ZM5.57809 14.6599L7.56639 14.4439C7.39573 12.873 5.55641 12.1111 4.3249 13.1012L5.57809 14.6599ZM2.87533 14.535C2.87912 14.5388 2.88402 14.5437 2.88868 14.5483L4.29462 13.1259C4.29519 13.1265 4.29533 13.1266 4.29442 13.1257C4.29343 13.1247 4.29207 13.1234 4.28954 13.1208L2.87533 14.535ZM4.30018 13.1214C4.29741 13.1236 4.29593 13.1248 4.29484 13.1257C4.29385 13.1265 4.294 13.1264 4.29462 13.1259L5.55204 14.6812C5.55714 14.6771 5.5625 14.6727 5.56665 14.6693L4.30018 13.1214ZM2.88868 14.5483C3.61311 15.2644 4.75996 15.3216 5.55204 14.6812L4.29462 13.1259L2.88868 14.5483ZM2.14548 11.2481C2.14208 11.2523 2.1377 11.2576 2.13358 11.2627L3.68885 12.5201C3.68835 12.5208 3.68822 12.5209 3.68903 12.5199C3.68992 12.5188 3.69113 12.5173 3.69339 12.5146L2.14548 11.2481ZM3.69392 12.5252C3.6914 12.5227 3.69004 12.5213 3.68905 12.5203C3.68815 12.5194 3.68829 12.5196 3.68885 12.5201L2.26642 13.9261C2.27102 13.9307 2.27591 13.9356 2.2797 13.9394L3.69392 12.5252ZM2.13358 11.2627C1.49317 12.0548 1.55037 13.2016 2.26642 13.9261L3.68885 12.5201L2.13358 11.2627ZM2.14015 11.2352C2.14671 11.2359 2.15072 11.2363 2.15365 11.2366C2.15677 11.2369 2.15646 11.2369 2.15483 11.2367L2.37081 9.24838C2.36114 9.24733 2.34914 9.24614 2.33916 9.24514L2.14015 11.2352ZM3.69339 12.5146C3.69975 12.5068 3.7074 12.4975 3.71349 12.4899L2.15483 11.2367C2.15585 11.2354 2.15606 11.2352 2.15407 11.2376C2.15221 11.2399 2.14966 11.243 2.14548 11.2481L3.69339 12.5146ZM2.15483 11.2367L3.71349 12.4899C4.70367 11.2584 3.94179 9.41902 2.37081 9.24838L2.15483 11.2367ZM0.332031 9.23727C0.332031 9.24262 0.332027 9.24952 0.332065 9.25607L2.33203 9.24443C2.33204 9.24522 2.33203 9.24542 2.33203 9.24415C2.33203 9.24274 2.33203 9.24083 2.33203 9.23727H0.332031ZM2.33916 9.24514C2.33561 9.24478 2.33371 9.24459 2.33231 9.24445C2.33104 9.24432 2.33124 9.24434 2.33203 9.24443L2.12145 11.2333C2.12795 11.234 2.13482 11.2347 2.14015 11.2352L2.33916 9.24514ZM0.332065 9.25607C0.337993 10.2746 1.10851 11.1261 2.12145 11.2333L2.33203 9.24443L0.332065 9.25607ZM2.14023 6.39694C2.13484 6.39748 2.12789 6.39817 2.12131 6.39887L2.33203 8.38773C2.33123 8.38782 2.33103 8.38784 2.33231 8.38771C2.33373 8.38757 2.33566 8.38737 2.33924 8.38701L2.14023 6.39694ZM2.33203 8.39498C2.33203 8.39138 2.33203 8.38944 2.33203 8.38802C2.33203 8.38673 2.33204 8.38693 2.33203 8.38773L0.332066 8.37596C0.332027 8.38258 0.332031 8.38956 0.332031 8.39498H2.33203ZM2.12131 6.39887C1.10848 6.50617 0.338061 7.35748 0.332066 8.37596L2.33203 8.38773L2.12131 6.39887ZM2.14559 6.38386C2.14983 6.38904 2.15242 6.39221 2.15431 6.39452C2.15633 6.39699 2.15612 6.39675 2.15508 6.39545L3.71386 5.14239C3.7077 5.13472 3.69995 5.12526 3.69351 5.11739L2.14559 6.38386ZM2.33924 8.38701C2.34933 8.386 2.36148 8.3848 2.37125 8.38374L2.15508 6.39545C2.15673 6.39528 2.15704 6.39525 2.15388 6.39557C2.15092 6.39587 2.14687 6.39628 2.14023 6.39694L2.33924 8.38701ZM2.15508 6.39545L2.37125 8.38374C3.94204 8.21295 4.70382 6.37386 3.71386 5.14239L2.15508 6.39545ZM2.27981 3.69237C2.27596 3.69622 2.27099 3.70118 2.26632 3.70591L3.68888 5.11173C3.68831 5.1123 3.68817 5.11245 3.68908 5.11153C3.69009 5.11052 3.69147 5.10914 3.69403 5.10658L2.27981 3.69237ZM3.69351 5.11739C3.69121 5.11458 3.68997 5.11306 3.68906 5.11195C3.68824 5.11094 3.68837 5.1111 3.68888 5.11173L2.13349 6.36902C2.13768 6.3742 2.14214 6.37964 2.14559 6.38386L3.69351 5.11739ZM2.26632 3.70591C1.55044 4.43032 1.49325 5.57698 2.13349 6.36902L3.68888 5.11173L2.26632 3.70591ZM5.56673 2.96263C5.56256 2.95921 5.55718 2.95481 5.55207 2.95068L4.29465 4.50596C4.29402 4.50545 4.29387 4.50532 4.29488 4.50614C4.29598 4.50704 4.29748 4.50827 4.30026 4.51055L5.56673 2.96263ZM4.28957 4.51103C4.2921 4.50851 4.29346 4.50715 4.29445 4.50616C4.29536 4.50526 4.29522 4.5054 4.29465 4.50596L2.88871 3.08352C2.88405 3.08813 2.87915 3.09303 2.87536 3.09682L4.28957 4.51103ZM5.55207 2.95068C4.75999 2.31029 3.61314 2.36749 2.88871 3.08352L4.29465 4.50596L5.55207 2.95068ZM5.57957 2.95745C5.57893 2.96393 5.57853 2.96789 5.57824 2.97079C5.57792 2.97387 5.57795 2.97356 5.57812 2.97195L7.56645 3.18773C7.56749 3.17818 7.56866 3.16632 7.56965 3.15645L5.57957 2.95745ZM4.30026 4.51055C4.30799 4.51687 4.31726 4.52447 4.32474 4.53049L5.57812 2.97195C5.5794 2.97298 5.57963 2.97318 5.5772 2.97119C5.57493 2.96933 5.57181 2.96679 5.56673 2.96263L4.30026 4.51055ZM5.57812 2.97195L4.32474 4.53049C5.5563 5.52091 7.39594 4.75891 7.56645 3.18773L5.57812 2.97195ZM8.41988 3.14941C8.42344 3.14941 8.42536 3.14941 8.42676 3.14942C8.42804 3.14942 8.42784 3.14942 8.42704 3.14941L8.43869 1.14945C8.43214 1.14941 8.42523 1.14941 8.41988 1.14941V3.14941ZM10.4178 2.95754C10.4173 2.95221 10.4166 2.94533 10.4159 2.93883L8.42704 3.14941C8.42696 3.14862 8.42694 3.14843 8.42707 3.14969C8.42721 3.15109 8.4274 3.153 8.42776 3.15654L10.4178 2.95754ZM8.42704 3.14941L10.4159 2.93883C10.3087 1.92589 9.45727 1.15538 8.43869 1.14945L8.42704 3.14941ZM7.57743 1.14941C7.57214 1.14941 7.56532 1.14941 7.55885 1.14945L7.57035 3.14941C7.56957 3.14942 7.56937 3.14942 7.57063 3.14942C7.57202 3.14941 7.57391 3.14941 7.57743 3.14941V1.14941ZM7.56965 3.15645C7.57 3.15295 7.57019 3.15107 7.57033 3.14969C7.57045 3.14844 7.57043 3.14863 7.57035 3.14941L5.58146 2.93897C5.58077 2.9454 5.5801 2.95219 5.57957 2.95745L7.56965 3.15645ZM7.55885 1.14945C6.54016 1.15531 5.68865 1.92591 5.58146 2.93897L7.57035 3.14941L7.55885 1.14945Z" fill="#8F8F8F" mask="url(#path-1-outside-1_951_9427)"/>
<path d="M10.3307 6.47754L5.66406 11.1442" stroke="white"/>
<circle cx="6.05556" cy="7.25575" r="1.05556" stroke="white"/>
<circle cx="9.94228" cy="10.3671" r="1.05556" stroke="white"/>
</svg>
