<svg width="24" height="24" viewBox="0 0 24 24" fill="none" xmlns="http://www.w3.org/2000/svg">
<path d="M4.59202 4.71799L4.22883 4.00518L4.22883 4.00518L4.59202 4.71799ZM3.71799 5.59202L3.00518 5.22883L3.00518 5.22883L3.71799 5.59202ZM3.71799 18.408L4.43079 18.0448L4.43079 18.0448L3.71799 18.408ZM4.59202 19.282L4.95521 18.5692H4.95521L4.59202 19.282ZM19.408 19.282L19.0448 18.5692L19.0448 18.5692L19.408 19.282ZM20.282 18.408L19.5692 18.0448L19.5692 18.0448L20.282 18.408ZM20.2692 14.4187L20.2458 13.6191H20.2458L20.2692 14.4187ZM20.0356 14.4256L20.059 15.2253L20.0356 14.4256ZM20.282 5.59202L19.5692 5.95521L19.5692 5.95521L20.282 5.59202ZM19.408 4.71799L19.0448 5.43079L19.0448 5.43079L19.408 4.71799ZM6.7 5.3H12.25V3.7H6.7V5.3ZM4.95521 5.43079C5.03755 5.38884 5.16752 5.3478 5.45155 5.32459C5.74492 5.30062 6.12675 5.3 6.7 5.3V3.7C6.15315 3.7 5.6949 3.69938 5.32126 3.72991C4.93828 3.7612 4.57431 3.82915 4.22883 4.00518L4.95521 5.43079ZM4.43079 5.95521C4.54584 5.72942 4.72942 5.54584 4.95521 5.43079L4.22883 4.00518C3.70197 4.27363 3.27363 4.70197 3.00518 5.22883L4.43079 5.95521ZM4.3 7.7C4.3 7.12675 4.30062 6.74492 4.32459 6.45155C4.3478 6.16752 4.38884 6.03755 4.43079 5.95521L3.00518 5.22883C2.82915 5.57431 2.7612 5.93828 2.72991 6.32126C2.69938 6.6949 2.7 7.15315 2.7 7.7H4.3ZM4.3 9.26923V7.7H2.7V9.26923H4.3ZM3.73077 8.7C4.04515 8.7 4.3 8.95485 4.3 9.26923H2.7C2.7 9.83851 3.16149 10.3 3.73077 10.3V8.7ZM4 8.7H3.73077V10.3H4V8.7ZM7.3 12C7.3 10.1775 5.82254 8.7 4 8.7V10.3C4.93888 10.3 5.7 11.0611 5.7 12H7.3ZM4 15.3C5.82254 15.3 7.3 13.8225 7.3 12H5.7C5.7 12.9389 4.93888 13.7 4 13.7V15.3ZM3.73077 15.3H4V13.7H3.73077V15.3ZM4.3 14.7308C4.3 15.0451 4.04515 15.3 3.73077 15.3V13.7C3.16149 13.7 2.7 14.1615 2.7 14.7308H4.3ZM4.3 16.3V14.7308H2.7V16.3H4.3ZM4.43079 18.0448C4.38884 17.9625 4.3478 17.8325 4.32459 17.5485C4.30062 17.2551 4.3 16.8733 4.3 16.3H2.7C2.7 16.8469 2.69938 17.3051 2.72991 17.6787C2.7612 18.0617 2.82915 18.4257 3.00518 18.7712L4.43079 18.0448ZM4.95521 18.5692C4.72942 18.4542 4.54584 18.2706 4.43079 18.0448L3.00518 18.7712C3.27363 19.298 3.70197 19.7264 4.22883 19.9948L4.95521 18.5692ZM6.7 18.7C6.12675 18.7 5.74492 18.6994 5.45155 18.6754C5.16752 18.6522 5.03755 18.6112 4.95521 18.5692L4.22883 19.9948C4.57431 20.1709 4.93828 20.2388 5.32126 20.2701C5.6949 20.3006 6.15315 20.3 6.7 20.3V18.7ZM12.25 18.7H6.7V20.3H12.25V18.7ZM13.3 19.25V19H11.7V19.25H13.3ZM13.3 19C13.3 18.8895 13.3895 18.8 13.5 18.8V17.2C12.5059 17.2 11.7 18.0059 11.7 19H13.3ZM13.5 18.8C13.6105 18.8 13.7 18.8895 13.7 19H15.3C15.3 18.0059 14.4941 17.2 13.5 17.2V18.8ZM13.7 19V19.25H15.3V19H13.7ZM17.3 18.7H14.75V20.3H17.3V18.7ZM19.0448 18.5692C18.9625 18.6112 18.8325 18.6522 18.5485 18.6754C18.2551 18.6994 17.8733 18.7 17.3 18.7V20.3C17.8469 20.3 18.3051 20.3006 18.6787 20.2701C19.0617 20.2388 19.4257 20.1709 19.7712 19.9948L19.0448 18.5692ZM19.5692 18.0448C19.4542 18.2706 19.2706 18.4542 19.0448 18.5692L19.7712 19.9948C20.298 19.7264 20.7264 19.298 20.9948 18.7712L19.5692 18.0448ZM19.7 16.3C19.7 16.8733 19.6994 17.2551 19.6754 17.5485C19.6522 17.8325 19.6112 17.9625 19.5692 18.0448L20.9948 18.7712C21.1709 18.4257 21.2388 18.0617 21.2701 17.6787C21.3006 17.3051 21.3 16.8469 21.3 16.3H19.7ZM19.7 14.6428V16.3H21.3V14.6428H19.7ZM20.2927 15.2184C19.9682 15.2279 19.7 14.9675 19.7 14.6428H21.3C21.3 14.0654 20.8229 13.6022 20.2458 13.6191L20.2927 15.2184ZM20.059 15.2253L20.2927 15.2184L20.2458 13.6191L20.0121 13.6259L20.059 15.2253ZM16.7 11.9633C16.7 13.8031 18.2201 15.2792 20.059 15.2253L20.0121 13.6259C19.0748 13.6534 18.3 12.9011 18.3 11.9633H16.7ZM19.9633 8.7C18.161 8.7 16.7 10.161 16.7 11.9633H18.3C18.3 11.0447 19.0447 10.3 19.9633 10.3V8.7ZM20.2692 8.7H19.9633V10.3H20.2692V8.7ZM19.7 9.26923C19.7 8.95485 19.9549 8.7 20.2692 8.7V10.3C20.8385 10.3 21.3 9.83851 21.3 9.26923H19.7ZM19.7 7.7V9.26923H21.3V7.7H19.7ZM19.5692 5.95521C19.6112 6.03755 19.6522 6.16752 19.6754 6.45155C19.6994 6.74492 19.7 7.12675 19.7 7.7H21.3C21.3 7.15315 21.3006 6.6949 21.2701 6.32126C21.2388 5.93828 21.1709 5.57431 20.9948 5.22883L19.5692 5.95521ZM19.0448 5.43079C19.2706 5.54584 19.4542 5.72942 19.5692 5.95521L20.9948 5.22883C20.7264 4.70197 20.298 4.27363 19.7712 4.00518L19.0448 5.43079ZM17.3 5.3C17.8733 5.3 18.2551 5.30062 18.5485 5.32459C18.8325 5.3478 18.9625 5.38884 19.0448 5.43079L19.7712 4.00518C19.4257 3.82915 19.0617 3.7612 18.6787 3.72991C18.3051 3.69938 17.8469 3.7 17.3 3.7V5.3ZM14.75 5.3H17.3V3.7H14.75V5.3ZM13.7 4.75V5H15.3V4.75H13.7ZM13.7 5C13.7 5.11046 13.6105 5.2 13.5 5.2V6.8C14.4941 6.8 15.3 5.99411 15.3 5H13.7ZM13.5 5.2C13.3895 5.2 13.3 5.11046 13.3 5H11.7C11.7 5.99411 12.5059 6.8 13.5 6.8V5.2ZM13.3 5V4.75H11.7V5H13.3ZM13.5 8.8C13.6105 8.8 13.7 8.88954 13.7 9H15.3C15.3 8.00589 14.4941 7.2 13.5 7.2V8.8ZM13.3 9C13.3 8.88954 13.3895 8.8 13.5 8.8V7.2C12.5059 7.2 11.7 8.00589 11.7 9H13.3ZM13.3 10V9H11.7V10H13.3ZM13.5 10.2C13.3895 10.2 13.3 10.1105 13.3 10H11.7C11.7 10.9941 12.5059 11.8 13.5 11.8V10.2ZM13.7 10C13.7 10.1105 13.6105 10.2 13.5 10.2V11.8C14.4941 11.8 15.3 10.9941 15.3 10H13.7ZM13.7 9V10H15.3V9H13.7ZM13.5 13.8C13.6105 13.8 13.7 13.8895 13.7 14H15.3C15.3 13.0059 14.4941 12.2 13.5 12.2V13.8ZM13.3 14C13.3 13.8895 13.3895 13.8 13.5 13.8V12.2C12.5059 12.2 11.7 13.0059 11.7 14H13.3ZM13.3 15V14H11.7V15H13.3ZM13.5 15.2C13.3895 15.2 13.3 15.1105 13.3 15H11.7C11.7 15.9941 12.5059 16.8 13.5 16.8V15.2ZM13.7 15C13.7 15.1105 13.6105 15.2 13.5 15.2V16.8C14.4941 16.8 15.3 15.9941 15.3 15H13.7ZM13.7 14V15H15.3V14H13.7ZM13.7 19.25C13.7 19.8299 14.1701 20.3 14.75 20.3V18.7C15.0538 18.7 15.3 18.9462 15.3 19.25H13.7ZM14.75 3.7C14.1701 3.7 13.7 4.1701 13.7 4.75H15.3C15.3 5.05376 15.0538 5.3 14.75 5.3V3.7ZM12.25 20.3C12.8299 20.3 13.3 19.8299 13.3 19.25H11.7C11.7 18.9462 11.9462 18.7 12.25 18.7V20.3ZM12.25 5.3C11.9462 5.3 11.7 5.05376 11.7 4.75H13.3C13.3 4.1701 12.8299 3.7 12.25 3.7V5.3Z" fill="#222222"/>
</svg>
