<svg width="10" height="10" viewBox="0 0 10 10" fill="none" xmlns="http://www.w3.org/2000/svg">
<path d="M8.60098 2.75H1.40098C0.90392 2.75 0.500977 3.15294 0.500977 3.65V8.15C0.500977 8.64706 0.90392 9.05 1.40098 9.05H8.60098C9.09803 9.05 9.50098 8.64706 9.50098 8.15V3.65C9.50098 3.15294 9.09803 2.75 8.60098 2.75Z" stroke="#008059" stroke-linecap="round" stroke-linejoin="round"/>
<path d="M6.80117 9.0502V1.8502C6.80117 1.6115 6.70635 1.38258 6.53757 1.2138C6.36878 1.04502 6.13987 0.950195 5.90117 0.950195H4.10117C3.86248 0.950195 3.63356 1.04502 3.46478 1.2138C3.29599 1.38258 3.20117 1.6115 3.20117 1.8502V9.0502" stroke="#008059" stroke-linecap="round" stroke-linejoin="round"/>
</svg>
