<svg width="15" height="15" viewBox="0 0 15 15" fill="none" xmlns="http://www.w3.org/2000/svg">
<path d="M7.7009 13.1462C10.864 13.1462 13.4282 10.582 13.4282 7.41892C13.4282 4.25584 10.864 1.69165 7.7009 1.69165C4.53782 1.69165 1.97363 4.25584 1.97363 7.41892C1.97363 10.582 4.53782 13.1462 7.7009 13.1462Z" fill="#008059"/>
<path fill-rule="evenodd" clip-rule="evenodd" d="M7.7002 2.14424C4.78746 2.14424 2.42622 4.50548 2.42622 7.41821C2.42622 10.3309 4.78746 12.6922 7.7002 12.6922C10.6129 12.6922 12.9742 10.3309 12.9742 7.41821C12.9742 4.50548 10.6129 2.14424 7.7002 2.14424ZM0.700195 7.41821C0.700195 3.55222 3.8342 0.418213 7.7002 0.418213C11.5662 0.418213 14.7002 3.55222 14.7002 7.41821C14.7002 11.2842 11.5662 14.4182 7.7002 14.4182C3.8342 14.4182 0.700195 11.2842 0.700195 7.41821Z" fill="#008059"/>
<path fill-rule="evenodd" clip-rule="evenodd" d="M7.8516 2.96338C8.28687 2.96338 8.63972 3.33392 8.63972 3.791V6.81067L10.4458 7.75897C10.8352 7.96339 10.993 8.46051 10.7983 8.86934C10.6036 9.27816 10.1302 9.44387 9.74092 9.23946L7.49914 8.06241C7.23214 7.92221 7.06348 7.63564 7.06348 7.32216V3.791C7.06348 3.33392 7.41633 2.96338 7.8516 2.96338Z" fill="white"/>
</svg>
