<?xml version="1.0" encoding="UTF-8"?>
<!-- Generator: visioncortex VTracer 0.6.3 -->
<svg version="1.1" xmlns="http://www.w3.org/2000/svg" width="1280" height="859">
<path d="M0 0 C11.84 6.13 20.16 17.3 24.57 29.83 C27.07 39.32 26.34 51.39 21.81 60.07 C14.88 71.82 4.09 81.24 -5.5 90.78 C-7.18 92.45 -8.85 94.13 -10.53 95.8 C-14.12 99.39 -17.71 102.97 -21.31 106.55 C-26.51 111.73 -31.7 116.92 -36.89 122.1 C-45.32 130.52 -53.75 138.93 -62.19 147.34 C-62.69 147.85 -63.19 148.35 -63.71 148.87 C-64.21 149.37 -64.72 149.87 -65.24 150.39 C-72.41 157.54 -79.57 164.68 -86.74 171.83 C-87.5 172.59 -87.5 172.59 -88.27 173.36 C-96.68 181.76 -105.09 190.16 -113.51 198.56 C-119.15 204.19 -124.8 209.83 -130.45 215.46 C-133.95 218.95 -137.45 222.44 -140.95 225.94 C-142.58 227.56 -144.21 229.19 -145.84 230.81 C-148.06 233.02 -150.27 235.23 -152.48 237.44 C-153.14 238.09 -153.79 238.74 -154.47 239.41 C-157.45 241.8 -157.45 241.8 -158.88 244.94 C-158.31 244.94 -157.75 244.94 -157.18 244.94 C-143.5 244.98 -129.81 245.04 -116.13 245.12 C-109.51 245.16 -102.9 245.19 -96.28 245.21 C-89.89 245.22 -83.49 245.26 -77.1 245.31 C-74.67 245.32 -72.24 245.33 -69.81 245.33 C-52.54 245.34 -37.51 245.47 -24.02 257.61 C-14.26 267.71 -10.56 279.97 -10.73 293.7 C-11.19 303.99 -15.03 313.21 -22.19 320.75 C-31.86 329.59 -41.69 333.42 -54.77 333.33 C-56.19 333.33 -56.19 333.33 -57.63 333.34 C-60.77 333.36 -63.91 333.35 -67.04 333.34 C-69.3 333.35 -71.56 333.35 -73.82 333.36 C-79.94 333.38 -86.05 333.38 -92.17 333.37 C-97.29 333.37 -102.4 333.38 -107.52 333.38 C-120.27 333.4 -133.03 333.39 -145.79 333.38 C-156.85 333.37 -167.91 333.38 -178.96 333.41 C-190.34 333.43 -201.72 333.44 -213.1 333.44 C-219.48 333.43 -225.86 333.43 -232.24 333.45 C-238.24 333.47 -244.24 333.46 -250.24 333.44 C-252.43 333.44 -254.63 333.44 -256.82 333.45 C-272.2 333.52 -283.21 332.31 -295.88 322.94 C-296.76 322.34 -297.65 321.74 -298.56 321.12 C-306.85 313.28 -311.45 302.19 -311.97 290.88 C-312.01 288.56 -312.02 286.24 -312.02 283.91 C-312.02 283.03 -312.02 282.14 -312.02 281.23 C-312.03 278.27 -312.03 275.31 -312.04 272.35 C-312.04 270.23 -312.05 268.1 -312.05 265.98 C-312.06 260.21 -312.07 254.44 -312.08 248.67 C-312.08 245.06 -312.08 241.45 -312.09 237.84 C-312.1 226.54 -312.11 215.24 -312.11 203.94 C-312.12 190.91 -312.14 177.89 -312.16 164.86 C-312.19 154.78 -312.2 144.7 -312.2 134.62 C-312.2 128.6 -312.2 122.59 -312.22 116.58 C-312.24 110.91 -312.24 105.25 -312.23 99.59 C-312.23 97.52 -312.24 95.45 -312.25 93.38 C-312.33 75.28 -311.26 59.52 -298.94 45.19 C-289.27 36.16 -276.07 32.44 -263.25 32.66 C-252.89 33.11 -243.62 38.07 -236.46 45.42 C-231.48 51.17 -228.15 56.68 -225.88 63.94 C-225.54 64.93 -225.22 65.92 -224.88 66.94 C-224.77 68.54 -224.73 70.14 -224.72 71.74 C-224.71 72.73 -224.7 73.72 -224.69 74.74 C-224.68 75.82 -224.68 76.9 -224.67 78.02 C-224.66 79.16 -224.65 80.3 -224.64 81.48 C-224.61 85.26 -224.58 89.04 -224.56 92.82 C-224.54 95.44 -224.52 98.06 -224.5 100.68 C-224.45 106.87 -224.4 113.07 -224.36 119.26 C-224.31 126.32 -224.25 133.37 -224.2 140.42 C-224.08 154.93 -223.98 169.43 -223.88 183.94 C-220.75 180.81 -217.62 177.68 -214.51 174.54 C-212.86 172.88 -211.21 171.22 -209.56 169.56 C-208.75 168.74 -207.93 167.91 -207.09 167.06 C-202.74 162.7 -198.32 158.53 -193.65 154.52 C-191.06 152.21 -188.81 149.72 -186.5 147.12 C-180.34 140.29 -174.04 133.63 -167.04 127.64 C-162.85 124 -159.12 120.04 -155.38 115.94 C-150.05 110.18 -144.59 104.68 -138.81 99.38 C-133.43 94.43 -128.32 89.32 -123.38 83.94 C-117.06 77.06 -110.4 70.66 -103.53 64.34 C-98.73 59.91 -94.04 55.41 -89.88 50.38 C-85.77 45.6 -81.12 41.42 -76.5 37.16 C-70.23 31.35 -64.03 25.53 -58.5 19 C-43.71 1.97 -22.6 -8.87 0 0 Z " fill="#FA7A00" transform="translate(971.875,2.0625)"/>
<path d="M0 0 C1.41 -0.01 1.41 -0.01 2.84 -0.01 C5.97 -0.03 9.1 -0.02 12.23 -0.02 C14.48 -0.03 16.73 -0.04 18.98 -0.04 C25.08 -0.06 31.19 -0.07 37.29 -0.07 C41.11 -0.07 44.92 -0.07 48.74 -0.08 C61.37 -0.1 74 -0.1 86.63 -0.1 C87.31 -0.1 87.99 -0.1 88.69 -0.1 C89.71 -0.1 89.71 -0.1 90.75 -0.1 C101.79 -0.1 112.82 -0.12 123.85 -0.15 C135.19 -0.18 146.53 -0.19 157.87 -0.19 C164.23 -0.19 170.6 -0.2 176.96 -0.22 C182.94 -0.24 188.93 -0.24 194.91 -0.22 C197.1 -0.22 199.3 -0.22 201.49 -0.24 C222.72 -0.35 222.72 -0.35 231.5 4.27 C232.47 4.76 233.44 5.26 234.45 5.77 C244.47 12.67 251.75 22.34 254.5 34.27 C255.27 41.72 255.05 49.25 255.02 56.73 C255.02 59.01 255.03 61.29 255.04 63.57 C255.06 69.74 255.05 75.9 255.04 82.07 C255.03 88.54 255.04 95 255.04 101.47 C255.05 113.02 255.04 124.57 255.02 136.13 C255 146.58 255 157.04 255.02 167.49 C255.04 179.66 255.05 191.83 255.04 204 C255.03 210.43 255.03 216.86 255.05 223.29 C255.06 229.34 255.05 235.39 255.03 241.43 C255.02 243.65 255.02 245.86 255.03 248.08 C255.08 262.82 254.69 274.73 244.5 286.27 C243.96 286.88 243.43 287.5 242.88 288.14 C235.73 295.83 226.9 300.01 216.39 300.6 C203.34 300.88 194.09 298.11 183.5 290.27 C182.61 289.67 181.73 289.07 180.81 288.45 C172.85 280.92 167.9 269.9 167.4 258.98 C167.34 256.18 167.31 253.38 167.3 250.58 C167.29 249.52 167.28 248.45 167.27 247.36 C167.23 243.85 167.21 240.34 167.18 236.84 C167.16 234.4 167.14 231.97 167.12 229.53 C167.07 223.13 167.02 216.73 166.97 210.33 C166.92 203.79 166.86 197.26 166.81 190.72 C166.7 177.9 166.6 165.09 166.5 152.27 C161.53 156.43 156.87 160.76 152.31 165.36 C151.62 166.06 150.93 166.75 150.22 167.46 C147.93 169.76 145.64 172.06 143.35 174.37 C141.7 176.02 140.05 177.68 138.4 179.34 C134.86 182.89 131.31 186.46 127.77 190.02 C122.16 195.65 116.55 201.28 110.93 206.91 C109.01 208.84 107.09 210.77 105.16 212.7 C104.68 213.18 104.2 213.66 103.7 214.16 C98.24 219.64 92.78 225.12 87.32 230.6 C86.82 231.1 86.32 231.6 85.81 232.11 C77.72 240.22 69.64 248.34 61.57 256.45 C53.26 264.8 44.95 273.15 36.62 281.48 C31.96 286.15 27.3 290.83 22.64 295.52 C18.27 299.93 13.88 304.33 9.49 308.72 C7.88 310.33 6.27 311.94 4.67 313.56 C-7.72 326.07 -18.48 336 -37 336.64 C-50.3 336.18 -62.29 330.95 -71.5 321.27 C-81.48 309.47 -81.08 294.94 -81.5 280.27 C-80.84 280.6 -80.18 280.93 -79.5 281.27 C-79.28 280.64 -79.06 280.01 -78.84 279.36 C-78.52 278.51 -78.2 277.65 -77.87 276.77 C-77.42 275.51 -77.42 275.51 -76.96 274.24 C-73.41 267.02 -67.83 261.31 -62.17 255.7 C-61.46 254.98 -60.74 254.26 -60 253.53 C-57.62 251.14 -55.23 248.76 -52.85 246.39 C-51.13 244.67 -49.41 242.96 -47.7 241.24 C-44.02 237.56 -40.33 233.88 -36.64 230.2 C-31.31 224.88 -25.98 219.56 -20.65 214.23 C-12.01 205.59 -3.36 196.96 5.29 188.32 C13.69 179.94 22.09 171.56 30.49 163.17 C31.01 162.65 31.53 162.13 32.06 161.6 C34.66 159 37.26 156.41 39.86 153.81 C61.4 132.29 82.95 110.78 104.5 89.27 C102.95 87.72 101.49 88.14 99.33 88.13 C98.43 88.12 97.53 88.12 96.6 88.11 C95.61 88.11 94.61 88.11 93.59 88.11 C92.55 88.1 91.5 88.1 90.43 88.09 C88.15 88.08 85.88 88.07 83.61 88.07 C80 88.06 76.39 88.04 72.78 88.02 C62.52 87.95 52.26 87.9 42 87.87 C35.72 87.85 29.45 87.81 23.18 87.77 C20.8 87.75 18.41 87.74 16.03 87.74 C-14.72 87.69 -14.72 87.69 -24.5 80.83 C-25.35 80.25 -26.19 79.68 -27.06 79.08 C-36.63 71.96 -43.6 63.37 -45.5 51.27 C-46.53 37.77 -43.84 26.98 -35.5 16.27 C-34.75 15.28 -34.01 14.29 -33.24 13.28 C-30.48 9.99 -27.37 8.05 -23.62 6.02 C-23.04 5.68 -22.45 5.34 -21.85 4.99 C-14.61 0.96 -8.1 -0.03 0 0 Z " fill="#000100" transform="translate(362.49945068359375,34.732574462890625)"/>
<path d="M0 0 C15.18 0 30.36 0 46 0 C48.58 4.3 50.27 8.22 51.83 12.91 C52.09 13.69 52.36 14.48 52.63 15.29 C53.51 17.88 54.38 20.47 55.25 23.06 C55.86 24.88 56.48 26.7 57.09 28.51 C58.39 32.35 59.69 36.19 60.98 40.03 C63.01 46.05 65.06 52.06 67.12 58.08 C67.45 59.06 67.79 60.05 68.14 61.07 C68.81 63.02 69.48 64.98 70.14 66.94 C71.41 70.64 72.67 74.35 73.94 78.05 C74.52 79.75 75.1 81.45 75.68 83.15 C76.89 86.71 78.1 90.27 79.25 93.85 C79.77 95.48 79.77 95.48 80.3 97.14 C80.59 98.05 80.88 98.95 81.17 99.89 C81.91 102.17 81.91 102.17 84 104 C89.33 88.22 94.62 72.43 99.5 56.5 C102.82 45.68 106.29 34.92 109.88 24.19 C110.23 23.13 110.23 23.13 110.59 22.05 C117.41 1.59 117.41 1.59 119 0 C120.4 -0.1 121.81 -0.13 123.21 -0.13 C124.11 -0.13 125 -0.14 125.92 -0.14 C127.38 -0.14 127.38 -0.14 128.87 -0.13 C129.86 -0.13 130.86 -0.13 131.88 -0.14 C133.98 -0.14 136.09 -0.13 138.19 -0.13 C141.42 -0.13 144.65 -0.13 147.88 -0.14 C149.92 -0.14 151.96 -0.13 154 -0.13 C154.97 -0.13 155.94 -0.14 156.94 -0.14 C157.84 -0.14 158.73 -0.13 159.66 -0.13 C160.45 -0.13 161.24 -0.13 162.06 -0.13 C164 0 164 0 166 1 C166 51.82 166 102.64 166 155 C155.44 155 144.88 155 134 155 C132.86 152.72 132.88 151.46 132.88 148.93 C132.88 147.65 132.88 147.65 132.88 146.34 C132.88 145.4 132.88 144.47 132.89 143.5 C132.89 142.52 132.89 141.53 132.89 140.52 C132.89 137.25 132.89 133.98 132.9 130.71 C132.9 128.45 132.91 126.19 132.91 123.93 C132.91 117.97 132.92 112 132.93 106.04 C132.94 99.96 132.95 93.88 132.95 87.8 C132.96 75.87 132.98 63.93 133 52 C132.34 52 131.68 52 131 52 C130.87 52.88 130.74 53.76 130.61 54.67 C130.05 57.7 129.3 60.38 128.28 63.28 C127.91 64.32 127.55 65.37 127.17 66.45 C126.76 67.6 126.36 68.75 125.94 69.94 C125.03 72.53 124.13 75.12 123.23 77.71 C122.98 78.42 122.73 79.12 122.48 79.85 C120.29 86.13 118.15 92.41 116.02 98.7 C115.68 99.72 115.33 100.74 114.97 101.79 C113.58 105.91 112.19 110.02 110.8 114.13 C99.04 148.91 99.04 148.91 96 155 C87.42 155 78.84 155 70 155 C70 154.34 70 153.68 70 153 C69.34 153 68.68 153 68 153 C65.85 146.98 63.7 140.95 61.55 134.93 C60.82 132.89 60.09 130.85 59.36 128.81 C55.28 117.39 51.28 105.94 47.47 94.43 C44.83 86.43 42.03 78.49 39.19 70.56 C38.47 68.55 37.75 66.55 37.04 64.54 C36.4 62.76 35.76 60.97 35.13 59.19 C34.05 56.14 33.02 53.07 32 50 C31.67 84.65 31.34 119.3 31 155 C15.65 155.5 15.65 155.5 0 156 C0 104.52 0 53.04 0 0 Z " fill="#000100" transform="translate(282,664)"/>
<path d="M0 0 C5.33 4.71 9.93 9.85 14 15.69 C14.53 16.43 15.06 17.17 15.61 17.94 C28.78 37.99 30.58 64.29 26.68 87.43 C22.57 107.06 12.69 123.35 -3.6 135.2 C-12.14 140.5 -21.17 143.75 -31 145.69 C-31.91 145.87 -32.82 146.06 -33.76 146.25 C-55.68 149.23 -77.02 144.78 -95 131.69 C-110.89 119.22 -120.06 102.14 -122.63 82.21 C-123.24 75.98 -123.12 69.73 -123.01 63.48 C-123 62.61 -122.99 61.75 -122.97 60.85 C-122.95 60.07 -122.94 59.29 -122.92 58.49 C-122.8 56.66 -122.8 56.66 -124 55.69 C-124.14 53.02 -124.04 50.36 -124 47.69 C-123.34 48.02 -122.68 48.35 -122 48.69 C-121.94 48.08 -121.87 47.47 -121.81 46.84 C-119.51 30.37 -110.13 12.12 -97 1.69 C-69.24 -18.84 -27.78 -23.36 0 0 Z M-72 21.69 C-72.54 22.1 -73.08 22.51 -73.63 22.93 C-78.12 26.8 -80.68 31.4 -83.31 36.62 C-83.82 37.63 -83.82 37.63 -84.34 38.65 C-91.72 53.97 -91.83 72.55 -87 88.69 C-82.02 101.72 -75.16 109.26 -62.91 115.8 C-53.94 119.54 -41.14 119.12 -32 116.19 C-22.34 111.94 -15.31 105.3 -11 95.69 C-3.92 76.78 -3.69 55.61 -11.46 36.83 C-16.65 26.23 -23.48 18.81 -34.69 14.81 C-47.41 11.52 -61.62 13.24 -72 21.69 Z " fill="#000100" transform="translate(405,472.3125)"/>
<path d="M0 0 C1.06 0.98 2.1 1.98 3.12 3 C3.93 3.78 4.73 4.57 5.56 5.38 C6.08 5.91 6.59 6.45 7.12 7 C7.2 5.95 7.2 5.95 7.27 4.88 C7.35 3.97 7.42 3.06 7.5 2.12 C7.57 1.22 7.64 0.32 7.71 -0.62 C8.12 -3 8.12 -3 10.12 -5 C12.71 -5.24 12.71 -5.24 15.94 -5.23 C17.1 -5.23 18.25 -5.23 19.45 -5.22 C20.66 -5.21 21.87 -5.2 23.12 -5.19 C24.34 -5.19 25.55 -5.19 26.8 -5.19 C35.84 -5.14 35.84 -5.14 38.12 -4 C38.17 9.69 38.21 23.38 38.23 37.08 C38.24 43.44 38.25 49.79 38.28 56.15 C38.3 62.3 38.31 68.45 38.31 74.59 C38.32 76.93 38.33 79.26 38.34 81.6 C38.52 122.29 38.52 122.29 24.84 136.52 C12.13 148.15 -5.03 150.6 -21.74 150.25 C-38.23 148.92 -52.57 144.66 -63.81 131.88 C-67.81 126.3 -69.53 121.8 -69.88 115 C-67.88 113 -67.88 113 -65.08 112.77 C-63.33 112.79 -63.33 112.79 -61.55 112.8 C-59.67 112.81 -59.67 112.81 -57.75 112.82 C-55.77 112.85 -55.77 112.85 -53.75 112.88 C-52.41 112.89 -51.07 112.89 -49.73 112.9 C-46.45 112.93 -43.16 112.96 -39.88 113 C-39.56 113.61 -39.24 114.23 -38.92 114.86 C-38.49 115.67 -38.06 116.48 -37.62 117.31 C-37.2 118.11 -36.78 118.91 -36.35 119.74 C-33.73 123.76 -30.38 125.56 -25.88 127 C-17.73 128.42 -8.51 129.3 -1.1 124.96 C4.01 121.1 6.22 116.18 7.12 110 C7.24 106.73 7.22 103.46 7.19 100.19 C7.18 99.3 7.18 98.42 7.17 97.51 C7.16 95.34 7.14 93.17 7.12 91 C6.59 91.53 6.06 92.06 5.51 92.61 C-4.82 102.4 -15.02 104.32 -28.97 104.22 C-41.77 103.49 -51.58 98.66 -60.88 90 C-72.24 76.55 -74.66 58.41 -73.66 41.4 C-71.79 26.86 -65.53 11.39 -53.88 2 C-38.33 -8.95 -15.7 -13.11 0 0 Z M8.12 8 C9.12 11 9.12 11 9.12 11 Z M-35.88 25 C-42.59 35.95 -43.85 46.37 -41.88 59 C-40.32 64.95 -38.43 70.7 -33.88 75 C-33.41 75.46 -32.95 75.93 -32.48 76.4 C-27.66 80.34 -22.73 80.5 -16.75 80.56 C-15.97 80.58 -15.2 80.59 -14.4 80.61 C-8.07 80.49 -4.61 78.43 0.14 74.21 C7.78 65.84 8.79 56.99 8.4 45.97 C7.7 35.91 5.28 27.4 -1.88 20 C-12.74 11.95 -27.68 14.81 -35.88 25 Z M8.12 88 C9.12 91 9.12 91 9.12 91 Z " fill="#000100" transform="translate(834.875,508)"/>
<path d="M0 0 C5.32 5.17 8.39 10.63 8.94 18.16 C8.95 20.1 8.95 20.1 8.95 22.09 C8.96 22.81 8.97 23.53 8.97 24.27 C8.98 25.83 8.99 27.39 8.99 28.95 C8.99 31.43 9.01 33.9 9.03 36.38 C9.08 43.43 9.12 50.47 9.14 57.51 C9.16 61.83 9.19 66.15 9.22 70.47 C9.24 72.1 9.24 73.74 9.24 75.37 C9.15 90.93 9.15 90.93 13.68 105.64 C3.12 105.31 -7.44 104.98 -18.32 104.64 C-19.31 102.33 -20.3 100.02 -21.32 97.64 C-22.29 98.21 -23.26 98.79 -24.25 99.39 C-39.52 108.05 -57.34 110.75 -74.5 106.14 C-82.78 103.07 -89.25 98.34 -93.38 90.45 C-97.48 81.42 -97.54 71.31 -94.35 61.98 C-90.23 52.61 -82.62 47.2 -73.34 43.34 C-69.37 41.97 -65.26 41.33 -61.13 40.64 C-60.17 40.47 -59.22 40.3 -58.24 40.12 C-53.38 39.28 -48.53 38.51 -43.64 37.86 C-42.74 37.73 -41.85 37.61 -40.92 37.48 C-39.23 37.26 -37.54 37.05 -35.84 36.85 C-30.81 36.19 -27.18 35.19 -23.32 31.64 C-22.48 28.78 -22.48 28.78 -22.75 25.7 C-22.77 24.68 -22.79 23.66 -22.81 22.61 C-23.38 19.26 -24.25 17.32 -26.32 14.64 C-31.91 11.28 -38.97 10.77 -45.32 11.64 C-50.51 12.96 -54.26 14.42 -57.82 18.51 C-59.26 21.51 -60.29 24.47 -61.32 27.64 C-65.57 27.66 -69.82 27.68 -74.08 27.69 C-75.53 27.7 -76.98 27.7 -78.42 27.71 C-80.5 27.72 -82.58 27.73 -84.66 27.73 C-85.91 27.74 -87.16 27.74 -88.45 27.75 C-91.32 27.64 -91.32 27.64 -92.32 26.64 C-92.17 17.83 -89.11 10.97 -83.3 4.34 C-63.97 -14.09 -20.91 -17.26 0 0 Z M-32.69 53.89 C-33.4 54.03 -34.11 54.17 -34.84 54.32 C-36.3 54.61 -37.76 54.91 -39.21 55.21 C-41.13 55.6 -43.06 55.95 -44.98 56.3 C-53.39 57.94 -59.39 60.34 -64.32 67.57 C-65.98 72.66 -66.11 76.06 -63.69 80.89 C-59.57 85.66 -55.69 86.76 -49.57 87.45 C-40.38 87.96 -34 87.01 -27.01 80.78 C-22.33 74.85 -21.9 69.49 -22.13 62.2 C-22.14 61.37 -22.16 60.55 -22.17 59.69 C-22.2 57.67 -22.26 55.66 -22.32 53.64 C-26.09 52.38 -28.91 53.12 -32.69 53.89 Z " fill="#000100" transform="translate(617.31640625,510.36328125)"/>
<path d="M0 0 C10.85 10.15 19.49 24.24 20.1 39.46 C20.09 40.23 20.07 41.01 20.06 41.81 C20.05 42.6 20.04 43.39 20.04 44.21 C20.02 44.8 20.01 45.39 20 46 C20.66 46 21.32 46 22 46 C22 49.63 22 53.26 22 57 C-4.4 57 -30.8 57 -58 57 C-59.27 63.37 -58.16 68.17 -54.96 73.84 C-50.8 79.39 -44.66 81.94 -38 83 C-28.59 83.74 -20.96 82.79 -13.62 76.56 C-11.66 74.75 -10.12 73.21 -8.73 70.91 C-7 69 -7 69 -4.49 68.53 C-3.51 68.54 -2.53 68.56 -1.53 68.57 C0.07 68.59 0.07 68.59 1.7 68.6 C2.81 68.63 3.92 68.66 5.06 68.69 C6.18 68.7 7.29 68.71 8.44 68.72 C16.66 68.83 16.66 68.83 19 70 C15.48 82.78 8.36 93.66 -2.96 100.89 C-17.88 108.79 -37.94 109.63 -54.12 105.1 C-66.78 100.27 -78.79 91.25 -85 79 C-91.75 62.87 -93.84 44.79 -88 28 C-85.92 23.17 -83.58 18.59 -81 14 C-80.63 13.31 -80.27 12.62 -79.89 11.91 C-73.32 1.14 -59.76 -5.37 -48.31 -9.25 C-31.29 -13.1 -14.14 -10.66 0 0 Z M-54.44 21.75 C-57.21 25.86 -58.74 30.23 -60 35 C-59.01 36.21 -59.01 36.21 -57.06 36.12 C-56.21 36.12 -55.36 36.12 -54.48 36.11 C-53.52 36.11 -52.56 36.11 -51.57 36.11 C-50.52 36.11 -49.48 36.1 -48.4 36.1 C-46.81 36.1 -46.81 36.1 -45.18 36.09 C-41.76 36.09 -38.35 36.08 -34.94 36.06 C-32.63 36.06 -30.32 36.05 -28.01 36.05 C-22.34 36.04 -16.67 36.02 -11 36 C-11.14 34.74 -11.27 33.49 -11.42 32.19 C-11.49 31.48 -11.57 30.78 -11.65 30.05 C-12.61 24.43 -16.6 19.18 -20.75 15.41 C-31.51 8.89 -46.72 12.31 -54.44 21.75 Z " fill="#000100" transform="translate(976,511)"/>
<path d="M0 0 C7.93 5.79 13.72 12.91 18.19 21.6 C18.57 22.27 18.94 22.94 19.33 23.63 C21.85 28.54 22.95 33.59 23.94 38.97 C24.07 39.66 24.19 40.34 24.32 41.04 C25.33 47.09 25.19 52.26 25.19 58.6 C-13.92 59.09 -13.92 59.09 -53.81 59.6 C-55.02 65.65 -53.77 68.93 -51.81 74.6 C-51.5 75.59 -51.19 76.58 -50.88 77.6 C-49.53 80.13 -48.45 80.54 -45.81 81.6 C-45.09 82.08 -44.36 82.57 -43.62 83.07 C-36.58 86.91 -27.11 87.26 -19.38 85.66 C-13.1 83.77 -7.97 80.18 -4.56 74.51 C-2.81 72.6 -2.81 72.6 -0.28 72.13 C0.7 72.14 1.68 72.16 2.7 72.17 C3.76 72.18 4.83 72.19 5.93 72.2 C7.05 72.23 8.16 72.26 9.31 72.29 C11 72.3 11 72.3 12.71 72.31 C21.02 72.43 21.02 72.43 22.19 73.6 C21.98 83.07 16.38 90.7 10.12 97.41 C-1.93 108.86 -16.49 111.24 -32.53 110.84 C-48.52 110.12 -62.5 103.95 -73.81 92.6 C-84.86 78.56 -88.33 62.13 -86.81 44.6 C-84.6 28.35 -77.07 13.44 -63.91 3.38 C-44.57 -9.44 -20.49 -12.32 0 0 Z M-50.63 25.56 C-52.84 29.36 -54.68 33.34 -55.81 37.6 C-55.48 38.26 -55.15 38.92 -54.81 39.6 C-38.97 39.6 -23.13 39.6 -6.81 39.6 C-7.97 30.34 -9.54 24.6 -16.96 18.79 C-27.59 11.97 -43.22 15.58 -50.63 25.56 Z " fill="#000100" transform="translate(792.8125,711.40234375)"/>
<path d="M0 0 C1.25 0.01 2.49 0.02 3.78 0.03 C4.77 0.04 4.77 0.04 5.79 0.04 C7.91 0.05 10.02 0.08 12.14 0.1 C13.58 0.11 15.02 0.12 16.45 0.13 C19.97 0.15 23.5 0.19 27.02 0.23 C31.01 8.6 33.82 17.31 36.71 26.1 C37.23 27.7 37.76 29.3 38.29 30.9 C39.36 34.12 40.42 37.35 41.48 40.57 C43.71 47.32 45.96 54.05 48.21 60.79 C48.93 62.96 49.65 65.13 50.37 67.29 C50.67 68.18 50.97 69.07 51.27 69.98 C51.85 71.73 52.44 73.48 53.02 75.23 C53.68 75.23 54.34 75.23 55.02 75.23 C55.16 73.85 55.16 73.85 55.3 72.45 C56.08 67.04 57.82 61.92 59.46 56.73 C59.8 55.61 60.15 54.49 60.51 53.34 C61.67 49.63 62.84 45.93 64.02 42.23 C64.23 41.56 64.44 40.89 64.66 40.21 C65.97 36.05 67.29 31.9 68.62 27.76 C69.05 26.42 69.47 25.08 69.9 23.75 C76.64 2.6 76.64 2.6 79.02 0.23 C81.16 0.14 83.31 0.12 85.46 0.13 C86.77 0.13 88.07 0.14 89.42 0.14 C90.8 0.15 92.19 0.16 93.58 0.16 C94.97 0.17 96.37 0.17 97.76 0.18 C101.18 0.19 104.6 0.21 108.02 0.23 C109.91 5.46 107.8 9.48 105.9 14.38 C105.56 15.28 105.22 16.18 104.87 17.1 C103.79 19.98 102.69 22.85 101.58 25.73 C100.87 27.6 100.17 29.47 99.46 31.34 C97.33 36.98 95.17 42.6 93.02 48.23 C91.92 51.09 90.83 53.95 89.73 56.81 C89.06 58.56 88.39 60.32 87.72 62.07 C85.61 67.59 83.62 73.14 81.71 78.73 C77.49 90.93 72.87 102.99 68.24 115.04 C67.22 117.71 66.22 120.38 65.23 123.06 C61.8 132.22 57.63 141.76 49.12 147.27 C45.4 148.96 41.48 149.8 37.5 150.65 C35.09 150.98 35.09 150.98 34.02 152.23 C32.31 152.31 30.6 152.33 28.89 152.32 C27.34 152.32 27.34 152.32 25.76 152.31 C24.67 152.31 23.58 152.3 22.46 152.29 C20.82 152.28 20.82 152.28 19.15 152.28 C16.44 152.26 13.73 152.25 11.02 152.23 C11.02 151.57 11.02 150.91 11.02 150.23 C9.81 150.26 9.81 150.26 8.58 150.29 C6.02 150.23 6.02 150.23 5.02 149.23 C4.77 145.59 4.83 141.94 4.83 138.29 C4.82 137.26 4.81 136.23 4.79 135.17 C4.79 133.7 4.79 133.7 4.79 132.2 C4.78 131.29 4.78 130.39 4.78 129.46 C5.02 127.23 5.02 127.23 7.02 125.23 C10.76 125.11 14.45 125.18 18.19 125.31 C22.89 125.4 26.63 125.16 31.02 123.23 C34.65 119.47 34.39 115.31 34.33 110.36 C33.77 104.67 31.66 99.63 29.58 94.35 C29.1 93.09 28.62 91.82 28.14 90.55 C27.06 87.72 25.97 84.89 24.88 82.06 C22.79 76.65 20.75 71.22 18.71 65.79 C10.87 44.78 10.87 44.78 2.69 23.91 C0.67 18.91 -1.2 13.92 -2.86 8.79 C-3.07 8.14 -3.28 7.49 -3.5 6.83 C-4 5.29 -4.49 3.76 -4.98 2.23 C-2.98 0.23 -2.98 0.23 0 0 Z " fill="#000100" transform="translate(819.98095703125,706.77294921875)"/>
<path d="M0 0 C11.11 9.15 18.77 21.75 21 36 C21.33 40.59 21.37 45.15 21.38 49.75 C21.4 50.94 21.42 52.12 21.45 53.34 C21.5 69.25 16.19 82.19 5.39 93.71 C-6.48 105.11 -21.49 108.39 -37.52 108.3 C-54.54 107.88 -68.78 101.88 -81 90 C-92.93 76.67 -94.8 59.68 -94.17 42.57 C-93.11 26.85 -85.83 12.44 -74 2 C-52.57 -13.31 -22.12 -15.53 0 0 Z M-55 21 C-56.79 23.72 -56.79 23.72 -58.19 26.75 C-58.68 27.73 -59.16 28.72 -59.67 29.73 C-64.71 42.1 -64.84 56.66 -60.32 69.22 C-57.24 75.69 -52.78 80.45 -46.16 83.32 C-38.93 85.6 -31.12 85.74 -24 83 C-16.42 78.03 -12.2 71.73 -10 63 C-7.93 48.32 -8.61 33.67 -17 21 C-21.55 15.5 -27.93 13.35 -34.81 12.56 C-42.26 12.87 -49.6 15.94 -55 21 Z " fill="#000100" transform="translate(555,714)"/>
<path d="M0 0 C0.7 0.89 1.4 1.77 2.12 2.69 C2.63 3.26 3.13 3.84 3.64 4.43 C10.84 13.13 12.29 23.69 12.24 34.71 C12.24 35.49 12.24 36.27 12.24 37.08 C12.24 39.64 12.23 42.21 12.22 44.77 C12.22 46.56 12.22 48.34 12.22 50.13 C12.21 54.81 12.2 59.5 12.19 64.18 C12.18 68.97 12.18 73.76 12.17 78.54 C12.16 87.92 12.15 97.31 12.12 106.69 C7.87 106.71 3.62 106.73 -0.64 106.74 C-2.09 106.75 -3.53 106.75 -4.98 106.76 C-7.06 106.78 -9.14 106.78 -11.21 106.79 C-12.47 106.79 -13.72 106.8 -15.01 106.8 C-17.88 106.69 -17.88 106.69 -18.88 105.69 C-18.98 103.53 -19.02 101.37 -19.03 99.22 C-19.04 98.54 -19.04 97.86 -19.05 97.16 C-19.06 95.69 -19.07 94.21 -19.07 92.74 C-19.09 90.4 -19.11 88.05 -19.13 85.71 C-19.19 79.05 -19.24 72.38 -19.28 65.72 C-19.3 61.65 -19.33 57.58 -19.38 53.5 C-19.39 51.96 -19.4 50.41 -19.4 48.86 C-19.43 39.25 -19.5 30.09 -24.75 21.69 C-29.4 17.31 -34.62 17.17 -40.74 17.33 C-45.92 17.92 -49.89 19.26 -53.88 22.69 C-59 30.25 -60.96 37.38 -61.08 46.41 C-61.1 47.39 -61.1 47.39 -61.11 48.39 C-61.14 50.54 -61.17 52.68 -61.19 54.83 C-61.21 56.33 -61.23 57.82 -61.25 59.32 C-61.31 63.24 -61.36 67.17 -61.41 71.09 C-61.46 75.1 -61.51 79.11 -61.57 83.12 C-61.68 90.97 -61.78 98.83 -61.88 106.69 C-66.13 106.71 -70.38 106.73 -74.64 106.74 C-76.09 106.75 -77.53 106.75 -78.98 106.76 C-81.06 106.78 -83.14 106.78 -85.21 106.79 C-86.47 106.79 -87.72 106.8 -89.01 106.8 C-91.88 106.69 -91.88 106.69 -92.88 105.69 C-92.97 104.28 -93.01 102.86 -93.01 101.44 C-93.01 100.53 -93.02 99.61 -93.02 98.67 C-93.02 97.66 -93.02 96.64 -93.02 95.6 C-93.02 94.54 -93.03 93.48 -93.03 92.39 C-93.04 88.86 -93.04 85.34 -93.04 81.82 C-93.05 79.38 -93.05 76.94 -93.05 74.5 C-93.06 69.39 -93.06 64.27 -93.06 59.15 C-93.06 52.58 -93.07 46.01 -93.09 39.44 C-93.1 34.4 -93.1 29.36 -93.1 24.33 C-93.1 21.9 -93.11 19.48 -93.12 17.05 C-93.13 13.67 -93.12 10.29 -93.12 6.9 C-93.12 5.89 -93.13 4.88 -93.13 3.84 C-93.13 2.92 -93.13 2.01 -93.12 1.06 C-93.12 0.26 -93.12 -0.54 -93.12 -1.37 C-92.88 -3.31 -92.88 -3.31 -90.88 -5.31 C-88.28 -5.56 -88.28 -5.56 -85.03 -5.54 C-83.87 -5.54 -82.7 -5.54 -81.51 -5.54 C-80.29 -5.52 -79.07 -5.51 -77.81 -5.5 C-75.98 -5.5 -75.98 -5.5 -74.11 -5.5 C-65.02 -5.45 -65.02 -5.45 -63.88 -4.31 C-63.67 -2.34 -63.51 -0.36 -63.38 1.62 C-63.2 5.81 -63.2 5.81 -61.88 9.69 C-61.46 9.17 -61.05 8.65 -60.62 8.11 C-46.15 -9.37 -18.53 -14.91 0 0 Z " fill="#000100" transform="translate(736.875,508.3125)"/>
<path d="M0 0 C8.63 7.81 13.3 18.17 13.97 29.78 C14.13 34.86 14.08 39.94 14.02 45.02 C14.01 46.88 14 48.75 14 50.61 C13.98 55.48 13.94 60.34 13.9 65.21 C13.86 70.19 13.84 75.17 13.82 80.15 C13.78 89.89 13.71 99.63 13.62 109.38 C3.73 109.38 -6.17 109.38 -16.38 109.38 C-17.84 106.45 -17.51 103.86 -17.52 100.59 C-17.52 99.89 -17.52 99.19 -17.53 98.47 C-17.53 96.96 -17.54 95.44 -17.54 93.92 C-17.55 91.51 -17.57 89.1 -17.59 86.69 C-17.64 79.84 -17.69 72.99 -17.7 66.13 C-17.71 61.94 -17.74 57.75 -17.78 53.56 C-17.79 51.97 -17.8 50.38 -17.8 48.78 C-17.79 39.04 -18.17 31.03 -24.19 22.94 C-29.41 19.21 -34.74 19.02 -40.88 19.85 C-46.77 21.09 -50.87 23.1 -54.25 28.19 C-57.65 33.95 -58.62 39.99 -58.69 46.6 C-58.7 47.28 -58.71 47.96 -58.72 48.67 C-58.75 50.9 -58.77 53.14 -58.79 55.37 C-58.81 56.93 -58.83 58.49 -58.85 60.05 C-58.9 64.13 -58.94 68.22 -58.98 72.3 C-59.02 76.48 -59.07 80.66 -59.12 84.83 C-59.21 93.01 -59.3 101.19 -59.38 109.38 C-69.27 109.38 -79.17 109.38 -89.38 109.38 C-90.55 107.03 -90.5 105.66 -90.51 103.05 C-90.51 102.14 -90.52 101.23 -90.52 100.29 C-90.52 99.3 -90.52 98.3 -90.52 97.27 C-90.52 96.22 -90.53 95.16 -90.53 94.08 C-90.54 90.6 -90.54 87.11 -90.54 83.62 C-90.55 81.21 -90.55 78.8 -90.55 76.38 C-90.56 71.32 -90.56 66.26 -90.56 61.19 C-90.56 54.69 -90.57 48.18 -90.59 41.68 C-90.6 36.69 -90.6 31.71 -90.6 26.72 C-90.6 24.32 -90.61 21.93 -90.62 19.53 C-90.63 16.18 -90.62 12.83 -90.62 9.48 C-90.62 8.48 -90.63 7.49 -90.63 6.46 C-90.63 5.55 -90.63 4.64 -90.62 3.7 C-90.62 2.91 -90.62 2.12 -90.62 1.3 C-90.38 -0.62 -90.38 -0.62 -88.38 -2.62 C-85.78 -2.87 -85.78 -2.87 -82.53 -2.86 C-81.37 -2.85 -80.2 -2.85 -79.01 -2.85 C-77.79 -2.84 -76.57 -2.83 -75.31 -2.81 C-73.48 -2.81 -73.48 -2.81 -71.61 -2.81 C-62.52 -2.77 -62.52 -2.77 -61.38 -1.62 C-61.17 0.18 -61.01 2 -60.88 3.81 C-60.66 7.74 -60.66 7.74 -59.38 11.38 C-58.99 10.87 -58.6 10.36 -58.2 9.84 C-43.46 -8.3 -20.08 -9.67 0 0 Z " fill="#000100" transform="translate(680.375,709.625)"/>
<path d="M0 0 C1 1 1 1 1.11 3.68 C1.11 5.44 1.11 5.44 1.1 7.22 C1.09 9.11 1.09 9.11 1.09 11.04 C1.08 12.38 1.07 13.72 1.06 15.06 C1.06 16.41 1.05 17.75 1.05 19.1 C1.04 22.4 1.02 25.7 1 29 C-0.06 28.97 -1.12 28.94 -2.21 28.91 C-12.5 28.65 -20.68 29.38 -29 36 C-36.57 43.57 -39.04 53.33 -39.21 63.82 C-39.23 64.94 -39.25 66.06 -39.27 67.22 C-39.28 68.41 -39.3 69.61 -39.32 70.84 C-39.34 72.07 -39.36 73.3 -39.38 74.58 C-39.44 78.51 -39.5 82.44 -39.56 86.38 C-39.61 89.05 -39.65 91.72 -39.69 94.39 C-39.8 100.92 -39.9 107.46 -40 114 C-44.25 114.02 -48.51 114.04 -52.76 114.05 C-54.21 114.06 -55.66 114.07 -57.11 114.08 C-59.18 114.09 -61.26 114.09 -63.34 114.1 C-64.59 114.1 -65.84 114.11 -67.13 114.11 C-70 114 -70 114 -71 113 C-71.1 111.59 -71.13 110.17 -71.13 108.76 C-71.14 107.84 -71.14 106.92 -71.15 105.98 C-71.15 104.97 -71.15 103.96 -71.15 102.91 C-71.15 101.85 -71.15 100.79 -71.16 99.7 C-71.16 96.18 -71.17 92.65 -71.17 89.13 C-71.17 86.69 -71.17 84.25 -71.18 81.82 C-71.18 76.7 -71.19 71.58 -71.19 66.46 C-71.19 59.89 -71.2 53.32 -71.22 46.75 C-71.23 41.71 -71.23 36.68 -71.23 31.64 C-71.23 29.21 -71.23 26.79 -71.24 24.37 C-71.25 20.98 -71.25 17.6 -71.24 14.22 C-71.25 13.21 -71.25 12.2 -71.26 11.16 C-71.26 10.24 -71.25 9.32 -71.25 8.37 C-71.25 7.57 -71.25 6.77 -71.25 5.95 C-71 4 -71 4 -69 2 C-66.42 1.76 -66.42 1.76 -63.19 1.77 C-62.03 1.77 -60.87 1.77 -59.68 1.78 C-58.47 1.79 -57.25 1.8 -56 1.81 C-54.79 1.81 -53.57 1.81 -52.32 1.81 C-43.28 1.86 -43.28 1.86 -41 3 C-40.71 5.53 -40.53 7.97 -40.44 10.5 C-40.65 15.12 -40.65 15.12 -39 19 C-38.52 18.26 -38.52 18.26 -38.04 17.5 C-31.21 7.55 -21.35 2.13 -9.81 -0.81 C-6.4 -1.04 -3.35 -0.66 0 0 Z " fill="#000100" transform="translate(518,501)"/>
<path d="M0 0 C0.33 0 0.66 0 1 0 C1 1.65 1 3.3 1 5 C0.67 5 0.34 5 0 5 C0 3.35 0 1.7 0 0 Z " fill="#000100" transform="translate(281,550)"/>
<path d="" fill="#000100" transform="translate(0,0)"/>
<path d="" fill="#000100" transform="translate(0,0)"/>
</svg>
