<svg width="22" height="22" viewBox="0 0 22 22" fill="none" xmlns="http://www.w3.org/2000/svg">
<path d="M17.4166 11.9167V13.25C17.4166 16.0784 17.4166 17.4926 16.538 18.3713C15.6593 19.25 14.2451 19.25 11.4166 19.25H10.5833C7.75488 19.25 6.34067 19.25 5.46199 18.3713C4.58331 17.4926 4.58331 16.0784 4.58331 13.25V8.75C4.58331 5.92157 4.58331 4.50736 5.46199 3.62868C6.34067 2.75 7.75489 2.75 10.5833 2.75H11" stroke="white" stroke-width="2" stroke-linecap="round"/>
<path d="M8.25 11.9165L13.75 11.9165" stroke="white" stroke-width="1.5" stroke-linecap="round"/>
<path d="M8.25 8.25L11.9167 8.25" stroke="white" stroke-width="1.5" stroke-linecap="round"/>
<path d="M8.25 15.5835L11.9167 15.5835" stroke="white" stroke-width="1.5" stroke-linecap="round"/>
<path d="M14.4343 5.425L15.8324 6.47358C16.2509 6.78743 16.8405 6.72575 17.185 6.33208L20.3193 2.75" stroke="white" stroke-width="2" stroke-linecap="round"/>
</svg>
