<svg width="26" height="24" viewBox="0 0 26 24" fill="none" xmlns="http://www.w3.org/2000/svg">
<path d="M13 21V13M13 21L6.31571 16.5928C5.87569 16.3027 5.65568 16.1576 5.53615 15.9356C5.41663 15.7137 5.41663 15.4501 5.41663 14.9231V8M13 21L19.6842 16.5928C20.1242 16.3027 20.3442 16.1576 20.4638 15.9356C20.5833 15.7137 20.5833 15.4501 20.5833 14.9231V8M13 13L5.41663 8M13 13L20.5833 8M5.41663 8L11.899 3.72588C12.433 3.37383 12.7 3.1978 13 3.1978C13.3 3.1978 13.5669 3.37383 14.1009 3.72588L20.5833 8" stroke="#008059" stroke-width="2" stroke-linejoin="round"/>
</svg>
