<svg width="20" height="19" viewBox="0 0 20 19" fill="none" xmlns="http://www.w3.org/2000/svg">
<path d="M19 14.8496C19 15.1549 18.9279 15.4687 18.7747 15.7741C18.6214 16.0794 18.4231 16.3677 18.1617 16.6391C17.7201 17.0971 17.2334 17.4279 16.6835 17.6399C16.1427 17.8519 15.5568 17.9622 14.9259 17.9622C14.0065 17.9622 13.024 17.7586 11.9875 17.3431C10.9509 16.9275 9.91437 16.3677 8.88683 15.6638C7.83956 14.943 6.8513 14.1492 5.9304 13.2891C5.01892 12.4257 4.17826 11.4986 3.41562 10.5158C2.67651 9.54894 2.08162 8.58209 1.64897 7.62373C1.21632 6.65689 1 5.73245 1 4.85041C1 4.2737 1.10816 3.72243 1.32449 3.21356C1.54081 2.69622 1.88332 2.22128 2.36104 1.79722C2.93791 1.26291 3.56885 1 4.23585 1C4.48823 1 4.74061 1.05089 4.96595 1.15266C5.2003 1.25443 5.40761 1.40709 5.56986 1.6276L7.66099 4.40092C7.82324 4.61294 7.94041 4.80801 8.02153 4.99459C8.10265 5.17269 8.14772 5.3508 8.14772 5.51194C8.14772 5.71548 8.08463 5.91903 7.95844 6.1141C7.84126 6.30916 7.67 6.51271 7.45368 6.71625L6.76865 7.38626C6.6695 7.47955 6.62444 7.58981 6.62444 7.7255C6.62444 7.79335 6.63345 7.85272 6.65148 7.92057C6.67852 7.98842 6.70556 8.0393 6.72359 8.09019C6.88583 8.37006 7.16525 8.73475 7.56184 9.17577C7.96745 9.61679 8.4001 10.0663 8.8688 10.5158C9.35553 10.9653 9.82424 11.3809 10.302 11.7625C10.7707 12.1357 11.1582 12.3901 11.4647 12.5428C11.5098 12.5597 11.5638 12.5852 11.6269 12.6106C11.699 12.6361 11.7712 12.6445 11.8523 12.6445C12.0055 12.6445 12.1227 12.5936 12.2218 12.5004L12.9069 11.8643C13.1322 11.6522 13.3485 11.4911 13.5558 11.3893C13.7631 11.2706 13.9705 11.2112 14.1958 11.2112C14.3671 11.2112 14.5473 11.2452 14.7456 11.3215C14.9439 11.3978 15.1512 11.5081 15.3766 11.6522L18.36 13.6453C18.5944 13.798 18.7566 13.9761 18.8558 14.1881C18.9459 14.4001 19 14.6121 19 14.8496Z" fill="#333333" stroke="white" stroke-width="1.5" stroke-miterlimit="10"/>
</svg>
