<svg width="20" height="19" viewBox="0 0 20 19" fill="none" xmlns="http://www.w3.org/2000/svg">
<path d="M19 14.6083C19 14.9083 18.9279 15.2167 18.7747 15.5167C18.6214 15.8167 18.4231 16.1 18.1617 16.3667C17.7201 16.8167 17.2333 17.1417 16.6835 17.35C16.1427 17.5583 15.5568 17.6667 14.9259 17.6667C14.0065 17.6667 13.024 17.4667 11.9875 17.0583C10.9509 16.65 9.91437 16.1 8.88683 15.4083C7.83956 14.7001 6.8513 13.9201 5.9304 13.075C5.01892 12.2267 4.17826 11.3157 3.41562 10.35C2.67651 9.4 2.08162 8.45 1.64897 7.50833C1.21632 6.55833 1 5.65 1 4.78333C1 4.21667 1.10816 3.675 1.32449 3.175C1.54081 2.66667 1.88332 2.2 2.36104 1.78333C2.93791 1.25833 3.56885 1 4.23585 1C4.48823 1 4.74061 1.05 4.96595 1.15C5.2003 1.25 5.40761 1.4 5.56986 1.61667L7.66099 4.34167C7.82324 4.55 7.94041 4.74167 8.02153 4.925C8.10265 5.1 8.14772 5.275 8.14772 5.43333C8.14772 5.63333 8.08463 5.83333 7.95844 6.025C7.84126 6.21667 7.67001 6.41667 7.45368 6.61667L6.76865 7.275C6.6695 7.36667 6.62444 7.475 6.62444 7.60833C6.62444 7.675 6.63345 7.73333 6.65148 7.8C6.67852 7.86667 6.70556 7.91667 6.72359 7.96667C6.88583 8.24167 7.16525 8.6 7.56184 9.03333C7.96745 9.46667 8.4001 9.90833 8.8688 10.35C9.35553 10.7917 9.82424 11.2 10.302 11.575C10.7707 11.9417 11.1582 12.1917 11.4647 12.3417C11.5098 12.3583 11.5638 12.3833 11.6269 12.4083C11.699 12.4333 11.7712 12.4417 11.8523 12.4417C12.0055 12.4417 12.1227 12.3917 12.2218 12.3L12.9069 11.675C13.1322 11.4667 13.3485 11.3083 13.5558 11.2083C13.7631 11.0917 13.9705 11.0333 14.1958 11.0333C14.3671 11.0333 14.5473 11.0667 14.7456 11.1417C14.9439 11.2167 15.1512 11.325 15.3766 11.4667L18.36 13.425C18.5944 13.575 18.7566 13.75 18.8558 13.9583C18.9459 14.1667 19 14.375 19 14.6083Z" stroke="white" stroke-width="1.5" stroke-miterlimit="10"/>
</svg>
