<svg width="22" height="22" viewBox="0 0 22 22" fill="none" xmlns="http://www.w3.org/2000/svg">
<path d="M17.7475 15.5835C18.4313 16.0015 18.7913 16.4758 18.7913 16.9585C18.7913 17.4412 18.4313 17.9154 17.7475 18.3335C17.0636 18.7515 16.08 19.0987 14.8955 19.3401C13.711 19.5814 12.3674 19.7085 10.9997 19.7085C9.63195 19.7085 8.28833 19.5814 7.10384 19.3401C5.91936 19.0987 4.93576 18.7515 4.25189 18.3335C3.56803 17.9154 3.20801 17.4412 3.20801 16.9585C3.20801 16.4758 3.56803 16.0015 4.25189 15.5835" stroke="#008059" stroke-linecap="round"/>
<path d="M17.875 9.1665C17.875 13.7281 12.9273 16.8173 11.4265 17.6494C11.1588 17.7978 10.8412 17.7978 10.5735 17.6494C9.07272 16.8173 4.125 13.7281 4.125 9.1665C4.125 5.0415 7.45617 2.2915 11 2.2915C14.6667 2.2915 17.875 5.0415 17.875 9.1665Z" stroke="#008059"/>
<circle cx="10.9997" cy="9.16667" r="3.16667" fill="#008059" stroke="#008059"/>
</svg>
