<svg width="13" height="16" viewBox="0 0 13 16" fill="none" xmlns="http://www.w3.org/2000/svg">
<path d="M11.3212 4.61178L12.2049 3.72222L11.3354 2.84659L10.39 3.79821C9.52645 3.18214 8.51871 2.80244 7.46553 2.69632V1.42729H8.69541V0.189209H5.00576V1.42729H6.23564V2.69632C5.18246 2.80244 4.17472 3.18214 3.31114 3.79821L2.36582 2.84659L1.49629 3.72222L2.37996 4.61178C1.55511 5.49094 1.00412 6.59406 0.795035 7.7849C0.58595 8.97574 0.727928 10.2022 1.20344 11.3127C1.67894 12.4232 2.46715 13.3692 3.47073 14.0339C4.47431 14.6985 5.64929 15.0527 6.85059 15.0527C8.05188 15.0527 9.22687 14.6985 10.2304 14.0339C11.234 13.3692 12.0222 12.4232 12.4977 11.3127C12.9732 10.2022 13.1152 8.97574 12.9061 7.7849C12.6971 6.59406 12.1461 5.49094 11.3212 4.61178ZM6.85059 13.8081C5.8776 13.8081 4.92645 13.5176 4.11744 12.9735C3.30843 12.4293 2.67788 11.6558 2.30553 10.7509C1.93319 9.84601 1.83576 8.85027 2.02558 7.88961C2.21541 6.92896 2.68395 6.04654 3.37195 5.35395C4.05996 4.66135 4.93654 4.18969 5.89083 3.9986C6.84513 3.80752 7.83428 3.90559 8.73321 4.28042C9.63213 4.65525 10.4005 5.29 10.941 6.1044C11.4816 6.91881 11.7701 7.87629 11.7701 8.85576C11.7687 10.1687 11.2499 11.4275 10.3276 12.3559C9.40533 13.2844 8.15488 13.8066 6.85059 13.8081Z" fill="#008059"/>
<path d="M6.93678 3.28149V8.59436H1.65918C1.65918 9.64514 1.96871 10.6723 2.54862 11.546C3.12853 12.4197 3.95277 13.1007 4.91713 13.5028C5.88148 13.9049 6.94263 14.0101 7.96638 13.8051C8.99014 13.6001 9.93052 13.0941 10.6686 12.3511C11.4067 11.6081 11.9093 10.6614 12.113 9.63085C12.3166 8.60025 12.2121 7.53201 11.8126 6.56121C11.4132 5.59041 10.7367 4.76066 9.86885 4.17687C9.00096 3.59309 7.98059 3.28149 6.93678 3.28149Z" fill="#008059"/>
</svg>
