<svg width="101" height="37" viewBox="0 0 101 37" fill="none" xmlns="http://www.w3.org/2000/svg">
<g filter="url(#filter0_d_594_2782)">
<path d="M7.32557 29.2153H3L7.32557 32.82V29.2153Z" fill="#008059"/>
<path d="M3 8.47261C3 4.79838 5.97855 1.81982 9.65278 1.81982H89.3994C90.3595 1.81982 91.2451 2.33697 91.717 3.1731L97.0043 12.5426C98.1784 14.623 98.1469 17.1732 96.9218 19.224L91.7277 27.9187C91.2474 28.7228 90.3798 29.2151 89.4432 29.2151H3V8.47261Z" fill="url(#paint0_linear_594_2782)"/>
<path d="M17.0279 20.8198V11.4394H21.126C22.155 11.4394 22.9489 11.6833 23.5077 12.1712C24.0754 12.6591 24.3593 13.3377 24.3593 14.207C24.3593 14.7835 24.2307 15.2758 23.9734 15.6839C23.7251 16.0919 23.3658 16.4068 22.8957 16.6286C22.4256 16.8415 21.8712 16.9479 21.2325 16.9479L21.4188 16.6951H21.8712C22.2437 16.6951 22.5764 16.7927 22.8691 16.9878C23.1618 17.183 23.4013 17.4801 23.5876 17.8793L24.958 20.8198H23.0687L21.6849 17.7729C21.5607 17.4624 21.37 17.2584 21.1127 17.1608C20.8644 17.0632 20.5628 17.0144 20.208 17.0144H18.7444V20.8198H17.0279ZM18.7444 15.7504H20.8466C21.4498 15.7504 21.9066 15.6262 22.2171 15.3779C22.5364 15.1206 22.6961 14.7481 22.6961 14.2602C22.6961 13.7723 22.5364 13.4042 22.2171 13.1558C21.9066 12.9075 21.4498 12.7833 20.8466 12.7833H18.7444V15.7504ZM26.3704 20.8198V11.4394H32.6905V12.7833H28.0203V15.3779H32.3845V16.735H28.0203V19.4627H32.6905V20.8198H26.3704ZM37.4268 20.9529C36.6728 20.9529 35.9765 20.8597 35.3378 20.6735C34.708 20.4783 34.1669 20.2122 33.7146 19.8751L34.2468 18.5313C34.5484 18.7442 34.8633 18.926 35.1915 19.0768C35.5197 19.2187 35.8701 19.3296 36.2426 19.4094C36.6152 19.4804 37.0099 19.5159 37.4268 19.5159C38.1276 19.5159 38.6332 19.4006 38.9436 19.1699C39.2541 18.9393 39.4093 18.6377 39.4093 18.2652C39.4093 17.937 39.3029 17.6886 39.09 17.52C38.8771 17.3426 38.4957 17.1963 37.9457 17.081L36.4422 16.7749C35.5818 16.5975 34.9387 16.3004 34.5129 15.8835C34.0871 15.4666 33.8742 14.9077 33.8742 14.207C33.8742 13.6215 34.0295 13.1115 34.3399 12.6768C34.6504 12.2422 35.085 11.9051 35.6439 11.6656C36.2027 11.4261 36.8547 11.3064 37.5998 11.3064C38.2651 11.3064 38.8815 11.4039 39.4493 11.5991C40.017 11.7854 40.4915 12.0559 40.8729 12.4107L40.3407 13.688C39.9593 13.3687 39.5424 13.1336 39.09 12.9829C38.6376 12.8232 38.132 12.7434 37.5732 12.7434C36.9434 12.7434 36.4511 12.8675 36.0963 13.1159C35.7503 13.3554 35.5773 13.688 35.5773 14.1138C35.5773 14.442 35.6838 14.7037 35.8967 14.8989C36.1184 15.094 36.491 15.2448 37.0143 15.3512L38.5046 15.644C39.3916 15.8214 40.048 16.1141 40.4738 16.5221C40.8996 16.9213 41.1124 17.4624 41.1124 18.1454C41.1124 18.7042 40.9616 19.1965 40.6601 19.6223C40.3585 20.0392 39.9327 20.3674 39.3827 20.6069C38.8328 20.8376 38.1808 20.9529 37.4268 20.9529ZM47.0937 20.9529C46.118 20.9529 45.2797 20.7577 44.579 20.3674C43.8871 19.9683 43.3548 19.4094 42.9823 18.6909C42.6097 17.9636 42.4235 17.1076 42.4235 16.123C42.4235 15.1384 42.6097 14.2868 42.9823 13.5683C43.3548 12.8498 43.8871 12.2954 44.579 11.9051C45.2797 11.5059 46.118 11.3064 47.0937 11.3064C47.7501 11.3064 48.34 11.3995 48.8633 11.5858C49.3956 11.772 49.8524 12.047 50.2338 12.4107L49.675 13.7679C49.2581 13.4308 48.8545 13.1913 48.4642 13.0494C48.0828 12.8986 47.6437 12.8232 47.1469 12.8232C46.1978 12.8232 45.4704 13.1115 44.9648 13.688C44.4681 14.2557 44.2197 15.0674 44.2197 16.123C44.2197 17.1785 44.4681 17.9946 44.9648 18.5712C45.4704 19.1478 46.1978 19.436 47.1469 19.436C47.6437 19.436 48.0828 19.3651 48.4642 19.2232C48.8545 19.0724 49.2581 18.824 49.675 18.478L50.2338 19.8352C49.8524 20.19 49.3956 20.465 48.8633 20.6602C48.34 20.8553 47.7501 20.9529 47.0937 20.9529ZM55.7499 20.9529C54.4105 20.9529 53.4126 20.6202 52.7562 19.955C52.1086 19.2808 51.7849 18.2873 51.7849 16.9745V11.4394H53.5013V16.9612C53.5013 17.795 53.6787 18.4248 54.0335 18.8506C54.3972 19.2764 54.9693 19.4893 55.7499 19.4893C56.495 19.4893 57.0539 19.2764 57.4264 18.8506C57.8078 18.4248 57.9985 17.795 57.9985 16.9612V11.4394H59.6884V16.9745C59.6884 18.2873 59.3557 19.2808 58.6904 19.955C58.034 20.6202 57.0539 20.9529 55.7499 20.9529ZM61.6873 20.8198V11.4394H68.0074V12.7833H63.3372V15.3779H67.7014V16.735H63.3372V19.4627H68.0074V20.8198H61.6873ZM69.6005 20.8198V11.4394H73.0067C74.08 11.4394 74.9848 11.6257 75.721 11.9982C76.4661 12.3619 77.0294 12.8941 77.4108 13.5949C77.7923 14.2868 77.983 15.1295 77.983 16.123C77.983 17.1076 77.7923 17.9503 77.4108 18.651C77.0294 19.3518 76.4661 19.8884 75.721 20.261C74.9848 20.6335 74.08 20.8198 73.0067 20.8198H69.6005ZM71.3169 19.3961H72.9002C74.0357 19.3961 74.8783 19.1256 75.4283 18.5845C75.9783 18.0434 76.2532 17.2229 76.2532 16.123C76.2532 15.0142 75.9783 14.1937 75.4283 13.6614C74.8783 13.1203 74.0357 12.8498 72.9002 12.8498H71.3169V19.3961Z" fill="white"/>
</g>
<defs>
<filter id="filter0_d_594_2782" x="0.338889" y="0.489269" width="100.186" height="36.3222" filterUnits="userSpaceOnUse" color-interpolation-filters="sRGB">
<feFlood flood-opacity="0" result="BackgroundImageFix"/>
<feColorMatrix in="SourceAlpha" type="matrix" values="0 0 0 0 0 0 0 0 0 0 0 0 0 0 0 0 0 0 127 0" result="hardAlpha"/>
<feOffset dy="1.33056"/>
<feGaussianBlur stdDeviation="1.33056"/>
<feColorMatrix type="matrix" values="0 0 0 0 0 0 0 0 0 0 0 0 0 0 0 0 0 0 0.1 0"/>
<feBlend mode="normal" in2="BackgroundImageFix" result="effect1_dropShadow_594_2782"/>
<feBlend mode="normal" in="SourceGraphic" in2="effect1_dropShadow_594_2782" result="shape"/>
</filter>
<linearGradient id="paint0_linear_594_2782" x1="89.1209" y1="1.81984" x2="11.7033" y2="60.8825" gradientUnits="userSpaceOnUse">
<stop stop-color="#F4E8D2"/>
<stop offset="0.989583" stop-color="#008059"/>
</linearGradient>
</defs>
</svg>
