<svg width="24" height="24" viewBox="0 0 24 24" fill="none" xmlns="http://www.w3.org/2000/svg">
<path d="M4.92893 19.0711C6.32746 20.4696 8.10929 21.422 10.0491 21.8079C11.9889 22.1937 13.9996 21.9957 15.8268 21.2388C17.6541 20.4819 19.2159 19.2002 20.3147 17.5557C21.4135 15.9112 22 13.9778 22 12C22 10.0222 21.4135 8.08879 20.3147 6.4443C19.2159 4.79981 17.6541 3.51808 15.8268 2.76121C13.9996 2.00433 11.9889 1.8063 10.0491 2.19215C8.10929 2.578 6.32746 3.53041 4.92893 4.92893" stroke="#333333" stroke-width="1.5"/>
<path d="M15 12L15.5857 11.5315L15.9605 12L15.5857 12.4685L15 12ZM3 12.75C2.58579 12.75 2.25 12.4142 2.25 12C2.25 11.5858 2.58579 11.25 3 11.25V12.75ZM11.5857 6.53148L15.5857 11.5315L14.4143 12.4685L10.4143 7.46852L11.5857 6.53148ZM15.5857 12.4685L11.5857 17.4685L10.4143 16.5315L14.4143 11.5315L15.5857 12.4685ZM15 12.75H3V11.25H15V12.75Z" fill="#333333"/>
</svg>
