<svg width="14" height="14" viewBox="0 0 14 14" fill="none" xmlns="http://www.w3.org/2000/svg">
<path d="M11.2636 14C11.2272 13.9972 11.1926 13.9826 11.1644 13.9583L6.99891 10.779L2.83342 13.9583C2.80592 13.9828 2.77171 13.9974 2.73577 14C2.71436 13.9997 2.69357 13.9924 2.67626 13.9792C2.65185 13.9615 2.61675 13.915 2.64727 13.8188L4.2387 8.67064L0.0732118 5.4913C-0.00765659 5.42877 -0.00460493 5.36945 0.00454999 5.34059C0.0137049 5.31173 0.0442213 5.26042 0.1434 5.26042H5.29304L6.88447 0.113834C6.91499 0.0144297 6.96992 0 6.99891 0C7.0279 0 7.08435 0.0144297 7.11487 0.113834L8.7063 5.26202H13.8544C13.9551 5.26202 13.9841 5.31173 13.9948 5.34219C14.0055 5.37265 14.007 5.43037 13.9261 5.4913L9.76064 8.67064L11.3521 13.8156C11.3826 13.915 11.3521 13.9615 11.3231 13.976C11.3061 13.9903 11.2853 13.9987 11.2636 14Z" fill="url(#paint0_linear_586_771)"/>
<path d="M6.9991 7.72803L2.7207 13.92C2.73291 13.9312 2.75885 13.92 2.79089 13.8991L6.9991 10.6925V7.72803Z" fill="url(#paint1_linear_586_771)"/>
<path d="M2.71758 13.8398C2.70537 13.8799 2.7069 13.9071 2.71758 13.9168L6.98987 7.72803L4.31511 8.64191L2.71758 13.8398Z" fill="url(#paint2_linear_586_771)"/>
<path d="M11.2782 13.9199L7.00586 7.7312V10.6829L11.211 13.8959C11.24 13.9199 11.2644 13.9279 11.2782 13.9199Z" fill="url(#paint3_linear_586_771)"/>
<path d="M9.67281 8.64191L6.99805 7.72803L11.278 13.92C11.2917 13.9103 11.2932 13.8831 11.278 13.843L9.67281 8.64191Z" fill="url(#paint4_linear_586_771)"/>
<path d="M13.9237 5.36255L6.99805 7.72741L9.67281 8.64129L13.8825 5.42187C13.9146 5.40263 13.9283 5.38019 13.9237 5.36255Z" fill="url(#paint5_linear_586_771)"/>
<path d="M8.65204 5.33765L6.99805 7.72816L13.9237 5.3633C13.9237 5.34727 13.8948 5.33765 13.8536 5.33765H8.65204Z" fill="url(#paint6_linear_586_771)"/>
<path d="M6.99991 7.72741L0.0742188 5.36255C0.0742188 5.38019 0.0833737 5.40263 0.115416 5.42828L4.32363 8.63488L6.99991 7.72741Z" fill="url(#paint7_linear_586_771)"/>
<path d="M0.0742188 5.3633L6.99991 7.72816L5.34745 5.33765H0.144406C0.104735 5.33765 0.0818478 5.34727 0.0742188 5.3633Z" fill="url(#paint8_linear_586_771)"/>
<path d="M6.99805 0.0771484V7.72809L8.65204 5.33757L7.04382 0.131661C7.03161 0.0979913 7.01483 0.0771484 6.99805 0.0771484Z" fill="url(#paint9_linear_586_771)"/>
<path d="M7.00012 7.72809V0.0771484C6.98486 0.0771484 6.96808 0.0979913 6.95587 0.138074L5.34766 5.33757L7.00012 7.72809Z" fill="url(#paint10_linear_586_771)"/>
<path opacity="0.3" d="M9.68707 8.62921L7.05656 7.73137L13.9243 5.38093C13.9254 5.37814 13.926 5.37514 13.926 5.37211C13.926 5.36908 13.9254 5.36608 13.9243 5.3633C13.9221 5.35793 13.9184 5.35344 13.9136 5.35047L7.03978 7.6993L8.6663 5.34566C8.66724 5.34308 8.66724 5.34022 8.6663 5.33764H8.65257V5.32321C8.65141 5.32251 8.65009 5.32214 8.64875 5.32214C8.64742 5.32214 8.6461 5.32251 8.64494 5.32321L7.01536 7.68006V0.0836346C7.01295 0.0825762 7.01035 0.0820312 7.00773 0.0820312C7.00512 0.0820312 7.00252 0.0825762 7.00011 0.0836346C6.9957 0.0817626 6.99078 0.0817626 6.98637 0.0836346V7.68006L5.35985 5.32802V5.34245H5.34612C5.34518 5.34503 5.34518 5.34789 5.34612 5.35047L6.96196 7.6993L0.0866169 5.35047C0.0818434 5.35344 0.0781001 5.35793 0.0759362 5.3633C0.074803 5.36608 0.0742187 5.36908 0.0742188 5.37211C0.0742187 5.37514 0.074803 5.37814 0.0759362 5.38093L6.95281 7.72816L4.32077 8.62921L4.33145 8.63883V8.65326H4.3406L6.97264 7.75381L2.71255 13.9041C2.71311 13.9068 2.71422 13.9093 2.7158 13.9115C2.71738 13.9137 2.71939 13.9156 2.72171 13.9169C2.72664 13.9187 2.73203 13.9187 2.73697 13.9169L6.98637 7.77626V10.683C6.98571 10.6862 6.98571 10.6895 6.98637 10.6927L6.99705 10.683L7.00926 10.6927C7.00992 10.6895 7.00992 10.6862 7.00926 10.683V7.77626L11.2648 13.9201C11.2697 13.9219 11.2751 13.9219 11.28 13.9201C11.2823 13.9188 11.2844 13.9169 11.2859 13.9147C11.2875 13.9125 11.2886 13.91 11.2892 13.9073L7.03978 7.75702L9.67029 8.65647H9.68707V8.64204V8.62921Z" fill="white"/>
<path style="mix-blend-mode:multiply" opacity="0.5" d="M11.2636 14C11.2272 13.9972 11.1926 13.9826 11.1644 13.9583L6.99891 10.779L2.83342 13.9583C2.80592 13.9828 2.77171 13.9974 2.73577 14C2.71436 13.9997 2.69357 13.9924 2.67626 13.9792C2.65185 13.9615 2.61675 13.915 2.64727 13.8188L4.2387 8.67064L0.0732118 5.4913C-0.00765659 5.42877 -0.00460493 5.36945 0.00454999 5.34059C0.0137049 5.31173 0.0442213 5.26042 0.1434 5.26042H5.29304L6.88447 0.113834C6.91499 0.0144297 6.96992 0 6.99891 0C7.0279 0 7.08435 0.0144297 7.11487 0.113834L8.7063 5.26202H13.8544C13.9551 5.26202 13.9841 5.31173 13.9948 5.34219C14.0055 5.37265 14.007 5.43037 13.9261 5.4913L9.76064 8.67064L11.3521 13.8156C11.3826 13.915 11.3521 13.9615 11.3231 13.976C11.3061 13.9903 11.2853 13.9987 11.2636 14Z" fill="url(#paint11_radial_586_771)"/>
<defs>
<linearGradient id="paint0_linear_586_771" x1="6.99891" y1="14" x2="6.99891" y2="0" gradientUnits="userSpaceOnUse">
<stop stop-color="#B4B4B4"/>
<stop offset="1" stop-color="#F5F5F5"/>
</linearGradient>
<linearGradient id="paint1_linear_586_771" x1="4.8599" y1="10.8224" x2="6.2431" y2="11.7785" gradientUnits="userSpaceOnUse">
<stop stop-color="#AAAAAA"/>
<stop offset="1" stop-color="#DCDCDC"/>
</linearGradient>
<linearGradient id="paint2_linear_586_771" x1="3.52321" y1="9.80109" x2="4.9049" y2="10.7573" gradientUnits="userSpaceOnUse">
<stop stop-color="#F5F5F5"/>
<stop offset="1" stop-color="#C8C8C8"/>
</linearGradient>
<linearGradient id="paint3_linear_586_771" x1="9.13896" y1="10.8224" x2="7.75576" y2="11.7785" gradientUnits="userSpaceOnUse">
<stop stop-color="#AAAAAA"/>
<stop offset="1" stop-color="#DCDCDC"/>
</linearGradient>
<linearGradient id="paint4_linear_586_771" x1="10.4754" y1="9.80109" x2="9.0937" y2="10.7573" gradientUnits="userSpaceOnUse">
<stop stop-color="#F5F5F5"/>
<stop offset="1" stop-color="#C8C8C8"/>
</linearGradient>
<linearGradient id="paint5_linear_586_771" x1="10.4617" y1="6.54578" x2="11.0188" y2="8.18098" gradientUnits="userSpaceOnUse">
<stop stop-color="#AAAAAA"/>
<stop offset="1" stop-color="#DCDCDC"/>
</linearGradient>
<linearGradient id="paint6_linear_586_771" x1="9.95051" y1="4.89353" x2="10.5093" y2="6.53026" gradientUnits="userSpaceOnUse">
<stop stop-color="#F5F5F5"/>
<stop offset="1" stop-color="#C8C8C8"/>
</linearGradient>
<linearGradient id="paint7_linear_586_771" x1="3.02821" y1="8.19718" x2="3.58538" y2="6.56198" gradientUnits="userSpaceOnUse">
<stop stop-color="#DCDCDC"/>
<stop offset="1" stop-color="#AAAAAA"/>
</linearGradient>
<linearGradient id="paint8_linear_586_771" x1="3.53783" y1="6.54653" x2="4.09665" y2="4.90981" gradientUnits="userSpaceOnUse">
<stop stop-color="#F5F5F5"/>
<stop offset="1" stop-color="#C8C8C8"/>
</linearGradient>
<linearGradient id="paint9_linear_586_771" x1="8.65204" y1="3.90262" x2="6.99805" y2="3.90262" gradientUnits="userSpaceOnUse">
<stop stop-color="#DCDCDC"/>
<stop offset="1" stop-color="#AAAAAA"/>
</linearGradient>
<linearGradient id="paint10_linear_586_771" x1="5.34766" y1="3.90262" x2="7.00012" y2="3.90262" gradientUnits="userSpaceOnUse">
<stop stop-color="#F5F5F5"/>
<stop offset="1" stop-color="#C8C8C8"/>
</linearGradient>
<radialGradient id="paint11_radial_586_771" cx="0" cy="0" r="1" gradientUnits="userSpaceOnUse" gradientTransform="translate(6.82344 3.55915) scale(14.9332 10.5133)">
<stop offset="0.43" stop-color="white"/>
<stop offset="1"/>
</radialGradient>
</defs>
</svg>
