<svg width="20" height="20" viewBox="0 0 20 20" fill="none" xmlns="http://www.w3.org/2000/svg">
<path fill-rule="evenodd" clip-rule="evenodd" d="M11.8757 4.58333C11.8757 3.08756 13.0882 1.875 14.584 1.875C16.0798 1.875 17.2923 3.08756 17.2923 4.58333C17.2923 6.0791 16.0798 7.29167 14.584 7.29167C13.7843 7.29167 13.0656 6.94508 12.5698 6.39392L10.3054 7.62906L7.77161 9.07692C7.99692 9.472 8.12565 9.9293 8.12565 10.4167C8.12565 10.6636 8.0926 10.9029 8.03067 11.1302L12.5698 13.6061C13.0656 13.0549 13.7843 12.7083 14.584 12.7083C16.0798 12.7083 17.2923 13.9209 17.2923 15.4167C17.2923 16.9124 16.0798 18.125 14.584 18.125C13.0882 18.125 11.8757 16.9124 11.8757 15.4167C11.8757 15.1697 11.9087 14.9305 11.9706 14.7031L7.43152 12.2272C6.93575 12.7784 6.21701 13.125 5.41732 13.125C3.92155 13.125 2.70898 11.9124 2.70898 10.4167C2.70898 8.9209 3.92155 7.70833 5.41732 7.70833C5.95955 7.70833 6.46456 7.86768 6.88809 8.1421L9.69594 6.53761L11.9706 5.29687C11.9087 5.06954 11.8757 4.83029 11.8757 4.58333ZM14.584 3.125C13.7786 3.125 13.1257 3.77792 13.1257 4.58333C13.1257 5.38875 13.7786 6.04167 14.584 6.04167C15.3894 6.04167 16.0423 5.38875 16.0423 4.58333C16.0423 3.77792 15.3894 3.125 14.584 3.125ZM5.41732 8.95833C4.6119 8.95833 3.95898 9.61125 3.95898 10.4167C3.95898 11.2221 4.6119 11.875 5.41732 11.875C6.22273 11.875 6.87565 11.2221 6.87565 10.4167C6.87565 9.61125 6.22273 8.95833 5.41732 8.95833ZM13.1257 15.4167C13.1257 14.6113 13.7786 13.9583 14.584 13.9583C15.3894 13.9583 16.0423 14.6113 16.0423 15.4167C16.0423 16.2221 15.3894 16.875 14.584 16.875C13.7786 16.875 13.1257 16.2221 13.1257 15.4167Z" fill="white"/>
</svg>
