<?xml version="1.0" encoding="UTF-8"?>
<!-- Generator: visioncortex VTracer 0.6.3 -->
<svg version="1.1" xmlns="http://www.w3.org/2000/svg" width="1280" height="1280">
<path d="M0 0 C0.96 -0.01 1.93 -0.01 2.92 -0.02 C3.98 -0.01 5.03 -0.01 6.12 -0 C7.24 -0.01 8.37 -0.01 9.53 -0.01 C13.31 -0.02 17.09 -0.01 20.87 -0.01 C23.57 -0.01 26.28 -0.01 28.98 -0.02 C35.58 -0.03 42.18 -0.02 48.77 -0.02 C54.14 -0.01 59.51 -0.01 64.87 -0.02 C66.02 -0.02 66.02 -0.02 67.19 -0.02 C68.74 -0.02 70.29 -0.02 71.84 -0.02 C86.41 -0.02 100.97 -0.02 115.54 -0.01 C128.02 0 140.49 0 152.96 -0.01 C167.46 -0.02 181.96 -0.02 196.45 -0.02 C198 -0.02 199.55 -0.02 201.1 -0.02 C201.86 -0.02 202.63 -0.02 203.41 -0.02 C208.76 -0.01 214.11 -0.02 219.46 -0.02 C226 -0.03 232.53 -0.02 239.07 -0.01 C242.4 -0.01 245.73 -0.01 249.06 -0.01 C289.43 -0.08 289.43 -0.08 298.34 8.23 C302.36 11.05 306.41 11.75 311.16 12.75 C322.48 15.15 322.48 15.15 327.22 19.25 C327.56 20.13 327.9 21.01 328.25 21.91 C328.57 22.68 328.89 23.46 329.22 24.25 C331.77 25.29 331.77 25.29 334.79 25.69 C340.84 26.97 345.63 29.04 350.22 33.25 C350.52 33.91 350.81 34.57 351.11 35.24 C352.74 38.18 355 38.94 357.97 40.44 C363.29 43.38 365.93 46.03 368.92 51.24 C370.8 54.14 373.27 55.55 376.22 57.25 C378.93 59.54 380.11 61.9 381.54 65.13 C383.22 68.63 384.17 70.21 387.22 72.75 C392.62 77.25 395.03 83.42 396.22 90.25 C396.57 92.44 396.57 92.44 397.22 94.25 C399.6 95.44 399.6 95.44 402.22 96.25 C406.93 102.88 407.85 110.11 409.29 117.98 C410.37 123.45 411.23 127.13 415.22 131.25 C421.04 143.77 420.54 157.7 420.48 171.21 C420.47 174.11 420.48 177.02 420.5 179.93 C420.53 208.94 420.53 208.94 414.22 217.25 C413.4 218.01 413.4 218.01 412.55 218.79 C410.64 220.89 410.47 222.82 409.98 225.58 C409.78 226.63 409.58 227.68 409.38 228.75 C408.99 230.95 408.59 233.14 408.21 235.34 C406.78 242.86 404.78 247.36 399.66 253.15 C396.53 257.14 395.16 261.11 393.55 265.86 C391.91 270.37 390.14 272.54 386.22 275.25 C383.81 277.39 382.72 279.15 381.54 282.13 C379.54 286.38 377.07 287.83 373.05 290.04 C370.31 291.86 369.49 294.29 368.22 297.25 C364.91 301.67 361.43 302.21 356.22 303.25 C356.14 303.97 356.06 304.7 355.97 305.44 C355.01 309.04 353.91 310.64 351.22 313.25 C349.76 313.92 348.28 314.54 346.79 315.13 C343.32 316.51 341.72 317.53 339.85 320.75 C336.74 325.75 331.67 326.81 326.22 328.25 C324.6 328.55 322.98 328.85 321.35 329.13 C317.36 329.92 316.03 331.41 313.62 334.74 C306.83 342.1 292.9 341.64 283.75 342.59 C282.51 342.73 281.27 342.88 280 343.03 C278.89 343.14 277.78 343.26 276.64 343.38 C273.47 344.19 272.09 344.91 269.5 346.73 C265.58 349.21 262.07 350.2 257.46 350.55 C256.67 350.62 255.87 350.69 255.05 350.76 C241.08 351.82 226.99 351.54 212.99 351.52 C208.5 351.52 204.01 351.53 199.51 351.54 C191.75 351.55 183.98 351.56 176.21 351.56 C164.95 351.56 153.7 351.57 142.44 351.59 C124.14 351.62 105.84 351.65 87.55 351.67 C85.91 351.67 85.91 351.67 84.23 351.67 C72.05 351.68 59.86 351.69 47.68 351.7 C43.26 351.7 38.84 351.7 34.42 351.71 C33.33 351.71 32.24 351.71 31.12 351.71 C12.89 351.72 -5.34 351.75 -23.57 351.78 C-34.79 351.8 -46 351.81 -57.22 351.81 C-64.92 351.81 -72.61 351.82 -80.31 351.84 C-84.73 351.85 -89.16 351.85 -93.58 351.84 C-124.8 350.09 -124.8 350.09 -153.78 358.25 C-155.12 359.91 -156.45 361.58 -157.78 363.25 C-160.58 365.02 -160.58 365.02 -163.65 366.5 C-164.66 367 -165.67 367.5 -166.71 368.02 C-169.76 369.25 -172.52 369.84 -175.78 370.25 C-175.9 370.79 -176.02 371.32 -176.15 371.87 C-178.25 379.43 -182.6 385.46 -188.4 390.73 C-191.85 394.55 -192.47 399.94 -193.59 404.81 C-194.81 409.97 -196.26 414.76 -198.4 419.63 C-202.06 427.99 -204.06 436.21 -201.78 445.25 C-200.39 448.55 -198.85 451.74 -197.27 454.95 C-194.69 460.66 -193.4 466.67 -192.33 472.83 C-191.36 478.18 -190.05 480.59 -185.78 484.25 C-184.43 485.91 -183.1 487.58 -181.78 489.25 C-178.05 493.72 -174.42 497.71 -169.78 501.25 C-169.05 502.06 -168.33 502.86 -167.59 503.69 C-164.92 506.12 -162.94 507.21 -159.71 508.69 C-156.08 510.38 -154.96 510.97 -152.71 514.44 C-150.55 517.58 -150.06 517.76 -146.53 518.56 C-144.95 518.83 -143.36 519.05 -141.78 519.25 C-140.6 519.41 -139.42 519.57 -138.2 519.74 C-133.6 520.31 -129 520.59 -124.36 520.81 C-123.46 520.85 -122.55 520.89 -121.61 520.93 C-110.2 521.42 -98.79 521.39 -87.37 521.37 C-84.86 521.37 -82.36 521.37 -79.85 521.37 C-74.45 521.37 -69.04 521.37 -63.63 521.37 C-55.59 521.36 -47.55 521.36 -39.51 521.36 C-29.27 521.36 -19.02 521.36 -8.78 521.36 C-7.57 521.36 -7.57 521.36 -6.33 521.36 C-5.52 521.36 -4.7 521.36 -3.87 521.36 C17.11 521.36 38.09 521.36 59.07 521.38 C62.51 521.38 65.94 521.38 69.37 521.38 C75.45 521.39 81.53 521.39 87.61 521.39 C107.23 521.4 126.86 521.42 146.48 521.42 C147.38 521.43 148.27 521.43 149.2 521.43 C178.3 521.44 207.41 521.44 236.51 521.43 C266.47 521.41 296.42 521.42 326.38 521.46 C330.6 521.46 334.83 521.46 339.06 521.47 C339.89 521.47 340.72 521.47 341.58 521.47 C354.97 521.48 368.36 521.48 381.76 521.46 C395.2 521.44 408.64 521.45 422.09 521.48 C430.07 521.49 438.06 521.49 446.05 521.47 C452.01 521.45 457.97 521.46 463.92 521.49 C466.34 521.5 468.75 521.49 471.17 521.48 C474.44 521.46 477.71 521.47 480.99 521.5 C481.93 521.49 482.88 521.47 483.85 521.46 C489.64 521.55 492.72 522.68 496.92 526.7 C502.74 533.64 501.66 545.62 501.62 554.12 C501.63 555.4 501.63 556.68 501.63 557.99 C501.63 560.67 501.63 563.35 501.61 566.03 C501.6 569.46 501.61 572.88 501.63 576.3 C501.64 579.6 501.63 582.89 501.62 586.18 C501.63 587.4 501.63 588.63 501.64 589.88 C501.55 600.54 501.55 600.54 498.22 605.25 C488.33 612.8 467.39 609.39 455.56 609.39 C453.15 609.39 450.74 609.39 448.33 609.39 C443.09 609.4 437.86 609.4 432.63 609.4 C424.85 609.4 417.06 609.4 409.28 609.41 C394.56 609.42 379.84 609.42 365.12 609.42 C353.73 609.42 342.34 609.42 330.96 609.42 C327.67 609.43 324.39 609.43 321.1 609.43 C320.28 609.43 319.47 609.43 318.63 609.43 C295.65 609.43 272.68 609.44 249.71 609.44 C248.84 609.44 247.98 609.44 247.08 609.44 C242.7 609.44 238.31 609.44 233.92 609.44 C233.05 609.44 232.18 609.44 231.28 609.44 C229.52 609.44 227.76 609.44 226 609.44 C198.66 609.44 171.32 609.44 143.98 609.46 C113.21 609.47 82.43 609.48 51.66 609.48 C48.36 609.48 45.07 609.48 41.77 609.48 C40.96 609.48 40.15 609.48 39.32 609.48 C26.36 609.48 13.41 609.49 0.46 609.5 C-12.62 609.5 -25.69 609.5 -38.76 609.5 C-45.82 609.49 -52.88 609.49 -59.94 609.5 C-85.36 609.53 -110.75 609.47 -136.16 608.42 C-137.54 608.37 -137.54 608.37 -138.95 608.32 C-165.9 607.27 -165.9 607.27 -172.96 600.88 C-177.8 596.58 -183.21 595.45 -189.39 594.11 C-194.53 592.92 -197.35 591.51 -200.78 587.25 C-201.59 584.94 -201.59 584.94 -201.78 583.25 C-202.68 583.21 -203.59 583.17 -204.53 583.13 C-214.02 581.7 -221.18 576.52 -227.04 569.21 C-228.77 567.01 -228.77 567.01 -231.9 565.75 C-235.1 564.08 -235.75 563.01 -237.59 560 C-239.78 556.42 -241.83 554.27 -245.28 551.88 C-249.93 548.54 -251.88 544.83 -254.37 539.76 C-255.72 537.36 -256.73 536.17 -258.9 534.56 C-265.16 529.53 -266.4 522.41 -267.87 514.79 C-268.52 512.12 -268.52 512.12 -270.74 511.04 C-271.41 510.78 -272.08 510.52 -272.78 510.25 C-278.52 503.81 -279.26 494.85 -280.49 486.58 C-280.61 485.78 -280.73 484.98 -280.86 484.16 C-281.09 482.58 -281.31 481.01 -281.51 479.43 C-282.22 474.57 -283.38 471.97 -286.78 468.25 C-295.53 454.48 -291.8 427.09 -288.92 411.92 C-287.95 408.8 -286.87 406.49 -285.32 403.65 C-282.16 397.56 -281.24 391.36 -280.21 384.63 C-277.3 365.88 -277.3 365.88 -270.78 360.25 C-270.12 360.25 -269.46 360.25 -268.78 360.25 C-268.54 359.11 -268.54 359.11 -268.3 357.94 C-266.45 349.77 -264.48 342.26 -257.78 336.81 C-254.19 333.75 -252.95 330.78 -251 326.56 C-249.42 323.58 -247.68 321.96 -244.78 320.25 C-244.05 320.13 -243.33 320 -242.59 319.88 C-241.69 319.57 -241.69 319.57 -240.78 319.25 C-240.1 317.26 -239.43 315.26 -238.78 313.25 C-236.3 310.29 -234.37 308.52 -230.84 306.94 C-227.7 305.21 -226.99 304.32 -225.09 301.44 C-221.49 296.25 -216.48 293.71 -210.78 291.25 C-210.12 291.25 -209.46 291.25 -208.78 291.25 C-208.55 290.67 -208.32 290.1 -208.09 289.5 C-204.92 284.07 -199.6 281.93 -193.78 280.25 C-190.37 279.53 -186.96 278.83 -183.53 278.19 C-180.67 277.54 -180.67 277.54 -179.58 275.29 C-179.32 274.62 -179.05 273.94 -178.78 273.25 C-169.93 267.12 -159.61 266.77 -149.15 265.75 C-147.43 265.58 -147.43 265.58 -145.67 265.4 C-143.21 265.15 -140.76 264.91 -138.3 264.68 C-135.25 264.4 -132.21 264.08 -129.17 263.75 C-112.23 261.98 -95.33 261.95 -78.33 261.96 C-74.02 261.96 -69.71 261.95 -65.4 261.94 C-57.97 261.93 -50.53 261.92 -43.09 261.92 C-32.33 261.91 -21.56 261.89 -10.8 261.87 C6.69 261.83 24.17 261.81 41.65 261.78 C42.7 261.78 43.74 261.78 44.82 261.78 C53.28 261.77 61.75 261.76 70.22 261.75 C77.64 261.74 85.07 261.73 92.49 261.72 C93.53 261.72 94.58 261.72 95.66 261.72 C113.1 261.69 130.54 261.66 147.98 261.63 C158.72 261.61 169.46 261.59 180.2 261.59 C187.54 261.58 194.89 261.57 202.24 261.55 C206.48 261.54 210.71 261.54 214.95 261.54 C218.83 261.54 222.71 261.54 226.59 261.52 C227.99 261.52 229.39 261.52 230.79 261.52 C241.18 261.55 250.25 260.17 260.22 257.38 C267.58 255.38 274.98 253.7 282.42 252.08 C283.68 251.81 284.93 251.53 286.22 251.25 C286.92 251.13 287.62 251 288.34 250.88 C290.58 250.35 290.58 250.35 292.1 247.44 C294.86 243.3 297.94 240.86 302.79 239.56 C306.29 237.68 307.19 234.85 308.97 231.38 C310.6 228.62 312.25 227.43 315.22 226.25 C316.21 226.25 317.2 226.25 318.22 226.25 C318.47 225.2 318.71 224.15 318.96 223.07 C323.56 203.6 323.56 203.6 328.35 199.38 C333.68 193.33 332.53 181.88 332.47 174.25 C332.48 173.25 332.49 172.25 332.5 171.21 C332.47 161.07 331.76 152.68 325.67 144.36 C323.5 141.2 322.43 137.86 321.22 134.25 C320.62 132.52 319.99 130.79 319.35 129.06 C319.06 128.27 318.78 127.47 318.48 126.65 C316.86 123.55 314.76 121.67 312.22 119.25 C311.05 118 309.89 116.74 308.73 115.47 C301.44 107.72 295.36 101.77 285.11 98.49 C281.66 97.01 280.25 95.38 278.22 92.25 C278.22 91.59 278.22 90.93 278.22 90.25 C265.25 87.71 252.29 87.95 239.13 87.95 C236.6 87.94 234.07 87.93 231.55 87.92 C226.13 87.9 220.72 87.89 215.3 87.89 C207.46 87.88 199.61 87.85 191.77 87.83 C179.03 87.79 166.29 87.76 153.54 87.73 C152.78 87.73 152.02 87.73 151.24 87.72 C150.48 87.72 149.71 87.72 148.93 87.72 C138.12 87.7 127.32 87.67 116.51 87.64 C115.75 87.64 114.99 87.64 114.21 87.64 C101.51 87.61 88.8 87.57 76.1 87.53 C68.28 87.51 60.46 87.49 52.64 87.48 C46.65 87.47 40.66 87.45 34.66 87.43 C32.21 87.43 29.76 87.42 27.31 87.42 C23.96 87.42 20.6 87.41 17.25 87.4 C16.28 87.4 15.32 87.4 14.33 87.4 C-4.04 87.31 -4.04 87.31 -8.34 84.19 C-14.27 77.04 -13.1 67.28 -13.11 58.46 C-13.12 57.03 -13.13 55.6 -13.13 54.17 C-13.14 51.18 -13.15 48.19 -13.15 45.21 C-13.15 41.39 -13.17 37.57 -13.21 33.75 C-13.23 30.8 -13.23 27.85 -13.23 24.9 C-13.24 23.49 -13.24 22.09 -13.26 20.68 C-13.28 18.71 -13.27 16.74 -13.26 14.77 C-13.26 13.66 -13.27 12.54 -13.27 11.39 C-12.65 7.46 -11.28 5.32 -8.78 2.25 C-5.78 0.37 -3.5 0 0 0 Z " fill="#000000" transform="translate(395.7763032913208,542.7483177185059)"/>
<path d="M0 0 C9.27 -0.12 18.46 0.53 27.7 1.24 C30.36 1.44 33.02 1.63 35.69 1.82 C62.09 3.78 62.09 3.78 69.11 9.63 C70.24 11.07 70.24 11.07 70.24 13.07 C70.8 13.17 71.36 13.27 71.94 13.37 C74.54 13.84 77.14 14.33 79.74 14.82 C80.62 14.97 81.51 15.13 82.42 15.29 C89.74 16.69 96.01 18.73 101.42 24 C104.61 26.94 107.79 28.14 111.86 29.57 C118.25 31.83 121.18 33.96 124.24 40.07 C125.63 40.7 127.05 41.28 128.49 41.82 C133.2 43.81 135.26 45.95 138.24 50.07 C140.1 52.18 141.56 53.26 144.05 54.69 C147.1 56.97 148.24 58.41 150.17 61.57 C152.13 64.73 153.48 66.51 156.86 68.07 C161.43 70.77 162.69 74.11 164.24 79.07 C164.24 79.73 164.24 80.39 164.24 81.07 C165.14 81.29 166.05 81.52 166.99 81.75 C171.42 83.54 173.28 85.83 175.16 90.22 C175.47 90.99 175.79 91.77 176.11 92.57 C177.54 96 178.23 97.06 181.24 99.5 C186.92 104.36 188.1 111.3 189.61 118.38 C190.94 124.1 192.59 125.68 197.24 129.07 C199.73 133.96 200.78 138.28 201.48 143.76 C201.68 145.21 201.88 146.67 202.08 148.12 C202.38 150.38 202.67 152.64 202.96 154.9 C203.25 157.1 203.55 159.31 203.86 161.51 C204.11 163.47 204.11 163.47 204.37 165.47 C205.32 169.43 206.87 171.78 209.24 175.07 C213.55 184.32 212.69 195.13 212.63 205.09 C212.61 208.06 212.63 211.03 212.65 214 C212.67 236.3 212.67 236.3 207.21 243.88 C204.92 247.58 204.45 250.28 203.93 254.59 C203.74 256.04 203.54 257.49 203.35 258.93 C203.07 261.19 202.8 263.44 202.53 265.69 C200.39 283.26 200.39 283.26 193.05 290.11 C190.51 292.85 189.95 295.89 189.17 299.44 C186.44 311.42 186.44 311.42 181.3 315.25 C178.27 317.55 177.49 319.72 176.36 323.32 C174.4 329.45 171.07 333.83 166.24 338.07 C165.58 338.07 164.92 338.07 164.24 338.07 C163.85 339.16 163.85 339.16 163.45 340.27 C162.2 343.14 160.78 345.29 158.86 347.75 C158.28 348.52 157.69 349.29 157.09 350.08 C155.24 352.07 155.24 352.07 153.24 353.01 C150.4 354.5 149.3 356.59 147.55 359.25 C144.27 363.94 141.01 367.08 136.39 370.39 C133.5 372.64 131.32 375.28 128.99 378.09 C126.58 380.81 123.85 383.07 121.08 385.41 C118.5 387.72 116.44 390.41 114.24 393.07 C113.06 394.09 111.88 395.09 110.67 396.07 C108.31 398.02 107.05 399.36 105.36 402 C102.86 405.61 100.03 407.62 96.53 410.21 C93.62 412.56 91.37 415.23 88.99 418.09 C86.58 420.81 83.85 423.07 81.08 425.41 C78.5 427.72 76.44 430.41 74.24 433.07 C73.06 434.09 71.88 435.09 70.67 436.07 C68.31 438.02 67.05 439.36 65.36 442 C62.86 445.61 60.03 447.62 56.53 450.21 C53.62 452.56 51.37 455.23 48.99 458.09 C46.58 460.81 43.85 463.07 41.08 465.41 C38.5 467.72 36.44 470.41 34.24 473.07 C32.52 474.56 30.78 475.99 28.98 477.38 C27.04 479.12 27.04 479.12 25.4 481.97 C23.01 485.39 20.64 487.25 17.24 489.63 C13.17 492.48 10.31 495.19 7.24 499.07 C4.24 500.07 4.24 500.07 2.11 499.03 C1.3 498.5 0.5 497.98 -0.33 497.44 C-3.85 495.2 -7.33 493.29 -11.14 491.57 C-16.16 489.12 -18.48 486.19 -20.61 481 C-22.03 478.61 -23.15 478.16 -25.7 477.13 C-29.45 475.39 -31.06 473.95 -32.76 470.07 C-32.99 469.2 -33.22 468.33 -33.45 467.44 C-35.27 464.16 -37.34 463.99 -40.79 462.87 C-43.82 461.64 -45.12 459.83 -46.76 457.07 C-47.51 454.25 -47.51 454.25 -47.76 452.07 C-48.84 451.84 -49.91 451.61 -51.01 451.38 C-55.26 449.89 -56.39 448.8 -58.76 445.07 C-59.38 443.55 -59.38 443.55 -60.01 442 C-62.18 438.36 -64.14 437.72 -67.9 436.06 C-70.62 434.61 -71.54 432.84 -72.76 430.07 C-72.99 429.2 -73.22 428.33 -73.45 427.44 C-75.27 424.16 -77.34 423.99 -80.79 422.87 C-83.82 421.64 -85.12 419.83 -86.76 417.07 C-87.51 414.25 -87.51 414.25 -87.76 412.07 C-89.37 411.73 -89.37 411.73 -91.01 411.38 C-95.26 409.89 -96.39 408.8 -98.76 405.07 C-99.18 404.06 -99.59 403.05 -100.01 402 C-102.18 398.36 -104.14 397.72 -107.9 396.06 C-110.62 394.61 -111.54 392.84 -112.76 390.07 C-112.99 389.2 -113.22 388.33 -113.45 387.44 C-115.27 384.16 -117.34 383.99 -120.79 382.87 C-123.82 381.64 -125.12 379.83 -126.76 377.07 C-127.51 374.25 -127.51 374.25 -127.76 372.07 C-129.37 371.73 -129.37 371.73 -131.01 371.38 C-135.26 369.89 -136.39 368.8 -138.76 365.07 C-139.18 364.06 -139.59 363.05 -140.01 362 C-141.92 358.81 -142.39 358.61 -145.64 357.32 C-150.47 355.23 -151.42 352.09 -153.42 347.45 C-154.94 344.76 -156.06 343.97 -158.76 342.57 C-163.93 339.86 -165.81 335.38 -167.76 330.07 C-167.76 329.41 -167.76 328.75 -167.76 328.07 C-168.49 327.9 -169.21 327.74 -169.95 327.57 C-174.93 324.91 -177.03 320.35 -178.72 315.08 C-179.02 314.05 -179.33 313.01 -179.64 311.94 C-181.16 306.99 -182.66 304.45 -187.08 301.74 C-191.72 297.13 -192.47 289.28 -193.45 283.07 C-193.65 281.9 -193.65 281.9 -193.84 280.72 C-194.16 278.84 -194.46 276.95 -194.76 275.07 C-197.07 275.07 -199.38 275.07 -201.76 275.07 C-201.76 230.52 -201.76 185.97 -201.76 140.07 C-199.45 140.07 -197.14 140.07 -194.76 140.07 C-194.67 139.5 -194.57 138.94 -194.48 138.36 C-194.03 135.76 -193.55 133.16 -193.08 130.57 C-192.93 129.68 -192.78 128.79 -192.63 127.88 C-191.51 121.92 -189.87 116.68 -185.76 112.07 C-184.73 111.56 -184.73 111.56 -183.68 111.05 C-181.38 110.13 -181.38 110.13 -180.46 106.84 C-180.07 105.52 -179.69 104.2 -179.33 102.88 C-177.14 95.71 -174.74 90.97 -169.33 85.69 C-167.05 83.36 -165.59 81.31 -163.89 78.57 C-161.93 75.5 -160.29 73.5 -157.2 71.57 C-153.4 69.17 -151.88 66.16 -150 62.15 C-147.91 58.62 -144.78 57 -141.2 55.19 C-137.86 53.33 -136.61 51.43 -134.76 48.07 C-125.79 40.07 -125.79 40.07 -121.76 40.07 C-121.54 39.49 -121.31 38.91 -121.08 38.32 C-117.76 32.63 -112.42 31.01 -106.48 29 C-105.59 28.69 -104.69 28.38 -103.76 28.07 C-102.88 27.77 -101.99 27.47 -101.08 27.16 C-98.52 25.95 -97.77 25.03 -96.26 22.69 C-91.21 16.41 -82.44 15.53 -74.89 14.19 C-70.75 13.36 -68.66 11.45 -65.64 8.6 C-58.75 2.98 -48.46 3.17 -40.01 2.44 C-38.63 2.32 -37.24 2.19 -35.86 2.06 C-23.92 1 -11.99 0.29 0 0 Z M-12.58 152.82 C-13.87 153.09 -13.87 153.09 -15.2 153.37 C-16.92 153.75 -18.65 154.13 -20.37 154.52 C-21.86 154.86 -23.36 155.19 -24.86 155.5 C-31.95 156.82 -31.95 156.82 -37.35 161.14 C-38.12 162.71 -38.85 164.31 -39.52 165.92 C-41.1 168.65 -42.51 169.13 -45.39 170.32 C-48.64 171.87 -49.57 172.6 -50.98 175.98 C-51.76 179.34 -52.33 182.64 -52.76 186.07 C-52.95 187.29 -53.13 188.52 -53.31 189.79 C-54.92 202.92 -54.67 217.15 -51.76 230.07 C-51.59 231 -51.42 231.93 -51.24 232.89 C-50.18 237.81 -50.18 237.81 -46.97 241.48 C-45.6 242.23 -44.22 242.96 -42.82 243.64 C-40.32 245.37 -39.87 246.71 -38.77 249.5 C-37.17 252.54 -36.26 253.82 -33.15 255.35 C-29.97 256.26 -26.82 256.95 -23.58 257.57 C-21.4 258.03 -19.21 258.5 -17.03 258.97 C-16.07 259.16 -15.11 259.35 -14.11 259.54 C-11.76 260.07 -11.76 260.07 -9.76 261.07 C4.14 262.48 23.44 260.93 35.24 253.07 C35.79 251.97 36.35 250.88 36.92 249.75 C38.59 246.58 39.93 245.58 43.17 244.13 C47.04 242 48.05 239.57 49.32 235.41 C49.72 233.97 50.12 232.53 50.51 231.09 C51.97 225.67 53.91 221.65 57.24 217.07 C59.74 213.31 59.54 211.17 59.55 206.69 C59.57 204.73 59.57 204.73 59.6 202.73 C59.21 198.84 58.44 197.21 56.24 194.07 C52.71 187.58 49.71 181.32 47.97 174.12 C46.78 170.81 44.96 169.43 41.86 167.88 C38.65 165.67 37.42 163.32 35.64 159.91 C32.08 155.25 23.98 154.69 18.55 153.44 C17.61 153.21 16.66 152.98 15.69 152.75 C5.84 150.47 -2.74 150.7 -12.58 152.82 Z " fill="#000000" transform="translate(201.76416015625,126.93359375)"/>
<path d="M0 0 C2.82 -0 5.64 -0.02 8.46 -0.04 C45.25 -0.16 45.25 -0.16 57.66 10.19 C63.34 12.1 68.86 12.78 74.78 13.31 C79.36 13.8 82.78 14.7 86.66 17.19 C87.83 18.68 87.83 18.68 89.03 20.2 C92.32 23.94 94.96 24.7 99.66 25.87 C110.88 28.86 110.88 28.86 114.91 34.12 C117.03 36.86 118.95 37.92 122.16 39.19 C126.79 41.03 128.91 43.02 131.66 47.19 C131.66 48.18 131.66 49.17 131.66 50.19 C132.19 50.31 132.72 50.43 133.27 50.56 C143.98 53.52 151.66 61.06 157.66 70.19 C158.17 71.28 158.69 72.37 159.22 73.5 C161.07 76.95 163.37 78.13 166.66 80.19 C169.23 82.76 169.82 84.83 170.47 88.31 C170.86 90.41 170.86 90.41 171.66 92.19 C173.63 92.92 175.64 93.58 177.66 94.19 C181.2 99.13 183.24 104.79 185.51 110.42 C186.47 112.73 187.5 114.96 188.66 117.19 C189.32 117.19 189.98 117.19 190.66 117.19 C194.74 123.24 195.82 128.97 196.91 136.12 C197.17 137.72 197.17 137.72 197.43 139.35 C197.85 141.96 198.26 144.57 198.66 147.19 C200.97 147.19 203.28 147.19 205.66 147.19 C205.66 189.1 205.66 231.01 205.66 274.19 C203.35 274.19 201.04 274.19 198.66 274.19 C198.48 275.38 198.29 276.58 198.11 277.81 C194.42 301.4 194.42 301.4 187.21 307.39 C184.96 309.99 184.07 312.87 182.84 316.06 C180.27 322.45 177.92 326.06 171.66 329.19 C171.07 330.71 170.53 332.26 170.03 333.81 C168.14 338.8 165.8 341.17 161.66 344.41 C159.49 346.33 158.18 348.22 156.66 350.69 C154.12 354.76 151.25 357.46 147.55 360.48 C145.62 362.22 144.24 363.97 142.78 366.12 C142.08 367.13 141.38 368.14 140.66 369.19 C140 369.19 139.34 369.19 138.66 369.19 C138.39 369.78 138.12 370.38 137.84 371 C136.66 373.18 135.56 374.6 133.66 376.19 C133 376.19 132.34 376.19 131.66 376.19 C131.42 376.76 131.19 377.33 130.95 377.92 C129.35 380.73 127.42 382.39 124.97 384.5 C121.27 387.74 117.74 391.06 114.31 394.57 C112.62 396.22 110.86 397.7 109.03 399.19 C106.52 401.27 104.69 403.37 102.84 406.06 C101.76 407.61 101.76 407.61 100.66 409.19 C100 409.19 99.34 409.19 98.66 409.19 C98.39 409.78 98.12 410.38 97.84 411 C96.66 413.18 95.56 414.6 93.66 416.19 C93 416.19 92.34 416.19 91.66 416.19 C91.42 416.76 91.19 417.33 90.95 417.92 C89.35 420.73 87.42 422.39 84.97 424.5 C81.27 427.74 77.74 431.06 74.31 434.57 C72.62 436.22 70.86 437.7 69.03 439.19 C66.52 441.27 64.69 443.37 62.84 446.06 C61.76 447.61 61.76 447.61 60.66 449.19 C60 449.19 59.34 449.19 58.66 449.19 C58.39 449.78 58.12 450.38 57.84 451 C56.66 453.18 55.56 454.6 53.66 456.19 C53 456.19 52.34 456.19 51.66 456.19 C51.42 456.76 51.19 457.33 50.95 457.92 C49.35 460.73 47.42 462.39 44.97 464.5 C41.27 467.74 37.74 471.06 34.31 474.57 C32.62 476.22 30.86 477.7 29.03 479.19 C26.52 481.27 24.69 483.37 22.84 486.06 C22.12 487.09 21.4 488.12 20.66 489.19 C20 489.19 19.34 489.19 18.66 489.19 C18.32 490.05 18.32 490.05 17.97 490.94 C15.03 495.97 10.45 498.08 5.06 499.7 C1.08 500.5 -2.46 500.42 -6.34 499.19 C-9.32 496.86 -10.97 494.86 -12.78 491.56 C-14.81 488.47 -17.03 487.74 -20.34 486.19 C-23.18 483.9 -24.2 482.75 -25.09 479.19 C-26.74 475.23 -28.6 474.83 -32.37 473.18 C-35.23 471.74 -36.65 469.86 -38.34 467.19 C-38.57 466.34 -38.8 465.49 -39.03 464.62 C-40.65 461.62 -41.54 461.57 -44.66 460.44 C-49.67 458.49 -50.93 455.95 -53.16 451.23 C-54.89 448.23 -57.2 447.45 -60.34 446.19 C-63.18 443.9 -64.2 442.75 -65.09 439.19 C-66.74 435.23 -68.6 434.83 -72.37 433.18 C-75.23 431.74 -76.65 429.86 -78.34 427.19 C-78.57 426.34 -78.8 425.49 -79.03 424.62 C-80.65 421.62 -81.54 421.57 -84.66 420.44 C-89.67 418.49 -90.93 415.95 -93.16 411.23 C-94.89 408.23 -97.2 407.45 -100.34 406.19 C-103.18 403.9 -104.2 402.75 -105.09 399.19 C-106.74 395.23 -108.6 394.83 -112.37 393.18 C-115.23 391.74 -116.65 389.86 -118.34 387.19 C-118.57 386.34 -118.8 385.49 -119.03 384.62 C-120.65 381.62 -121.54 381.57 -124.66 380.44 C-129.67 378.49 -130.93 375.95 -133.16 371.23 C-134.89 368.25 -137.25 367.5 -140.34 366.19 C-142.81 363.58 -144.24 361.45 -145.59 358.12 C-147.5 354.92 -147.97 354.73 -151.22 353.44 C-156.03 351.35 -157 348.26 -159 343.62 C-160.49 340.92 -161.7 339.98 -164.28 338.37 C-170 334.63 -172.08 328.41 -174.34 322.19 C-174.34 321.53 -174.34 320.87 -174.34 320.19 C-175.66 319.53 -176.98 318.87 -178.34 318.19 C-178.34 317.53 -178.34 316.87 -178.34 316.19 C-179.33 315.86 -180.32 315.53 -181.34 315.19 C-182.41 313.25 -182.41 313.25 -183.34 310.75 C-183.69 309.85 -184.03 308.94 -184.38 308.01 C-185.28 305.36 -186.01 302.71 -186.72 300 C-187.95 295.67 -189.78 293.27 -192.84 290.05 C-198.09 283.53 -198.24 273.72 -199.16 265.74 C-199.81 260.61 -200.7 256.72 -203.34 252.19 C-210.27 239.36 -209.65 224.33 -209.72 210.12 C-209.73 208.99 -209.73 208.99 -209.74 207.83 C-209.81 199.43 -209.43 191.29 -208.01 183 C-207.89 182.32 -207.77 181.64 -207.65 180.93 C-206.64 175.57 -205.28 170.12 -201.34 166.19 C-199.63 160.9 -199.04 155.28 -198.35 149.79 C-195.99 131.25 -195.99 131.25 -189.33 125.42 C-186.67 122.43 -186 119.22 -185.03 115.44 C-183.37 109.58 -181.74 105.74 -177.3 101.45 C-174.05 97.69 -171.94 93.24 -169.72 88.82 C-167.25 84.12 -164.9 82.08 -160.34 79.19 C-158.74 76.76 -158.74 76.76 -157.72 74.12 C-155.67 69.28 -153.52 67.27 -148.84 64.94 C-146.06 63.29 -146.06 63.29 -144.72 59.87 C-142.39 55.29 -138.42 53.81 -133.9 51.74 C-130.91 49.92 -129.96 48.24 -128.34 45.19 C-124.62 41.67 -118.7 37.19 -113.34 37.19 C-113.16 36.63 -112.97 36.07 -112.78 35.5 C-108.58 28.73 -101.61 27.13 -94.33 25.28 C-91.01 24.07 -89.64 22.82 -87.34 20.19 C-84.39 16.88 -82.43 15.59 -78.09 14.62 C-77.05 14.38 -76 14.15 -74.92 13.9 C-72.34 13.38 -69.76 12.9 -67.18 12.44 C-66.47 12.31 -65.76 12.19 -65.03 12.06 C-63.64 11.81 -62.25 11.58 -60.86 11.36 C-56.74 10.66 -53.77 9.56 -50.34 7.19 C-44 2.83 -37.93 1.98 -30.34 1.19 C-29.57 1.1 -28.79 1.01 -27.99 0.92 C-18.67 -0.01 -9.35 -0 0 0 Z M-28.34 156.19 C-30.39 159.02 -30.39 159.02 -31.34 162.19 C-34.14 164.38 -36.48 165.93 -39.89 166.95 C-43.22 168.63 -43.49 170.2 -44.66 173.69 C-46.39 178.32 -48.23 181.51 -51.53 185.19 C-59.23 194.27 -57.93 207.19 -57.1 218.46 C-56.38 224.38 -55.62 227.65 -51 231.43 C-46.72 235.97 -44.3 243.06 -42.49 248.97 C-41.52 251.38 -41.52 251.38 -39.06 252.34 C-38.14 252.6 -37.22 252.86 -36.28 253.12 C-29.58 255.29 -23.33 258.2 -19.34 264.19 C-12.81 266.89 -5.22 266.52 1.72 266.5 C2.76 266.51 3.79 266.53 4.86 266.55 C12.19 266.55 18.12 265.99 24.06 261.28 C24.71 260.61 25.36 259.94 26.03 259.25 C29.23 256.19 31.69 254.62 35.91 253.31 C39.03 252.24 40.32 251.69 42.15 248.9 C42.95 247.13 43.71 245.35 44.44 243.56 C45.79 240.93 46.76 240.18 49.28 238.75 C53.42 236.17 53.96 233.12 55.09 228.55 C56.06 222.77 56.02 217.02 55.94 211.18 C55.91 209.06 55.9 206.94 55.89 204.81 C56.56 192.35 56.56 192.35 52.34 181.37 C51.46 180.65 50.57 179.93 49.66 179.19 C46.3 176.13 44.65 173.25 42.66 169.19 C40.59 166.77 38.7 165.64 35.78 164.44 C32.52 162.91 31.14 161.7 29.41 158.56 C27.87 156.17 27.03 155.31 24.29 154.43 C16.07 153.18 8.02 152.85 -0.28 152.87 C-1.55 152.86 -2.82 152.84 -4.12 152.82 C-12.37 152.82 -20.54 153.28 -28.34 156.19 Z " fill="#000000" transform="translate(1074.343017578125,649.814697265625)"/>
</svg>
