<svg width="14" height="15" viewBox="0 0 14 15" fill="none" xmlns="http://www.w3.org/2000/svg">
<path d="M7.73822 9.03404H1.47398C1.2405 9.03404 1.04688 8.84042 1.04688 8.60694V4.97368C1.04688 4.79144 1.16076 4.63198 1.32591 4.56934C1.49676 4.50669 1.68469 4.55797 1.79859 4.69464C2.14597 5.11036 2.68697 5.34383 3.22228 5.32675C3.67786 5.31536 4.09926 5.14453 4.41816 4.84271C4.56623 4.71742 4.68582 4.56935 4.77694 4.4042C4.95347 4.10238 5.0389 3.77208 5.03321 3.43608C5.02182 2.91217 4.79404 2.43381 4.4068 2.08643C4.27012 1.96684 4.22455 1.7789 4.28719 1.61375C4.34984 1.44861 4.5093 1.33472 4.68584 1.33472H8.87717C9.11065 1.33472 9.30428 1.52834 9.30428 1.76182V7.45658C9.30428 8.33358 8.60382 9.03404 7.73822 9.03404ZM1.90109 8.17983H7.73822C8.13116 8.17983 8.45006 7.86092 8.45006 7.46799V2.20033H5.56852C5.76783 2.57049 5.87603 2.98622 5.88742 3.41902C5.89881 3.91446 5.77352 4.4042 5.52295 4.83131C5.38627 5.07618 5.19835 5.30968 4.99334 5.48052C4.53776 5.91332 3.91133 6.16958 3.24504 6.18666C2.76668 6.20375 2.30542 6.08416 1.90679 5.86776V8.17983H1.90109Z" fill="#10CD00"/>
<path d="M11.1551 12.4509H10.5856C10.3521 12.4509 10.1585 12.2573 10.1585 12.0238C10.1585 11.6309 9.83959 11.312 9.44665 11.312C9.05371 11.312 8.7348 11.6309 8.7348 12.0238C8.7348 12.2573 8.54118 12.4509 8.30769 12.4509H6.02979C5.79631 12.4509 5.60268 12.2573 5.60268 12.0238C5.60268 11.6309 5.28378 11.312 4.89084 11.312C4.4979 11.312 4.17899 11.6309 4.17899 12.0238C4.17899 12.2573 3.98537 12.4509 3.75189 12.4509H3.18241C2.00359 12.4509 1.04688 11.4942 1.04688 10.3154V8.60696C1.04688 8.37347 1.2405 8.17985 1.47398 8.17985H7.73822C8.13116 8.17985 8.45006 7.86094 8.45006 7.468V3.48167C8.45006 3.24819 8.64369 3.05457 8.87717 3.05457H9.92502C10.4888 3.05457 11.007 3.3564 11.286 3.84615L12.2599 5.54887C12.3339 5.67985 12.3339 5.845 12.2599 5.97598C12.1858 6.10696 12.0434 6.18668 11.8897 6.18668H11.1551C11.0753 6.18668 11.0127 6.24933 11.0127 6.32905V8.03748C11.0127 8.11721 11.0753 8.17985 11.1551 8.17985H12.8635C13.097 8.17985 13.2906 8.37347 13.2906 8.60696V10.3154C13.2906 11.4942 12.3339 12.4509 11.1551 12.4509ZM10.9558 11.5967H11.1551C11.8612 11.5967 12.4364 11.0215 12.4364 10.3154V9.03406H11.1551C10.6084 9.03406 10.1585 8.58418 10.1585 8.03748V6.32905C10.1585 5.78236 10.6027 5.33247 11.1551 5.33247L10.5457 4.26755C10.4204 4.04546 10.1813 3.90878 9.92502 3.90878H9.30428V7.468C9.30428 8.33361 8.60382 9.03406 7.73822 9.03406H1.90109V10.3154C1.90109 11.0215 2.47626 11.5967 3.18241 11.5967H3.38171C3.56964 10.9418 4.1733 10.4578 4.89084 10.4578C5.60838 10.4578 6.21204 10.9418 6.39996 11.5967H7.94322C8.13115 10.9418 8.73481 10.4578 9.45235 10.4578C10.1699 10.4578 10.7678 10.9418 10.9558 11.5967Z" fill="#10CD00"/>
<path d="M4.89125 13.5899C4.02565 13.5899 3.3252 12.8894 3.3252 12.0238C3.3252 11.1582 4.02565 10.4578 4.89125 10.4578C5.75686 10.4578 6.45731 11.1582 6.45731 12.0238C6.45731 12.8894 5.75686 13.5899 4.89125 13.5899ZM4.89125 11.312C4.49832 11.312 4.17941 11.6309 4.17941 12.0238C4.17941 12.4168 4.49832 12.7357 4.89125 12.7357C5.28419 12.7357 5.6031 12.4168 5.6031 12.0238C5.6031 11.6309 5.28419 11.312 4.89125 11.312Z" fill="#10CD00"/>
<path d="M9.44692 13.5899C8.58131 13.5899 7.88086 12.8894 7.88086 12.0238C7.88086 11.1582 8.58131 10.4578 9.44692 10.4578C10.3125 10.4578 11.013 11.1582 11.013 12.0238C11.013 12.8894 10.3125 13.5899 9.44692 13.5899ZM9.44692 11.312C9.05398 11.312 8.73507 11.6309 8.73507 12.0238C8.73507 12.4168 9.05398 12.7357 9.44692 12.7357C9.83986 12.7357 10.1588 12.4168 10.1588 12.0238C10.1588 11.6309 9.83986 11.312 9.44692 11.312Z" fill="#10CD00"/>
<path d="M12.8632 9.03399H11.1548C10.6081 9.03399 10.1582 8.58411 10.1582 8.03741V6.32898C10.1582 5.78228 10.6081 5.3324 11.1548 5.3324H11.8894C12.0432 5.3324 12.1855 5.41213 12.2596 5.5488L13.2334 7.25723C13.2676 7.31987 13.2903 7.3939 13.2903 7.46793V8.60688C13.2903 8.84037 13.0967 9.03399 12.8632 9.03399ZM11.1548 6.18661C11.0751 6.18661 11.0124 6.24925 11.0124 6.32898V8.03741C11.0124 8.11714 11.0751 8.17978 11.1548 8.17978H12.4361V7.58183L11.6388 6.18661H11.1548Z" fill="#10CD00"/>
<path d="M3.17707 6.18663C2.39119 6.18663 1.65088 5.84493 1.14974 5.24698C1.07001 5.16156 0.984599 5.04197 0.910567 4.92808C0.642913 4.52375 0.494849 4.0454 0.48346 3.54426C0.460681 2.71282 0.813763 1.93263 1.45158 1.40302C1.93563 1.00439 2.51647 0.788001 3.1315 0.776611C3.80348 0.782306 4.47549 1.0044 4.97663 1.45429C5.54611 1.95543 5.8764 2.65589 5.89348 3.41899C5.90487 3.91443 5.77958 4.40417 5.52901 4.83128C5.39233 5.07615 5.20441 5.30965 4.9994 5.48049C4.54382 5.91329 3.91739 6.16955 3.2511 6.18663C3.22263 6.18663 3.19985 6.18663 3.17707 6.18663ZM3.17707 1.63083C3.16568 1.63083 3.15429 1.63083 3.1429 1.63083C2.72719 1.63652 2.32854 1.79028 1.99255 2.06363C1.55975 2.4224 1.32058 2.95771 1.33197 3.52149C1.34336 3.86318 1.44018 4.18779 1.62241 4.45544C1.67366 4.53517 1.72491 4.60917 1.78755 4.67751C2.15201 5.11031 2.69303 5.33811 3.22264 5.32672C3.67822 5.31533 4.09962 5.1445 4.41852 4.84268C4.56659 4.71739 4.68618 4.56932 4.7773 4.40417C4.95383 4.10235 5.03926 3.77205 5.03357 3.43605C5.02218 2.91214 4.7944 2.43378 4.40716 2.0864C4.06547 1.79597 3.63265 1.63083 3.17707 1.63083Z" fill="#10CD00"/>
<path d="M2.86929 4.47817C2.76109 4.47817 2.65857 4.4383 2.57315 4.35857L1.99797 3.8119C1.82713 3.64675 1.82146 3.3791 1.98661 3.20825C2.15175 3.03741 2.41941 3.03171 2.59025 3.19685L2.86929 3.46449L3.76337 2.59891C3.93421 2.43376 4.20186 2.43943 4.36701 2.61028C4.53216 2.78112 4.52645 3.04881 4.35561 3.21395L3.16539 4.36427C3.07997 4.4383 2.97179 4.47817 2.86929 4.47817Z" fill="#10CD00"/>
</svg>
