<svg width="40" height="40" viewBox="0 0 40 40" fill="none" xmlns="http://www.w3.org/2000/svg">
<mask id="mask0_912_11731" style="mask-type:alpha" maskUnits="userSpaceOnUse" x="5" y="5" width="30" height="30">
<path d="M5 13C5 9.22876 5 7.34315 6.17157 6.17157C7.34315 5 9.22876 5 13 5H27C30.7712 5 32.6569 5 33.8284 6.17157C35 7.34315 35 9.22876 35 13V27C35 30.7712 35 32.6569 33.8284 33.8284C32.6569 35 30.7712 35 27 35H13C9.22876 35 7.34315 35 6.17157 33.8284C5 32.6569 5 30.7712 5 27V13Z" fill="black"/>
</mask>
<g mask="url(#mask0_912_11731)">
<path d="M21.4983 24.6473L7.18423 8.90187C6.85542 8.54018 6.3893 8.33398 5.90049 8.33398C3.71086 8.33398 2.06861 6.33076 2.49804 4.18365L3.16311 0.858256C3.50656 -0.858967 3.67828 -1.71758 4.10939 -2.37036C4.55424 -3.04395 5.19249 -3.56719 5.94024 -3.8713C6.6649 -4.16602 7.54051 -4.16602 9.29174 -4.16602H29.2935C33.1541 -4.16602 35.0844 -4.16602 36.2619 -2.95796C37.4394 -1.7499 37.3899 0.179737 37.2909 4.03901V4.03905L36.668 28.334L30.2968 23.0246C28.7472 21.7333 27.9724 21.0877 27.1485 21.1617C26.9935 21.1756 26.8407 21.2076 26.6931 21.257C25.9086 21.5194 25.4576 22.4215 24.5555 24.2256C24.0428 25.2511 23.7864 25.7638 23.3525 25.8805C23.2716 25.9022 23.1882 25.9137 23.1044 25.9147C22.6552 25.9199 22.2695 25.4957 21.4983 24.6473Z" fill="#7E869E" fill-opacity="0.25" stroke="#222222" stroke-width="1.2" stroke-linecap="round"/>
</g>
<path d="M5 21.6667V13C5 9.22876 5 7.34315 6.17157 6.17157C7.34315 5 9.22876 5 13 5H27C30.7712 5 32.6569 5 33.8284 6.17157C35 7.34315 35 9.22876 35 13V27C35 30.7712 35 32.6569 33.8284 33.8284C32.6569 35 30.7712 35 27 35H20" stroke="#222222" stroke-width="1.2"/>
<circle cx="27.5" cy="12.5" r="2.5" fill="#222222"/>
<path d="M13.332 26.666V26.066H13.932V26.666H13.332ZM5.37351 33.8012C5.11476 34.0082 4.73718 33.9663 4.53018 33.7075C4.32317 33.4487 4.36512 33.0712 4.62388 32.8642L5.37351 33.8012ZM12.732 34.9994V26.666H13.932V34.9994H12.732ZM13.332 27.266H4.9987V26.066H13.332V27.266ZM13.7068 27.1345L5.37351 33.8012L4.62388 32.8642L12.9572 26.1975L13.7068 27.1345Z" fill="#222222"/>
</svg>
